<svg width="86" height="86" viewBox="0 0 86 86" fill="none" xmlns="http://www.w3.org/2000/svg">
<path d="M40.6525 80.6248C40.365 80.5929 40.0935 80.5609 39.8061 80.529C39.1833 80.4491 38.5285 80.3852 37.9057 80.2894C30.2881 79.2035 23.5807 76.0894 17.9753 71.0589C11.5395 65.2618 7.49913 58.0435 5.96603 49.5635C5.79036 48.6053 5.6626 47.6152 5.55081 46.641C5.5029 46.2098 5.43902 45.7786 5.39111 45.3475V40.6683C5.40708 40.6044 5.40708 40.5565 5.42305 40.4926C5.45499 40.317 5.48693 40.1573 5.51887 39.9816C5.61469 39.3907 5.69454 38.7839 5.77439 38.193C5.93409 36.9633 6.09379 35.7017 6.39721 34.504C9.22387 22.9578 16.0909 14.4139 26.7428 9.12791C31.7573 6.63662 37.1391 5.375 42.7126 5.375C44.8046 5.375 46.9446 5.55067 49.1005 5.902C56.1432 7.05183 62.4034 10.0062 67.6894 14.6854C75.9618 22.0315 80.3055 31.326 80.593 42.3132C80.7846 49.5156 78.996 56.2229 75.2591 62.2914C69.2864 71.9851 60.6148 77.9578 49.4678 80.0499C48.5256 80.2255 47.5355 80.3533 46.5773 80.4651C46.1621 80.513 45.7469 80.5609 45.3316 80.6248H40.6525ZM12.3699 55.7758C12.0665 55.7758 11.795 55.9195 11.6353 56.175C11.4756 56.4305 11.4437 56.7339 11.5714 57.0054L11.6034 57.1012C11.7152 57.3727 11.827 57.6283 11.9547 57.8678C17.9434 69.4619 27.5093 76.0095 40.397 77.335C40.5087 77.351 40.6205 77.351 40.7164 77.351C41.7384 77.351 42.0898 76.6962 42.2974 76.0574C43.8305 71.2824 45.4115 66.4276 46.9446 61.7325C47.4077 60.3112 47.8708 58.8899 48.334 57.4686C48.3819 57.2929 48.4457 57.1332 48.4937 56.9415L48.5096 56.8777C48.5895 56.6062 48.5416 56.3347 48.3659 56.1111C48.2062 55.8875 47.9347 55.7598 47.6632 55.7598L12.3699 55.7758ZM57.3888 41.898C57.0056 41.898 56.6702 42.1375 56.5584 42.5048L45.651 76.0734C45.5712 76.3449 45.6191 76.6323 45.7788 76.8559C45.9385 77.0795 46.21 77.2232 46.4974 77.2232C46.5294 77.2232 46.5613 77.2232 46.5932 77.2232C46.8168 77.1913 47.0244 77.1753 47.2161 77.1434C60.2155 75.1951 69.5259 68.0725 74.8918 55.9514C75.275 55.105 75.1153 54.5141 74.3648 53.9712C69.0149 50.1224 63.6171 46.1939 58.2832 42.3132C58.1554 42.2174 58.0276 42.1375 57.8839 42.0417C57.7402 41.9619 57.5645 41.898 57.3888 41.898ZM19.9875 17.4642C10.2619 26.7107 6.74855 38.0652 9.55924 51.1924C9.76684 52.1346 10.2779 52.5658 11.252 52.5658H11.268C15.2285 52.5498 19.0613 52.5498 22.3032 52.5498C23.7404 52.5498 31.4858 52.5498 31.4858 52.5498C31.7733 52.5498 32.0288 52.4221 32.2044 52.1825C32.3641 51.959 32.412 51.6555 32.3322 51.4C28.6911 40.1732 25.0659 29.0423 21.4408 17.8474C21.329 17.4801 20.9777 17.2406 20.5944 17.2406C20.3868 17.2406 20.1792 17.3204 20.0195 17.4482L19.9875 17.4642ZM43.016 31.5176C42.7445 31.5176 42.473 31.6134 42.2015 31.821C39.0395 34.1366 35.8456 36.4682 32.6676 38.7519C32.0767 39.1831 31.917 39.6941 32.1406 40.3808C33.3383 44.0379 34.536 47.7589 35.7178 51.4479C36.0372 52.4381 36.7399 52.5498 37.2509 52.5498H37.2988C38.0494 52.5339 38.8798 52.5339 39.9019 52.5339C40.4129 52.5339 40.924 52.5339 41.435 52.5339C41.946 52.5339 42.4571 52.5339 42.9681 52.5339H43.6069C43.9103 52.5339 45.5392 52.5339 46.0503 52.5339C47.1841 52.5339 48.0465 52.5339 48.861 52.5498C49.3401 52.5498 49.9789 52.4381 50.2663 51.5438C51.4481 47.8388 52.6777 44.0699 53.9074 40.3489C54.131 39.6782 53.9713 39.1831 53.3964 38.7679C50.2184 36.4842 47.0085 34.1526 43.8464 31.837C43.6708 31.6933 43.3833 31.5176 43.016 31.5176ZM64.0642 16.1546C63.8726 16.1546 63.6969 16.2185 63.5532 16.3303L46.721 28.5632C46.4974 28.7229 46.3537 28.9944 46.3537 29.2818C46.3537 29.5693 46.4815 29.8248 46.721 30.0005L75.2591 50.6974C75.4028 50.8091 75.5944 50.873 75.7701 50.873C76.1853 50.873 76.5367 50.5856 76.6325 50.1863C79.4591 37.666 74.6203 24.0757 64.6072 16.3303C64.4475 16.2185 64.2559 16.1546 64.0642 16.1546ZM43 8.61687C36.2288 8.61687 29.5854 10.5971 24.2994 14.2063C23.98 14.4299 23.8363 14.8291 23.964 15.2124L24.5389 17.001C26.4872 22.9737 28.4356 28.9624 30.3999 35.015C30.5116 35.3823 30.847 35.6218 31.2303 35.6218C31.4219 35.6218 31.5976 35.558 31.7413 35.4462L60.2954 14.7173C60.5349 14.5417 60.6786 14.2542 60.6627 13.9668C60.6467 13.6633 60.487 13.4078 60.2315 13.2481C55.0573 10.2298 49.1005 8.61687 43 8.61687Z" fill="white" fill-opacity="0.15"/>
</svg>
