<svg width="86" height="86" viewBox="0 0 86 86" fill="none" xmlns="http://www.w3.org/2000/svg">
<path d="M20.7232 80.6449C20.5469 80.5808 20.3706 80.5487 20.1783 80.5167H20.1623C13.544 79.7474 7.87107 74.9559 6.04421 68.5619C5.83589 67.8568 5.69166 67.1197 5.54744 66.3505L5.53141 66.2864C5.46731 65.9659 5.40321 65.6454 5.33911 65.3409V20.695C5.40321 20.3745 5.46731 20.054 5.53141 19.7335L5.59551 19.397C5.72371 18.74 5.85191 18.131 6.02819 17.5381C8.06337 10.4069 14.6176 5.42314 21.9731 5.40711C29.7133 5.39109 36.8604 5.37506 43.8474 5.37506C50.6901 5.37506 57.4527 5.39109 63.9589 5.40711C73.0771 5.43916 80.5448 12.8748 80.5929 22.0091C80.641 29.3005 80.6249 36.624 80.6089 43.691C80.6089 46.255 80.6089 48.803 80.5929 51.367C80.5929 52.3446 79.9679 53.0336 79.0705 53.0336C78.141 53.0336 77.5321 52.3446 77.5321 51.319V22.3296C77.5641 15.7273 72.9008 10.0063 66.4107 8.7243C65.5133 8.54803 64.5999 8.4679 63.7025 8.4679H63.6063C55.3053 8.4679 47.0203 8.45188 38.7194 8.45188H22.3257C14.5375 8.45188 8.41593 14.5735 8.41593 22.3937C8.41593 35.9669 8.41593 49.8447 8.41593 63.6102C8.41593 71.5586 14.4253 77.552 22.4058 77.568H51.1067C51.1228 77.568 51.1388 77.568 51.1548 77.568C51.7157 77.568 52.2285 77.8405 52.549 78.3052C52.8214 78.7379 52.8535 79.2667 52.6291 79.7314V79.7474C52.4849 80.0679 52.2445 80.3404 51.5554 80.6449H20.7232Z" fill="white" fill-opacity="0.15"/>
<path d="M69.5515 80.5648C69.1188 80.4686 68.7983 80.4045 68.4938 80.3244C66.8913 79.9077 65.5452 79.1706 64.5357 78.177L63.0133 76.6707C59.616 73.3054 56.0904 69.844 52.7412 66.3505C50.065 63.5622 48.3663 60.0046 47.5491 55.4695C47.2766 53.9631 46.9722 52.4568 46.6677 50.9825L46.6517 50.8703C46.4754 49.9729 46.2671 48.9473 46.0587 47.9537C45.9626 47.473 46.0908 46.9762 46.3953 46.5916C46.6517 46.2711 47.0523 46.0788 47.4529 46.0788C47.533 46.0788 47.6292 46.0948 47.7093 46.1108C51.4111 46.7999 54.7443 47.4249 58.0134 48.2422C61.2505 49.0274 64.1671 50.694 66.699 53.1779L67.0356 53.4984C70.5931 57.0079 74.2789 60.6296 77.8044 64.2833C80.5287 67.1197 81.2819 70.4209 80.0319 74.1067C78.814 77.6963 76.2179 79.8597 72.3238 80.5648C72.1796 80.5968 72.0514 80.6289 71.9232 80.6609H69.888L69.5515 80.5648ZM49.9849 51.8478C50.049 52.1683 50.1131 52.4888 50.1772 52.7933L50.2092 52.9536C50.3214 53.5144 50.4176 54.0433 50.5137 54.5561C51.2028 58.7546 52.7732 62.0398 55.3052 64.6038C59.2153 68.562 62.837 72.1997 66.3946 75.7092C67.6125 76.9271 69.231 77.6001 70.9617 77.6001C74.5513 77.5681 77.4999 74.6355 77.548 71.0619C77.564 69.3472 76.875 67.6806 75.6731 66.4627C71.4264 62.168 67.7086 58.4502 64.2793 55.1009C60.7537 51.6555 56.3148 50.7581 51.6996 50.053L49.5682 49.7325L49.9849 51.8478Z" fill="white" fill-opacity="0.15"/>
<path d="M22.486 36.8964C21.9892 36.8964 20.8034 36.7682 20.6431 35.5503C20.579 35.1176 20.7072 34.701 20.9957 34.3805C21.3002 34.044 21.7489 33.8356 22.2296 33.8356H63.6384H63.6865C64.2153 33.8356 64.7281 34.092 65.0486 34.5087C65.3211 34.8933 65.3852 35.4061 65.2249 35.8548C65.0166 36.4477 64.5038 36.8483 63.8948 36.8964H22.486Z" fill="white" fill-opacity="0.15"/>
<path d="M35.8668 24.6692C34.9213 24.6692 34.2483 24.0282 34.2483 23.1469C34.2483 22.2655 34.9213 21.6245 35.8668 21.6085H63.8146C64.5197 21.6085 65.1286 22.1052 65.2728 22.7943V22.8264C65.4331 23.4674 65.1286 24.1404 64.5357 24.4449C64.2793 24.5731 63.9748 24.6532 63.6703 24.6532C58.5904 24.6532 53.222 24.6692 47.2286 24.6692H35.8668Z" fill="white" fill-opacity="0.15"/>
<path d="M22.3256 49.1396C21.3321 49.1396 20.627 48.4986 20.627 47.6012C20.627 46.7037 21.316 46.0627 22.3096 46.0627H32.9983C33.9919 46.0627 34.697 46.6877 34.697 47.6012C34.697 48.4986 33.9919 49.1235 32.9983 49.1396H27.5818H24.3608H22.3256Z" fill="white" fill-opacity="0.15"/>
<path d="M22.8705 25.1179C21.6366 25.1179 20.595 24.1083 20.5789 22.8744C20.5629 22.2654 20.7873 21.6725 21.2199 21.2398C21.6366 20.7911 22.2135 20.5508 22.8224 20.5347H22.8705H22.9667C24.2326 20.5508 25.2422 21.5764 25.2422 22.8423C25.2422 23.4513 25.0019 24.0282 24.5692 24.4609C24.1846 24.8455 23.6718 25.0859 23.1429 25.1339L22.8705 25.1179Z" fill="white" fill-opacity="0.15"/>
</svg>
