<svg width="1440" height="296" viewBox="0 0 1440 296" fill="none" xmlns="http://www.w3.org/2000/svg">
<path d="M529.864 2.20347C698.711 1.70598 867.558 1.11047 1036.4 0.416992C1105.69 50.3475 1152.93 122.53 1239.2 143.334C1312.56 161.063 1374.59 176.621 1442 213.436C960.303 212.893 478.637 212.893 -3 213.436C43.6516 194.101 89.7152 174.156 140.166 168.209C181.277 163.279 222.343 168.525 263.5 166.083C376.816 159.231 440.902 59.4155 529.864 2.20347Z" stroke="#151425" stroke-width="0.682186" stroke-miterlimit="10"/>
<path d="M114.715 171.83C321.357 191.797 524.471 246.296 733.057 244.441C941.644 242.587 1144.35 186.076 1351.4 169.025" stroke="#151425" stroke-width="0.682186" stroke-miterlimit="10"/>
<path d="M203.01 165.7C377.133 214.161 558.855 302.037 743.471 292.607C929.716 283.11 1104.9 196.839 1283.93 152.63" stroke="#151425" stroke-width="0.682186" stroke-miterlimit="10"/>
<path d="M271.736 165.702C424.355 221.715 584.797 300.342 751.684 288.628C919.047 276.847 1074.51 194.059 1231.56 142.048" stroke="#151425" stroke-width="0.682186" stroke-miterlimit="10"/>
<path d="M326.572 153.943C464.153 197.835 611.276 252.989 758.218 240.349C906.766 227.572 1048.26 169.93 1189.84 127.281" stroke="#151425" stroke-width="0.682186" stroke-miterlimit="10"/>
<path d="M371.482 129.654C499.475 160.431 631.017 192.203 763.645 182.728C896.884 173.207 1026.41 135.737 1155.81 104.982" stroke="#151425" stroke-width="0.682186" stroke-miterlimit="10"/>
<path d="M408.883 101.048C528.033 120.586 647.229 135.872 768.188 130.309C889.147 124.747 1008.48 101.161 1127.49 80.6729" stroke="#151425" stroke-width="0.682186" stroke-miterlimit="10"/>
<path d="M440.543 73.1447C664.416 95.7582 880.714 83.5243 1103.59 57.7676" stroke="#151425" stroke-width="0.682186" stroke-miterlimit="10"/>
<path d="M467.66 48.6111C673.262 59.7595 877.913 52.5006 1083.15 37.9375" stroke="#151425" stroke-width="0.682186" stroke-miterlimit="10"/>
<path d="M491.088 28.5028C682.466 32.822 874.115 29.1134 1065.47 21.7188" stroke="#151425" stroke-width="0.682186" stroke-miterlimit="10"/>
<path d="M511.705 13.1503C691.098 13.9418 870.581 12.3588 1049.91 9.39648" stroke="#151425" stroke-width="0.682186" stroke-miterlimit="10"/>
<path d="M990.014 0.575195C1040.1 52.1565 1076.46 151.09 1149.14 174.382C1171.94 181.709 1194.37 177.774 1217.6 179.583C1253.78 182.41 1278.15 193.151 1308.28 213.255" stroke="#151425" stroke-width="0.682186" stroke-miterlimit="10"/>
<path d="M943.744 0.756836C969.252 41.6194 985.873 82.6628 1005.93 126.397C1014.8 145.687 1034.97 198.76 1059.46 209.049C1103.21 227.502 1127.59 182.117 1175.15 213.301" stroke="#151425" stroke-width="0.682186" stroke-miterlimit="10"/>
<path d="M897.547 0.938477C913.376 46.3915 925.067 92.2516 936.374 139.107C940.693 156.971 951.39 233.45 970 242.292C999.059 256.109 1015.23 182.072 1042.36 213.392" stroke="#151425" stroke-width="0.682186" stroke-miterlimit="10"/>
<path d="M851.383 1.09766C858.664 56.6815 863.73 112.356 868.727 168.188C871.758 202.109 871.102 241.908 883.72 274.11C892.11 261.311 894.145 211.109 910.2 213.461" stroke="#151425" stroke-width="0.682186" stroke-miterlimit="10"/>
<path d="M805.27 1.23438C799.685 97.5225 804.479 197.858 790.481 293.31C785.529 273.093 792.335 227.731 778.383 213.439" stroke="#151425" stroke-width="0.682186" stroke-miterlimit="10"/>
<path d="M759.239 1.32227C742.822 67.2857 734.93 132.978 723.691 200.004C721.904 210.723 716.319 288.626 703.135 293.805C673.851 305.338 680.092 211.718 647.031 213.437" stroke="#151425" stroke-width="0.682186" stroke-miterlimit="10"/>
<path d="M713.263 1.36621C687.461 58.7366 672.921 117.871 655.938 178.136C652.297 191.025 636.83 267.888 614.691 279.308C572.879 300.836 562.68 189.239 516.119 213.458" stroke="#151425" stroke-width="0.682186" stroke-miterlimit="10"/>
<path d="M667.331 1.64062C629.453 56.6366 609.621 117.761 581.92 178.026C574.412 194.353 550.555 254.663 526.494 261.582C473.624 276.779 443.367 174.272 385.635 213.348" stroke="#151425" stroke-width="0.682186" stroke-miterlimit="10"/>
<path d="M621.446 1.84277C578.48 47.0697 552.158 101.478 517.989 153.195C499.175 181.665 474.866 223.296 438.526 230.578C406.731 236.842 377.854 214.884 348.66 205.839C313.654 194.984 288.553 197.788 255.605 213.256" stroke="#151425" stroke-width="0.682186" stroke-miterlimit="10"/>
<path d="M575.647 2.06836C506.925 58.0141 448.13 188.381 350.892 198.24C314.213 201.949 277.512 187.657 241.036 185.599C199.02 183.225 163.743 195.052 126.092 213.255" stroke="#151425" stroke-width="0.682186" stroke-miterlimit="10"/>
</svg>
