<svg width="86" height="86" viewBox="0 0 86 86" fill="none" xmlns="http://www.w3.org/2000/svg">
<path d="M22.0354 82.4711C21.0517 81.9103 20.7346 81.3369 20.9514 80.511C21.1306 79.814 21.7254 79.3966 22.5944 79.3912C24.1298 79.3804 25.6653 79.3912 27.224 79.3912C27.2444 78.7864 27.2959 78.183 27.3781 77.5834C27.7848 75.4334 29.4385 73.9356 31.6369 73.7904C32.866 73.708 34.104 73.7779 35.3367 73.7367C35.4593 73.7237 35.5779 73.685 35.6847 73.6233C35.7915 73.5616 35.8841 73.4781 35.9566 73.3784C36.1107 73.1275 36.1358 72.7943 36.2021 72.4951C36.6966 70.3988 37.1893 68.3044 37.7089 66.097H36.727C29.1447 66.097 21.5636 66.097 13.9836 66.097C10.8984 66.097 8.54232 64.5472 7.66799 61.8776C7.42427 61.0948 7.30339 60.2788 7.30966 59.4589C7.28816 46.4568 7.32399 33.4529 7.27741 20.4507C7.26128 16.3962 10.3501 13.7553 13.9729 13.775C27.4641 13.852 40.9554 13.8001 54.4466 13.8216C55.0916 13.8216 55.4607 13.6263 55.8101 13.0906C57.3115 10.7901 58.8022 8.47702 60.4147 6.25535C61.9537 4.12148 64.1557 3.22565 66.7536 3.61981C69.4769 4.02831 71.3223 5.61752 72.202 8.24231C72.7395 9.83869 72.6177 11.4315 71.9673 12.9831C71.8706 13.2124 71.7631 13.4381 71.609 13.7714L72.7342 13.8216C74.2378 13.8727 75.6707 14.4724 76.7626 15.5075C77.8544 16.5426 78.5297 17.9415 78.661 19.4402C78.695 19.7986 78.7147 20.1569 78.7147 20.5152C78.7147 33.4654 78.7147 46.4168 78.7147 59.3693C78.7147 62.7036 76.9231 65.1636 73.9292 65.8766C73.2263 66.0265 72.5085 66.095 71.79 66.0809C64.3115 66.0928 56.8337 66.0928 49.3565 66.0809H48.3191C48.4678 66.7617 48.5932 67.3763 48.7366 67.9837C49.1325 69.6571 49.5697 71.3215 49.9209 73.0003C50.0499 73.6113 50.3097 73.7851 50.9009 73.7528C51.7967 73.7062 52.6926 73.7385 53.5992 73.7421C56.7955 73.7421 58.6911 75.6179 58.7269 78.7946V79.3787H63.181C64.256 79.3787 64.858 79.7477 65.0551 80.5002C65.2719 81.3244 64.9547 81.8995 63.9801 82.4621L22.0354 82.4711ZM53.2355 16.8961H13.9854C11.5935 16.8961 10.3788 18.1036 10.3788 20.4937C10.3788 29.8737 10.3788 39.2501 10.3788 48.6229V49.5187C11.8641 49.5187 13.2454 49.4972 14.6304 49.5277C15.6839 49.551 16.3594 50.2193 16.3271 51.1241C16.2949 52.0289 15.6463 52.5753 14.6035 52.5986C14.0392 52.6094 13.473 52.5986 12.9086 52.5986H10.4343C10.4092 52.8996 10.3788 53.0985 10.3788 53.2992C10.3788 55.3811 10.3644 57.4612 10.3788 59.5431C10.3931 61.7092 11.6706 62.9885 13.851 62.9903C33.2775 62.9974 52.7045 62.9974 72.1322 62.9903C74.3502 62.9903 75.6187 61.7074 75.6313 59.4911C75.6438 57.5382 75.6313 55.5853 75.6313 53.6306C75.6313 52.6004 75.6313 52.5986 74.5903 52.5986H27.9479C27.6144 52.6082 27.2807 52.5998 26.9481 52.5735C26.5876 52.5393 26.2514 52.3765 26.0009 52.1149C25.7505 51.8533 25.6025 51.5103 25.584 51.1486C25.5655 50.787 25.6778 50.4307 25.9003 50.1449C26.1228 49.8592 26.4406 49.663 26.7958 49.5922C27.1754 49.5308 27.56 49.5062 27.9443 49.5187C43.49 49.5187 59.0369 49.5187 74.585 49.5187H75.6295V48.648C75.6295 39.2692 75.6295 29.8928 75.6295 20.5188C75.6322 20.2363 75.6178 19.9539 75.5865 19.6731C75.5148 18.9234 75.1692 18.2264 74.6159 17.7154C74.0626 17.2044 73.3403 16.9152 72.5872 16.9032C71.7416 16.8692 70.8887 16.9319 70.0449 16.8781C69.3676 16.8369 68.9215 17.0573 68.4861 17.5948C64.1861 22.8766 59.87 28.1418 55.5377 33.3901C55.1489 33.8631 54.9465 34.2681 55.1543 34.9023C55.3096 35.472 55.3938 36.0588 55.4052 36.6492C55.665 40.7216 52.8717 44.1455 48.8441 44.5576C47.3982 44.7063 45.9237 44.5737 44.4617 44.5576C42.4998 44.5289 40.7135 44.9428 39.2013 46.3206C38.2697 47.1681 37.0083 46.7416 36.6715 45.5251C36.0086 43.1404 35.5965 40.7109 35.6377 38.2276C35.7452 31.8636 39.3859 28.0026 45.6245 27.5654C45.9335 27.5143 46.2099 27.343 46.3931 27.0889C47.3785 25.6788 48.3227 24.2401 49.2777 22.8104C50.5659 20.8879 51.8469 18.9708 53.2372 16.8889L53.2355 16.8961ZM53.6637 21.8124L58.27 25.2166L59.732 23.4356C62.6345 19.9013 65.537 16.3687 68.4395 12.8379C69.3354 11.7504 69.6937 10.5464 69.2709 9.18294C68.823 7.7496 67.8035 6.89319 66.3433 6.66385C64.8383 6.42735 63.602 6.98815 62.7438 8.24231C61.0543 10.7256 59.397 13.2285 57.7272 15.7243L53.6637 21.8124ZM39.1225 42.3736C40.4447 42.0887 41.6989 41.6856 42.9799 41.5763C44.5064 41.4455 46.0527 41.587 47.5917 41.5763C48.7903 41.5763 49.9316 41.3738 50.8758 40.5138C52.5994 38.9461 52.5743 36.6814 51.9723 34.9758C51.8682 34.7733 51.7108 34.6029 51.5172 34.4831C49.9358 33.2982 48.3484 32.1216 46.755 30.9535C46.5791 30.8113 46.3713 30.7142 46.1494 30.6704C43.5067 30.3389 40.4752 32.1037 39.4665 34.5583C38.4004 37.1652 38.6584 39.8258 39.1225 42.3736ZM55.6058 79.3589C55.7653 77.415 55.2475 76.8345 53.4128 76.8345H32.4575C30.7429 76.8345 30.1283 77.6174 30.4687 79.3589H55.6058ZM39.0902 73.6829H46.936C46.325 71.1155 45.7319 68.6304 45.1353 66.1239H40.8837L39.0902 73.6829ZM52.9595 31.6988L56.3153 27.6102L51.9454 24.3673L49.0053 28.7605L52.9595 31.6988Z" fill="white" fill-opacity="0.15"/>
<path d="M20.9289 52.5989C20.7294 52.5971 20.5322 52.5559 20.3486 52.4778C20.1649 52.3997 19.9985 52.2862 19.8587 52.1438C19.719 52.0014 19.6087 51.8329 19.534 51.6478C19.4594 51.4627 19.422 51.2648 19.4239 51.0653C19.4284 50.8636 19.4725 50.6648 19.5538 50.4803C19.6351 50.2957 19.752 50.1289 19.8977 49.9895C20.0434 49.8501 20.2152 49.7407 20.4032 49.6677C20.5912 49.5947 20.7918 49.5594 20.9934 49.5639C21.195 49.5683 21.3938 49.6125 21.5784 49.6938C21.763 49.7751 21.9297 49.8919 22.0692 50.0376C22.2086 50.1834 22.3179 50.3552 22.391 50.5432C22.464 50.7312 22.4993 50.9317 22.4948 51.1334C22.4886 51.3325 22.4431 51.5285 22.3609 51.71C22.2788 51.8916 22.1616 52.0551 22.0161 52.1913C21.8707 52.3274 21.6997 52.4335 21.5132 52.5035C21.3266 52.5734 21.128 52.6059 20.9289 52.5989Z" fill="white" fill-opacity="0.15"/>
</svg>
