<svg width="82" height="86" viewBox="0 0 82 86" fill="none" xmlns="http://www.w3.org/2000/svg">
<path d="M29.7902 59.5682C30.6445 60.8299 31.4124 61.9708 32.182 63.1063C34.9379 67.1744 37.7262 71.2172 40.4442 75.3158C43.0433 79.2307 41.3977 84.1206 37.0197 85.6365C34.0817 86.6548 30.8788 85.4887 28.9485 82.6571C25.155 77.0876 21.3699 71.5122 17.5933 65.9307C17.413 65.6567 17.2112 65.39 16.9985 65.0872C15.2772 66.156 13.4748 66.7905 11.4867 66.8499C5.12241 67.0302 -0.156852 61.823 0.00356202 55.4497C0.0972873 51.7656 1.73027 48.8781 4.7403 46.7819C6.95366 45.2426 9.21748 43.7773 11.42 42.2254C11.9425 41.8687 12.372 41.3923 12.6727 40.8357C16.9805 32.1674 21.2684 23.4888 25.5365 14.7999C26.5711 12.7037 28.3176 11.6151 30.5833 11.3483C33.4419 11.0131 36.0193 11.9575 38.4724 13.2823C42.946 15.6957 46.5688 19.1221 49.7609 23.0153C54.4381 28.7199 58.0862 34.9959 60.0022 42.1749C60.8097 45.2066 61.2314 48.2905 60.5862 51.4249C60.2563 53.0218 59.6183 54.4764 58.4575 55.6534C57.3471 56.7903 55.8502 57.4689 54.2633 57.5549C46.3327 58.1605 38.4165 58.8076 30.4931 59.4438C30.3093 59.4582 30.1218 59.5087 29.7902 59.5682ZM27.3678 21.1895C27.5985 22.498 27.7481 24.1617 28.1933 25.7442C30.996 35.6664 36.5312 43.8187 44.4582 50.3525C46.6571 52.1639 49.1012 53.5968 51.9436 54.2277C53.445 54.5629 54.6472 54.0727 55.707 53.0705C56.5722 52.2486 57.0102 51.1852 57.2265 50.0316C57.6512 47.6659 57.5004 45.2326 56.7867 42.9374C53.7857 32.8294 48.0576 24.5528 39.7665 18.0641C37.8343 16.5501 35.6985 15.3767 33.2652 14.8089C30.2444 14.1006 28.1085 15.5101 27.5985 18.5724C27.4741 19.3168 27.4615 20.0792 27.3678 21.1895ZM45.0314 54.9811C34.4512 47.2776 27.5949 37.1967 24.392 24.5924C24.3227 24.6935 24.2589 24.7982 24.2009 24.906C21.382 30.6509 18.5582 36.3928 15.7296 42.1317C15.4989 42.5985 15.6196 42.8959 15.872 43.2672C18.7036 47.4218 21.5406 51.5727 24.3271 55.7543C24.7669 56.4158 25.2103 56.587 25.9709 56.5185C29.3558 56.2085 32.7461 55.9652 36.1329 55.6948C39.0798 55.4533 42.0069 55.2154 45.0404 54.972L45.0314 54.9811ZM13.1287 45.1219C10.9045 46.6359 8.7038 48.0832 6.55893 49.6063C3.0208 52.108 2.30884 56.5167 4.80518 60.1504C7.27268 63.7408 11.6255 64.6564 15.2267 62.3006C17.222 60.9939 19.1776 59.6259 21.1512 58.2831C21.3531 58.1443 21.546 57.9911 21.7659 57.8253L13.1287 45.1219ZM19.7724 63.2523L22.6202 67.4429C25.6771 71.949 28.7352 76.455 31.7945 80.961C32.7534 82.3723 34.1755 82.9689 35.6282 82.6102C38.1516 81.9902 39.1123 79.2595 37.5856 77.0011C33.8763 71.511 30.1597 66.0274 26.4359 60.5505C25.9366 59.8151 25.1922 59.606 24.4533 60.0909C22.9014 61.0912 21.3856 62.1511 19.776 63.2433L19.7724 63.2523Z" fill="white" fill-opacity="0.15"/>
<path d="M63.8938 23.372C62.8358 23.372 62.2914 22.9917 62.0139 22.2618C61.7363 21.5318 62.0139 20.7892 62.7492 20.2989C64.3804 19.2175 66.0278 18.136 67.668 17.0654C69.754 15.6956 71.8388 14.3263 73.9224 12.9577C74.9624 12.2764 75.9357 12.3791 76.5179 13.2191C77.1 14.059 76.8351 15.0719 75.7681 15.7731C72.1404 18.1619 68.5067 20.5429 64.8671 22.916C64.5567 23.0963 64.231 23.2489 63.8938 23.372Z" fill="white" fill-opacity="0.15"/>
<path d="M66.6292 31.0809L73.6171 32.3335C75.6881 32.7048 77.7627 33.0851 79.83 33.4438C80.9115 33.6331 81.5946 34.3811 81.4666 35.3075C81.326 36.3241 80.4104 36.9297 79.2713 36.7332C75.2111 36.0122 71.152 35.2805 67.0942 34.5379C66.7085 34.4676 66.3156 34.4135 65.9407 34.3072C65.0647 34.0602 64.5456 33.2906 64.679 32.4795C64.8232 31.5945 65.5459 31.034 66.6292 31.0809Z" fill="white" fill-opacity="0.15"/>
<path d="M58.1723 1.76363C57.8274 5.10891 57.4856 8.45418 57.1467 11.7995C57.0638 12.6087 56.9881 13.4216 56.889 14.2237C56.761 15.2493 56.0202 15.8459 55.0433 15.7593C54.1421 15.671 53.5167 14.9194 53.6158 13.9155C54.0219 9.76153 54.4425 5.60757 54.8775 1.45362C54.9802 0.491131 55.7787 -0.0910476 56.7141 0.0116898C57.5937 0.10181 58.1957 0.822774 58.1723 1.76363Z" fill="white" fill-opacity="0.15"/>
<path d="M39.4257 27.5312C43.373 27.5312 46.7994 29.9411 48.0611 33.6036C48.6651 35.3691 48.7062 37.2786 48.1786 39.0685C47.6511 40.8584 46.581 42.4404 45.1159 43.5961C44.818 43.8507 44.4792 44.053 44.1138 44.1945C43.74 44.3108 43.3369 44.2899 42.9771 44.1357C42.6173 43.9815 42.3242 43.7041 42.1505 43.3532C41.9768 43.0024 41.9339 42.6011 42.0295 42.2214C42.125 41.8418 42.3528 41.5086 42.6719 41.2818C44.0093 40.2689 44.9033 39.0036 45.1123 37.3165C45.3917 35.0527 44.6059 33.2088 42.7584 31.9093C40.9109 30.6098 38.903 30.5233 36.8609 31.5056C36.6104 31.6281 36.3815 31.7976 36.1291 31.9201C35.7547 32.1225 35.3166 32.1725 34.9062 32.0597C34.4958 31.9469 34.1449 31.6799 33.9266 31.3145C33.476 30.5665 33.6887 29.6275 34.4295 29.0795C35.6984 28.1441 37.681 27.5312 39.4257 27.5312Z" fill="white" fill-opacity="0.15"/>
</svg>
