<svg width="86" height="86" viewBox="0 0 86 86" fill="none" xmlns="http://www.w3.org/2000/svg">
<path d="M3.70874 48.8982C4.0832 47.5293 4.45766 46.1605 4.82137 44.8275C6.04687 45.2002 7.23474 45.7108 8.47099 45.8936C9.8027 46.081 11.1524 46.1039 12.4897 45.9616C13.5808 45.8523 14.4247 45.1912 14.6397 43.9908C14.8547 42.7904 14.2814 41.9268 13.278 41.4126C12.0579 40.7855 10.7697 40.2874 9.51554 39.7428C7.70954 38.9652 6.0182 38.0102 4.97008 36.2741C3.0942 33.1781 4.12083 29.2973 7.25624 27.3283C8.97804 26.2533 10.8969 25.8806 12.8803 25.8412C15.0607 25.8 17.2 26.0849 19.2873 27.0542C18.886 28.5054 18.49 29.9423 18.0833 31.4151C16.2993 30.5824 14.3343 30.2127 12.3697 30.3401C12.1894 30.3495 12.0099 30.3698 11.8322 30.401C10.544 30.6465 9.69649 31.3793 9.55316 32.3611C9.4152 33.3161 9.89537 34.1187 11.137 34.7225C12.9287 35.5879 14.7956 36.2884 16.5442 37.2201C21.6039 39.9076 20.9661 45.9419 17.8575 48.4628C16.2737 49.7492 14.4265 50.3656 12.4431 50.5555C9.42595 50.8439 6.48583 50.5035 3.70337 49.2099L3.70874 48.8982Z" fill="white" fill-opacity="0.15"/>
<path d="M66.6304 48.9394C60.3416 53.974 51.8868 52.7646 47.1299 47.189C42.511 41.7745 42.8299 33.6099 47.9003 28.4571C52.9331 23.3455 61.1909 22.9782 66.6841 27.5989C72.2276 32.2572 73.5444 40.8106 68.397 47.1908L70.323 48.9824L72.2276 50.758C72.7059 51.2059 73.1234 51.7022 73.8902 51.7219C74.1482 51.7219 74.4277 51.9942 74.6499 52.1985C76.8763 54.2625 79.0968 56.3342 81.3113 58.4137C82.2071 59.2648 82.3576 60.1355 81.7861 60.9991C81.5495 61.3532 81.1936 61.6105 80.7832 61.7243C80.3728 61.8381 79.9353 61.8007 79.5501 61.619C79.4554 61.5793 79.3672 61.5256 79.2885 61.4596C76.8029 59.1519 74.3184 56.8425 71.8352 54.5312C70.8892 52.0963 68.5134 50.9694 66.9009 49.1455C66.8168 49.0692 66.7263 49.0003 66.6304 48.9394ZM57.7742 28.0145C55.7524 28.0149 53.7762 28.6147 52.0953 29.7381C50.4144 30.8615 49.1044 32.4581 48.3307 34.3259C47.5571 36.1938 47.3547 38.2491 47.7491 40.232C48.1435 42.2149 49.1169 44.0364 50.5464 45.4661C51.9759 46.8958 53.7971 47.8696 55.78 48.2643C57.7628 48.659 59.8182 48.457 61.6862 47.6837C63.5542 46.9104 65.151 45.6006 66.2747 43.9199C67.3984 42.2393 67.9985 40.2631 67.9992 38.2414C67.9959 35.5304 66.9176 32.9313 65.0008 31.0142C63.084 29.0971 60.4852 28.0183 57.7742 28.0145Z" fill="white" fill-opacity="0.15"/>
<path d="M23.9905 26.2516H38.7681V30.6734H29.4712V35.6901H38.2504V40.0994H29.4891V45.8076H39.277V50.2581H23.9905V26.2516Z" fill="white" fill-opacity="0.15"/>
</svg>
