<svg width="86" height="86" viewBox="0 0 86 86" fill="none" xmlns="http://www.w3.org/2000/svg">
<path d="M3.57056 55.1664C3.69986 54.7008 3.85593 54.243 4.03799 53.7953C5.10946 51.5092 6.95449 50.4443 9.44636 50.4443H36.0323V46.0301H35.1534C29.7121 46.0301 24.2708 46.0301 18.8295 46.0301C17.0553 46.0301 15.4868 45.5577 14.2589 44.2196C13.3259 43.2449 12.8047 41.9479 12.804 40.5987C12.804 30.6663 12.8067 20.7361 12.8122 10.8082C12.8122 7.96736 15.1658 5.57589 17.9441 5.44257C19.0452 5.3899 19.7907 5.95609 19.8483 6.88766C19.9027 7.77479 19.2558 8.40516 18.1794 8.51544C16.8331 8.65369 15.8867 9.61653 15.8851 10.953C15.8719 18.3178 15.8719 25.6837 15.8851 33.0506C15.8851 33.1461 15.9081 33.2432 15.9361 33.4736C17.0355 32.5865 18.0642 31.7619 19.0896 30.9307L33.0138 19.6284C34.0556 18.7825 34.6169 18.7775 35.6571 19.6433C40.1141 23.3531 44.569 27.0656 49.0216 30.781C49.2372 30.962 49.4578 31.1348 49.7178 31.3455L55.7319 26.7946C56.6322 26.1132 57.5276 25.4253 58.4295 24.7471C59.417 23.9983 59.9108 23.9851 60.9214 24.7011C63.2849 26.3799 65.644 28.062 67.9987 29.7473C68.2011 29.8922 68.4101 30.0255 68.7097 30.2263C68.7278 29.879 68.7541 29.6371 68.7541 29.3935C68.7541 23.4145 68.7541 17.4345 68.7541 11.4533C68.7541 9.38776 67.8687 8.50556 65.8064 8.50556H32.3176C31.0338 8.50556 30.3524 7.97065 30.3425 6.97489C30.3315 6.5992 30.4621 6.2331 30.7085 5.94925C30.9548 5.6654 31.2989 5.48454 31.6724 5.44257C31.8513 5.4261 32.031 5.42115 32.2106 5.42776C43.5299 5.42776 54.8486 5.42776 66.1668 5.42776C68.927 5.42776 71.1045 7.1329 71.6953 9.74985C71.807 10.3554 71.8528 10.9713 71.8319 11.5867C71.8396 19.8753 71.8396 28.1651 71.8319 36.456V37.5307C73.2787 37.5307 74.6299 37.5077 75.9862 37.539C76.7515 37.5571 77.5382 37.5669 78.2739 37.7496C79.4463 38.0295 80.4906 38.6956 81.2387 39.6407C81.9868 40.5859 82.3953 41.7551 82.3985 42.9605C82.4227 50.0444 82.4227 57.1283 82.3985 64.2122C82.3821 67.2027 79.8688 69.6057 76.8881 69.6189C75.8742 69.6189 75.1879 69.0543 75.1385 68.1689C75.0859 67.2225 75.6948 66.6135 76.7663 66.5411C78.4204 66.4292 79.3306 65.468 79.3322 63.8007C79.3322 57.1019 79.3322 50.4032 79.3322 43.7044C79.3322 41.4693 78.4665 40.6102 76.2051 40.6102H46.64C45.0748 40.6102 43.5129 40.5987 41.9443 40.6102C40.1009 40.6266 39.1595 41.5878 39.1562 43.4362C39.1562 45.7684 39.1562 48.1006 39.1562 50.4608C39.5134 50.5595 39.831 50.6353 40.1437 50.7373C41.2352 51.1026 42.1859 51.7984 42.8642 52.7283C43.5425 53.6581 43.9147 54.7759 43.9293 55.9268C43.9556 59.1593 43.9293 62.3934 43.9391 65.6276V66.5361H62.1673C62.3994 66.5361 62.6298 66.5361 62.8602 66.5361C63.9416 66.5526 64.6279 67.1204 64.6542 68.0174C64.6822 68.9441 63.9679 69.6041 62.8701 69.6074C58.92 69.6172 54.9699 69.6074 51.0197 69.6074H43.9424C43.9424 71.4952 43.9605 73.3106 43.9424 75.1227C43.9194 76.9661 43.1195 78.4342 41.653 79.5271C40.764 80.2077 39.6751 80.5757 38.5555 80.5739C28.6999 80.5816 18.8444 80.5816 8.98881 80.5739C7.84922 80.5605 6.74244 80.1906 5.82382 79.5161C4.90519 78.8415 4.22084 77.8963 3.86682 76.813C3.76971 76.5267 3.66931 76.2419 3.57056 75.9572V55.1664ZM23.7425 77.5027H37.9794C39.9265 77.5027 40.8564 76.5793 40.8581 74.6388C40.8581 68.5853 40.8581 62.5317 40.8581 56.4781C40.8581 54.434 39.9594 53.5287 37.8955 53.5271C28.4294 53.5271 18.964 53.5271 9.49903 53.5271C7.60297 53.5271 6.65659 54.4784 6.65659 56.3646C6.65659 62.4708 6.65659 68.5765 6.65659 74.6816C6.65659 76.5645 7.60572 77.5049 9.50397 77.5027H23.7425ZM35.9978 42.9391C36.0347 42.8471 36.0666 42.7531 36.0932 42.6577C36.7516 39.2013 38.7596 37.534 42.2916 37.5307H52.027L52.0896 37.3447C46.1732 32.4071 40.2557 27.4755 34.3371 22.5499C34.1725 22.6783 34.0424 22.7688 33.9223 22.8659C28.5403 27.2275 23.2043 31.6483 17.7433 35.9112C16.2899 37.0468 15.6974 38.1957 15.8456 40.0094C16.0101 42.0437 16.7804 42.9391 18.8526 42.9391H35.9912H35.9978ZM68.7673 37.5307C68.7673 36.5169 68.736 35.6231 68.7788 34.7327C68.8035 34.239 68.6142 33.9443 68.2192 33.6662C65.548 31.7882 62.9145 29.8922 60.2548 28.006C60.0754 27.8776 59.8795 27.7706 59.687 27.6521L52.1422 33.3749C53.7634 34.7245 55.3073 36.0297 56.8807 37.2987C57.0898 37.4632 57.4469 37.5126 57.7366 37.5143C60.0935 37.5307 62.452 37.5241 64.8139 37.5241L68.7673 37.5307Z" fill="white" fill-opacity="0.15"/>
<path d="M53.2846 56.557C52.4123 56.557 51.647 56.5652 50.8816 56.557C48.8918 56.5323 47.4812 55.1432 47.4582 53.1714C47.4434 51.7609 47.4302 50.3487 47.4681 48.9382C47.5125 47.2149 48.9181 45.709 50.6199 45.7896C55.0539 46.0003 59.3283 44.9272 63.6586 44.3182C65.3588 44.0779 67.0491 43.7685 68.7444 43.4952C69.9887 43.2994 70.7359 43.9149 70.7573 45.1691C70.7771 46.3212 70.7392 47.4733 70.782 48.6255C70.7902 48.8444 71.0124 49.1884 71.205 49.246C72.1678 49.5373 72.6024 49.9883 72.5859 50.8194C72.5694 51.6506 72.1053 52.1082 71.126 52.3238C71.0289 52.3452 70.9334 52.3731 70.7623 52.4159C70.7623 53.8972 70.7623 55.3785 70.7623 56.8598C70.7623 58.4316 70.0759 58.9995 68.5485 58.7476C66.4764 58.4069 64.4026 58.0893 62.2448 57.747C61.8975 58.8036 61.5552 59.8405 61.2161 60.8741C61.0417 61.409 60.8787 61.9489 60.7026 62.4838C60.4574 63.2195 59.9636 63.6359 59.1687 63.6458C57.7318 63.6458 56.2949 63.6688 54.8581 63.6458C53.8557 63.626 53.3027 63.0533 53.2912 62.0378C53.2698 60.2619 53.2846 58.4711 53.2846 56.557ZM67.6269 55.5085V46.8084L56.3624 48.6041C56.3624 50.2236 56.3493 51.7592 56.3822 53.2948C56.4078 53.4017 56.4598 53.5005 56.5334 53.5822C56.607 53.6638 56.6998 53.7257 56.8035 53.7623C60.3636 54.3564 63.9286 54.9127 67.6269 55.5085ZM53.2402 48.8542C52.4386 48.8542 51.6766 48.8312 50.9178 48.874C50.7829 48.8822 50.5574 49.1521 50.5541 49.3069C50.5234 50.5369 50.5234 51.7669 50.5541 52.9969C50.5541 53.1615 50.7664 53.4512 50.8915 53.4578C51.6717 53.5006 52.4535 53.4792 53.2418 53.4792L53.2402 48.8542ZM59.1423 57.2828L56.42 56.8516V60.5943C56.6907 60.5759 56.9624 60.5759 57.2331 60.5943C57.8717 60.6881 58.2025 60.4511 58.3556 59.8027C58.5498 58.9929 58.8477 58.2029 59.1423 57.2746V57.2828Z" fill="white" fill-opacity="0.15"/>
<path d="M49.6568 22.3785C48.6161 22.3743 47.5999 22.0618 46.7366 21.4805C45.8733 20.8992 45.2015 20.0752 44.8062 19.1124C44.4108 18.1497 44.3096 17.0914 44.5152 16.0711C44.7208 15.0509 45.2241 14.1144 45.9616 13.38C46.699 12.6455 47.6375 12.1461 48.6585 11.9446C49.6796 11.7431 50.7375 11.8486 51.6986 12.2479C52.6598 12.6471 53.4811 13.3222 54.0589 14.1878C54.6367 15.0535 54.945 16.0709 54.945 17.1117C54.945 17.8052 54.8081 18.4918 54.5421 19.1322C54.2761 19.7726 53.8862 20.3541 53.3949 20.8435C52.9035 21.3328 52.3204 21.7203 51.6789 21.9838C51.0374 22.2472 50.3503 22.3813 49.6568 22.3785ZM47.4612 17.1364C47.4645 17.5719 47.5971 17.9966 47.8421 18.3567C48.0871 18.7168 48.4335 18.996 48.8374 19.1589C49.2412 19.3219 49.6844 19.3612 50.1107 19.2719C50.537 19.1827 50.9271 18.9688 51.2317 18.6575C51.5363 18.3462 51.7416 17.9515 51.8216 17.5234C51.9015 17.0953 51.8525 16.6531 51.6808 16.2528C51.5091 15.8526 51.2225 15.5123 50.8571 15.2752C50.4918 15.0381 50.0643 14.9148 49.6288 14.921C49.0477 14.9275 48.4929 15.1646 48.0864 15.58C47.6799 15.9954 47.4551 16.5552 47.4612 17.1364Z" fill="white" fill-opacity="0.15"/>
<path d="M23.7228 6.9551C23.7198 6.75612 23.7564 6.55853 23.8304 6.37384C23.9045 6.18915 24.0146 6.02105 24.1543 5.87935C24.2941 5.73764 24.4606 5.62517 24.6442 5.54848C24.8278 5.47178 25.0249 5.43241 25.2239 5.43265C25.6246 5.42812 26.0112 5.58057 26.3009 5.8574C26.5907 6.13423 26.7606 6.51345 26.7743 6.91395C26.7774 7.32836 26.6158 7.72704 26.3251 8.02238C26.0344 8.31773 25.6383 8.48558 25.2239 8.48906C24.8221 8.48256 24.4391 8.31783 24.1581 8.03062C23.877 7.74341 23.7206 7.35693 23.7228 6.9551Z" fill="white" fill-opacity="0.15"/>
<path d="M71.3563 68.0995C71.3565 68.2989 71.3164 68.4962 71.2385 68.6796C71.1606 68.8631 71.0464 69.029 70.9029 69.1673C70.7593 69.3056 70.5894 69.4135 70.4031 69.4846C70.2169 69.5556 70.0183 69.5884 69.8191 69.5808C69.618 69.5789 69.4193 69.5368 69.2346 69.4572C69.0499 69.3776 68.8829 69.262 68.7434 69.1171C68.6039 68.9722 68.4946 68.801 68.422 68.6135C68.3494 68.4259 68.3148 68.2258 68.3204 68.0247C68.326 67.8237 68.3716 67.6258 68.4545 67.4425C68.5374 67.2593 68.6559 67.0944 68.8033 66.9575C68.9506 66.8206 69.1237 66.7144 69.3126 66.6451C69.5014 66.5759 69.7021 66.5449 69.903 66.5541C70.1007 66.5576 70.2957 66.6007 70.4764 66.6808C70.6572 66.7609 70.8201 66.8763 70.9556 67.0204C71.091 67.1644 71.1962 67.3341 71.2651 67.5194C71.3339 67.7048 71.3649 67.902 71.3563 68.0995Z" fill="white" fill-opacity="0.15"/>
<path d="M18.2452 65.4151C18.2452 63.7494 18.2354 62.0838 18.2452 60.4182C18.2584 58.7723 19.3809 58.1139 20.8375 58.8957C23.7277 60.4385 26.6151 61.9856 29.4998 63.5371C31.1374 64.421 31.1786 65.7179 29.6018 66.6808C26.7182 68.4419 23.8248 70.1881 20.9428 71.9476C20.3421 72.3163 19.7512 72.5467 19.0731 72.1747C18.367 71.7863 18.2337 71.1395 18.2387 70.407C18.2535 68.748 18.2452 67.0807 18.2452 65.4151ZM26.0879 65.2192L21.3872 62.6961V68.0798L26.0879 65.2192Z" fill="white" fill-opacity="0.15"/>
</svg>
