<svg width="86" height="86" viewBox="0 0 86 86" fill="none" xmlns="http://www.w3.org/2000/svg">
<path d="M18.922 60.0598C16.8501 60.0598 15.1959 59.876 13.7088 59.5084C10.8181 58.7732 8.32844 57.1691 6.50715 54.8967C4.66915 52.6075 3.66661 49.8338 3.6499 46.9097C3.54964 37.0347 3.54964 27.0092 3.6499 17.1342C3.68332 13.6587 5.08688 10.4004 7.57653 7.9442C10.0495 5.48796 13.3579 4.10111 16.8668 4.03427H42.5987C45.1385 4.03427 47.7284 4.03427 50.2181 4.01756C52.7244 4.01756 55.2976 4.00085 57.8374 4.00085C61.8309 4.00085 65.1059 4.01756 68.1469 4.06769C73.1596 4.13453 77.2032 6.30671 80.1774 10.5341C81.6478 12.5893 82.4332 15.0121 82.4165 17.5352C82.4165 18.2203 82.4165 18.9221 82.4165 19.6071C82.4165 20.9606 82.4165 22.3641 82.4165 23.7343C82.3997 24.8705 81.7815 25.6057 80.8291 25.6057H80.7957C79.8266 25.589 79.2083 24.8371 79.1916 23.6841C79.1916 23.2163 79.1749 22.7484 79.1749 22.2973C79.1582 21.0441 79.1415 19.7408 79.1916 18.4542C79.459 12.4556 74.9308 8.64598 70.6031 7.62672C69.5171 7.37609 68.3975 7.25912 67.278 7.25912H67.1945C56.5508 7.24241 45.74 7.24241 35.0629 7.24241C29.3317 7.24241 23.6005 7.24241 17.8693 7.24241C12.4222 7.24241 8.29502 10.2835 7.12538 15.1792C6.92488 16.0815 6.82462 17.0172 6.82462 17.9362C6.80791 27.2599 6.80791 36.7005 6.82462 46.0242C6.84133 52.1898 11.1523 56.5676 17.3179 56.6678C17.9362 56.6845 18.6045 56.6845 19.4066 56.6845C19.9078 56.6845 20.4258 56.6845 20.9271 56.6845C21.4283 56.6845 21.9463 56.6845 22.4476 56.6845C22.7149 56.6845 22.9656 56.6845 23.2329 56.6845C24.4527 56.6845 24.837 57.2861 25.0208 57.7372C25.2213 58.2218 25.1712 58.8066 24.8871 59.241C24.7367 59.475 24.4026 59.8426 23.801 59.876C23.2329 59.8927 22.6648 59.9094 22.08 59.9428C21.0607 60.0097 19.9747 60.0598 18.922 60.0598Z" fill="white" fill-opacity="0.15"/>
<path d="M74.0452 81.9986C72.0066 81.9986 70.1018 81.23 68.6815 79.8432C67.2446 78.4396 66.4258 76.5014 66.3924 74.4127C66.3757 73.4603 65.8744 73.0426 65.3899 72.7585C61.8141 70.6031 58.1882 68.4309 54.6292 66.2754C54.2783 66.0582 53.9776 65.9747 53.6601 65.9747C53.3426 65.9747 53.0251 66.0749 52.691 66.2921C48.4301 68.882 44.1192 71.4886 39.825 74.0451C39.424 74.2791 39.0062 74.4127 38.6219 74.4127C38.0371 74.4127 37.5693 74.112 37.2852 73.5773C36.8341 72.7084 37.1515 71.873 38.1374 71.2881C41.6128 69.1828 45.1218 67.0607 48.5972 64.9888C48.8145 64.8551 49.015 64.7215 49.2489 64.5711L50.4519 63.7858L40.4933 57.7705C39.7581 57.3361 39.0229 56.8849 38.2877 56.4338C37.4857 55.9492 36.667 55.1138 37.3353 53.9775C37.6361 53.4596 38.0705 53.2089 38.6052 53.2089C39.0062 53.2089 39.4741 53.3593 39.9419 53.6434C44.1192 56.1497 48.3633 58.7229 52.5573 61.2627C52.9583 61.5133 53.3092 61.6136 53.6601 61.6136C54.011 61.6136 54.3619 61.4966 54.7629 61.2627C58.2551 59.1072 61.8141 56.9685 65.3564 54.8631C65.9245 54.5289 66.4927 54.0444 66.4258 52.9416C66.2921 50.8195 67.0106 48.7977 68.4476 47.2438C69.8512 45.7233 71.756 44.8544 73.7945 44.8043C73.8614 44.8043 73.9115 44.8043 73.9783 44.8043C76.1004 44.8043 78.072 45.623 79.5424 47.0934C80.9794 48.5471 81.7815 50.4686 81.7647 52.5071C81.748 56.7345 78.2725 60.1766 74.0452 60.1766H73.995C73.8948 60.1766 73.7778 60.1766 73.6776 60.1599C71.9064 60.0764 70.2188 59.3746 68.9322 58.1548C68.7818 58.0211 68.6481 57.8875 68.4977 57.7538C68.4142 57.6702 68.3307 57.5867 68.2304 57.5032L67.8962 57.1857L67.4785 57.4029C67.4284 57.4196 67.3949 57.453 67.3448 57.4697C67.2279 57.5199 67.1276 57.57 67.0106 57.6535C64.8886 58.9234 62.7665 60.21 60.5943 61.5133L56.8181 63.7858L67.4785 70.2188L67.8461 69.7676C69.2329 68.0633 70.8871 67.0607 72.8755 66.7266C73.2598 66.6597 73.6608 66.6263 74.0619 66.6263C77.671 66.6263 80.9961 69.3833 81.6144 72.9089C82.3496 77.0862 79.6594 81.0964 75.6325 81.865C75.0978 81.9485 74.5798 81.9986 74.0452 81.9986ZM74.0452 69.8512C71.6056 69.8512 69.6173 71.8395 69.6005 74.2791C69.6005 76.7186 71.5889 78.7237 74.0284 78.7237C76.4847 78.7237 78.4731 76.7353 78.4731 74.2958C78.4731 73.1094 78.0219 71.9899 77.1697 71.1545C76.351 70.319 75.2315 69.8679 74.0452 69.8512ZM74.0452 48.0458C72.8588 48.0458 71.7393 48.5304 70.9038 49.3658C70.0684 50.218 69.6172 51.3375 69.6172 52.5239C69.634 54.9634 71.6223 56.9518 74.0786 56.9518H74.112C76.5515 56.9183 78.5232 54.8965 78.4898 52.4737C78.4731 50.0509 76.4847 48.0625 74.0452 48.0458Z" fill="white" fill-opacity="0.15"/>
<path d="M36.8842 45.3725C34.8791 45.3725 33.4087 43.6848 33.392 41.379C33.3586 39.2402 33.3753 37.0513 33.3753 34.946C33.3753 33.9602 33.3753 32.9743 33.3753 32.0052C33.3753 30.9692 33.3753 29.9333 33.3753 28.914C33.3753 26.8922 33.3753 24.7869 33.3753 22.7317C33.392 20.5261 34.6452 18.9053 36.5834 18.6045C36.7505 18.5878 36.9009 18.5711 37.068 18.5711C37.8867 18.5711 38.7055 18.9053 39.6412 19.6238C42.983 22.1803 46.3749 24.7535 49.7167 27.2932C49.8504 27.3935 49.9674 27.4937 50.1011 27.594C50.4018 27.8279 50.7026 28.0619 51.0368 28.2791C52.3401 29.1145 53.0586 30.2507 53.1087 31.5875C53.1588 33.0412 52.4236 34.5116 51.1704 35.4473C49.0651 37.0179 46.9765 38.6554 44.9379 40.2428C43.1835 41.6129 41.3789 43.0332 39.5743 44.3866C38.9227 44.8879 38.1708 45.2221 37.3687 45.3557C37.1849 45.3725 37.0178 45.3725 36.8842 45.3725ZM38.0705 41.4625L49.5497 32.5232C49.9841 32.1723 49.9841 31.5206 49.5329 31.1697L38.0538 22.481C37.5024 22.0633 36.7004 22.4643 36.7004 23.1494V40.7775C36.7004 41.4959 37.5191 41.897 38.0705 41.4625Z" fill="white" fill-opacity="0.15"/>
</svg>
