<svg width="86" height="86" viewBox="0 0 86 86" fill="none" xmlns="http://www.w3.org/2000/svg">
<path d="M34.9014 73.4587C34.2027 73.4407 33.5397 73.1003 33.1097 72.5091C32.7156 71.9537 32.5902 71.2191 32.7872 70.5562C33.7368 67.1341 34.7222 63.6403 35.6897 60.2899L37.1231 55.3091C41.011 41.7103 44.8989 28.1116 48.7868 14.5128C49.1631 13.2049 49.9335 12.542 51.0802 12.542H51.1339C51.8327 12.542 52.4956 12.8645 52.9256 13.4199C53.3556 14.0112 53.481 14.7816 53.266 15.4982C51.8147 20.6224 50.3277 25.8362 48.8943 30.8887L48.4822 32.3399C47.9089 34.3645 47.3177 36.407 46.7443 38.4316L37.4097 71.0937C36.9618 72.6524 36.1735 73.4407 35.0627 73.4407H34.9014V73.4587Z" fill="white" fill-opacity="0.15"/>
<path d="M67.1151 61.4721C66.8285 61.4721 66.5239 61.4183 66.2551 61.3108C65.3235 60.9704 64.8576 60.3433 64.7501 59.34C64.6785 58.6054 64.9293 57.9962 65.5743 57.3512C67.993 54.9504 70.4297 52.5137 72.8126 50.1308C74.4968 48.4466 76.181 46.7625 77.883 45.0604C78.0085 44.9529 78.1339 44.8454 78.2593 44.7558C78.313 44.7021 78.3668 44.6662 78.4385 44.6304C78.4922 44.5767 78.5639 44.5408 78.6355 44.4871L80.1226 43.2867L75.2314 38.3954L74.2818 37.4458C71.3076 34.4717 68.4947 31.6767 65.628 28.81C64.9651 28.1471 64.6964 27.5379 64.768 26.8212C64.8576 25.8179 65.3235 25.1908 66.2372 24.8325C66.5239 24.725 66.8285 24.6533 67.133 24.6533C67.6526 24.6533 68.1364 24.8683 68.638 25.3342C69.3368 25.9792 70.0535 26.6958 70.7343 27.3946L70.9135 27.5737C71.236 27.8962 71.5405 28.2187 71.863 28.5412L74.8014 31.4796C78.0085 34.6867 81.2335 37.8937 84.4405 41.1187C85.8201 42.4983 85.838 43.6808 84.4764 45.0425C79.2805 50.2562 74.031 55.5058 68.853 60.6658C68.2618 61.2033 67.6885 61.4721 67.1151 61.4721Z" fill="white" fill-opacity="0.15"/>
<path d="M18.8841 61.4724C18.3287 61.4724 17.7912 61.2395 17.4149 60.8274L15.0499 58.4803C10.8037 54.2341 5.96616 49.4324 1.23616 44.6666C0.304496 43.7349 0.304496 42.4091 1.21825 41.4774C6.36033 36.2995 11.6457 31.032 17.3612 25.3345C17.7912 24.8866 18.3645 24.6357 18.9737 24.6357C19.547 24.6357 20.1024 24.8507 20.5145 25.2628C20.5324 25.2807 20.5682 25.3166 20.5862 25.3345C21.4999 26.2662 21.482 27.6637 20.5503 28.5953C17.4507 31.7307 14.3153 34.8662 10.8395 38.3241L8.27741 40.8862C8.16991 40.9937 8.02658 41.1191 7.8295 41.2803L7.73991 41.352C7.59658 41.4774 7.41741 41.6207 7.20241 41.7999L5.572 43.1974L7.30991 44.4695L7.36366 44.5053C7.52491 44.6307 7.66825 44.7203 7.79366 44.8099C7.91908 44.8995 8.0445 44.9891 8.152 45.0787C12.022 48.9307 16.1607 53.0874 20.4966 57.4232C21.2491 58.1757 21.4462 58.8924 21.1595 59.842C20.8907 60.7378 20.3353 61.2037 19.3857 61.4007C19.2245 61.4545 19.0453 61.4724 18.8841 61.4724Z" fill="white" fill-opacity="0.15"/>
</svg>
