<svg width="23" height="20" viewBox="0 0 23 20" fill="none" xmlns="http://www.w3.org/2000/svg">
<path d="M21.4706 4.84699C21.2252 3.92316 20.5023 3.19559 19.5845 2.94867C17.9208 2.5 11.2497 2.5 11.2497 2.5C11.2497 2.5 4.57859 2.5 2.91488 2.94867C1.99703 3.19563 1.27414 3.92316 1.02879 4.84699C0.583008 6.52148 0.583008 10.0152 0.583008 10.0152C0.583008 10.0152 0.583008 13.5088 1.02879 15.1833C1.27414 16.1071 1.99703 16.8044 2.91488 17.0513C4.57859 17.5 11.2497 17.5 11.2497 17.5C11.2497 17.5 17.9208 17.5 19.5845 17.0513C20.5023 16.8044 21.2252 16.1071 21.4706 15.1833C21.9164 13.5088 21.9164 10.0152 21.9164 10.0152C21.9164 10.0152 21.9164 6.52148 21.4706 4.84699ZM9.06785 13.1871V6.84316L14.6436 10.0152L9.06785 13.1871Z" fill="white"/>
</svg>
