<svg width="48" height="48" viewBox="0 0 48 48" fill="none" xmlns="http://www.w3.org/2000/svg">
<path d="M24 24C27.1826 24 30.2348 22.7357 32.4853 20.4853C34.7357 18.2348 36 15.1826 36 12C36 8.8174 34.7357 5.76516 32.4853 3.51472C30.2348 1.26428 27.1826 0 24 0C20.8174 0 17.7652 1.26428 15.5147 3.51472C13.2643 5.76516 12 8.8174 12 12C12 15.1826 13.2643 18.2348 15.5147 20.4853C17.7652 22.7357 20.8174 24 24 24ZM19.7156 28.5C10.4813 28.5 3 35.9812 3 45.2156C3 46.7531 4.24688 48 5.78438 48H42.2156C43.7531 48 45 46.7531 45 45.2156C45 35.9812 37.5188 28.5 28.2844 28.5H19.7156Z" fill="url(#paint0_linear_825_817)"/>
<defs>
<linearGradient id="paint0_linear_825_817" x1="3" y1="48" x2="46.3746" y2="46.7239" gradientUnits="userSpaceOnUse">
<stop stop-color="#F9F295"/>
<stop offset="0.348958" stop-color="#E0AA3E"/>
<stop offset="0.703125" stop-color="#FAF398"/>
<stop offset="1" stop-color="#B88A44"/>
</linearGradient>
</defs>
</svg>
