<svg width="48" height="48" viewBox="0 0 48 48" fill="none" xmlns="http://www.w3.org/2000/svg">
<path d="M25.5 39L24 45L30 43.5L37.185 36.315L32.685 31.815L25.5 39ZM38.82 27C38.4023 26.9996 37.9885 27.0816 37.6025 27.2411C37.2164 27.4007 36.8656 27.6348 36.57 27.93L34.815 29.685L39.315 34.185L41.07 32.43C41.5153 31.9853 41.8186 31.4184 41.9415 30.8012C42.0645 30.1839 42.0015 29.5441 41.7606 28.9627C41.5197 28.3813 41.1116 27.8844 40.5882 27.535C40.0647 27.1856 39.4494 26.9994 38.82 27ZM28.5 12H36L27 3V10.5C27 10.8978 27.158 11.2794 27.4393 11.5607C27.7206 11.842 28.1022 12 28.5 12Z" fill="url(#paint0_linear_852_813)"/>
<path d="M34.5 25.815C34.9448 25.3757 35.4498 25.0019 36 24.705V15H28.5C27.3065 15 26.1619 14.5259 25.318 13.682C24.4741 12.8381 24 11.6935 24 10.5V3H9C8.20435 3 7.44129 3.31607 6.87868 3.87868C6.31607 4.44129 6 5.20435 6 6V42C6 42.7956 6.31607 43.5587 6.87868 44.1213C7.44129 44.6839 8.20435 45 9 45H20.91L22.785 37.5L34.5 25.815ZM13.5 13.5H19.5C19.8978 13.5 20.2794 13.658 20.5607 13.9393C20.842 14.2206 21 14.6022 21 15C21 15.3978 20.842 15.7794 20.5607 16.0607C20.2794 16.342 19.8978 16.5 19.5 16.5H13.5C13.1022 16.5 12.7206 16.342 12.4393 16.0607C12.158 15.7794 12 15.3978 12 15C12 14.6022 12.158 14.2206 12.4393 13.9393C12.7206 13.658 13.1022 13.5 13.5 13.5ZM21 34.5H13.5C13.1022 34.5 12.7206 34.342 12.4393 34.0607C12.158 33.7794 12 33.3978 12 33C12 32.6022 12.158 32.2206 12.4393 31.9393C12.7206 31.658 13.1022 31.5 13.5 31.5H21C21.3978 31.5 21.7794 31.658 22.0607 31.9393C22.342 32.2206 22.5 32.6022 22.5 33C22.5 33.3978 22.342 33.7794 22.0607 34.0607C21.7794 34.342 21.3978 34.5 21 34.5ZM27 28.5H13.5C13.1022 28.5 12.7206 28.342 12.4393 28.0607C12.158 27.7794 12 27.3978 12 27C12 26.6022 12.158 26.2206 12.4393 25.9393C12.7206 25.658 13.1022 25.5 13.5 25.5H27C27.3978 25.5 27.7794 25.658 28.0607 25.9393C28.342 26.2206 28.5 26.6022 28.5 27C28.5 27.3978 28.342 27.7794 28.0607 28.0607C27.7794 28.342 27.3978 28.5 27 28.5ZM28.5 22.5H13.5C13.1022 22.5 12.7206 22.342 12.4393 22.0607C12.158 21.7794 12 21.3978 12 21C12 20.6022 12.158 20.2206 12.4393 19.9393C12.7206 19.658 13.1022 19.5 13.5 19.5H28.5C28.8978 19.5 29.2794 19.658 29.5607 19.9393C29.842 20.2206 30 20.6022 30 21C30 21.3978 29.842 21.7794 29.5607 22.0607C29.2794 22.342 28.8978 22.5 28.5 22.5Z" fill="url(#paint1_linear_852_813)"/>
<defs>
<linearGradient id="paint0_linear_852_813" x1="24" y1="45" x2="42.6042" y2="44.7319" gradientUnits="userSpaceOnUse">
<stop stop-color="#F9F295"/>
<stop offset="0.348958" stop-color="#E0AA3E"/>
<stop offset="0.703125" stop-color="#FAF398"/>
<stop offset="1" stop-color="#B88A44"/>
</linearGradient>
<linearGradient id="paint1_linear_852_813" x1="6" y1="45" x2="36.9908" y2="44.2557" gradientUnits="userSpaceOnUse">
<stop stop-color="#F9F295"/>
<stop offset="0.348958" stop-color="#E0AA3E"/>
<stop offset="0.703125" stop-color="#FAF398"/>
<stop offset="1" stop-color="#B88A44"/>
</linearGradient>
</defs>
</svg>
