<svg width="48" height="48" viewBox="0 0 48 48" fill="none" xmlns="http://www.w3.org/2000/svg">
<g clip-path="url(#clip0_825_813)">
<path d="M26.25 0.000160727C38.2594 0.000160727 48 9.74079 48 21.7502C48 22.997 46.9969 24.0002 45.75 24.0002C44.5031 24.0002 43.5 22.997 43.5 21.7502C43.5 12.2252 35.775 4.50016 26.25 4.50016C25.0031 4.50016 24 3.49704 24 2.25016C24 1.00329 25.0031 0.000160727 26.25 0.000160727ZM27 18.0002C27.7956 18.0002 28.5587 18.3162 29.1213 18.8788C29.6839 19.4415 30 20.2045 30 21.0002C30 21.7958 29.6839 22.5589 29.1213 23.1215C28.5587 23.6841 27.7956 24.0002 27 24.0002C26.2044 24.0002 25.4413 23.6841 24.8787 23.1215C24.3161 22.5589 24 21.7958 24 21.0002C24 20.2045 24.3161 19.4415 24.8787 18.8788C25.4413 18.3162 26.2044 18.0002 27 18.0002ZM24 11.2502C24 10.0033 25.0031 9.00016 26.25 9.00016C33.2906 9.00016 39 14.7095 39 21.7502C39 22.997 37.9969 24.0002 36.75 24.0002C35.5031 24.0002 34.5 22.997 34.5 21.7502C34.5 17.1939 30.8062 13.5002 26.25 13.5002C25.0031 13.5002 24 12.497 24 11.2502ZM11.0156 0.131411C12.8344 -0.365464 14.7375 0.562661 15.4594 2.30641L19.2094 11.3064C19.8469 12.8345 19.4063 14.6064 18.1219 15.647L13.5 19.4345C16.6219 26.0345 21.9656 31.3783 28.5656 34.5002L32.3438 29.8783C33.3937 28.5939 35.1562 28.1533 36.6844 28.7908L45.6844 32.5408C47.4281 33.2627 48.3563 35.1658 47.8594 36.9845L45.6094 45.2345C45.1688 46.8658 43.6875 48.0002 42 48.0002C18.8063 48.0002 0 29.1939 0 6.00016C0 4.31266 1.13438 2.83141 2.76562 2.38141L11.0156 0.131411Z" fill="url(#paint0_linear_825_813)"/>
</g>
<defs>
<linearGradient id="paint0_linear_825_813" x1="5.36442e-07" y1="48.0002" x2="49.5579" y2="46.334" gradientUnits="userSpaceOnUse">
<stop stop-color="#F9F295"/>
<stop offset="0.348958" stop-color="#E0AA3E"/>
<stop offset="0.703125" stop-color="#FAF398"/>
<stop offset="1" stop-color="#B88A44"/>
</linearGradient>
<clipPath id="clip0_825_813">
<rect width="48" height="48" fill="white"/>
</clipPath>
</defs>
</svg>
