<svg width="24" height="24" viewBox="0 0 24 24" fill="none" xmlns="http://www.w3.org/2000/svg">
<path d="M7.99059 1.5C7.79168 1.5 7.60092 1.57902 7.46026 1.71967C7.31961 1.86032 7.24059 2.05109 7.24059 2.25V2.93025H6.06609C5.04511 2.93124 4.06622 3.33721 3.34421 4.05909C2.6222 4.78096 2.21604 5.75977 2.21484 6.78075V18.6487C2.21584 19.6699 2.62191 20.6489 3.34395 21.3709C4.06598 22.0929 5.04498 22.499 6.06609 22.5H17.9341C18.9552 22.499 19.9342 22.0929 20.6562 21.3709C21.3783 20.6489 21.7844 19.6699 21.7853 18.6487V6.78075C21.7842 5.75977 21.378 4.78096 20.656 4.05909C19.934 3.33721 18.9551 2.93124 17.9341 2.93025H16.7596V2.25C16.7596 2.05109 16.6806 1.86032 16.5399 1.71967C16.3993 1.57902 16.2085 1.5 16.0096 1.5C15.8107 1.5 15.6199 1.57902 15.4793 1.71967C15.3386 1.86032 15.2596 2.05109 15.2596 2.25V2.93025H8.74059V2.25C8.74059 2.05109 8.66158 1.86032 8.52092 1.71967C8.38027 1.57902 8.18951 1.5 7.99059 1.5ZM15.2596 4.43025V5.10975C15.2596 5.30866 15.3386 5.49943 15.4793 5.64008C15.6199 5.78073 15.8107 5.85975 16.0096 5.85975C16.2085 5.85975 16.3993 5.78073 16.5399 5.64008C16.6806 5.49943 16.7596 5.30866 16.7596 5.10975V4.43025H17.9341C18.5574 4.43085 19.155 4.67865 19.5958 5.11931C20.0365 5.55996 20.2846 6.15747 20.2853 6.78075V18.6487C20.2847 19.2722 20.0368 19.8699 19.596 20.3107C19.1552 20.7515 18.5575 20.9994 17.9341 21H6.06609C5.44269 20.9994 4.84498 20.7515 4.40417 20.3107C3.96335 19.8699 3.71544 19.2722 3.71484 18.6487V6.78075C3.71564 6.15747 3.96364 5.55996 4.40443 5.11931C4.84523 4.67865 5.44282 4.43085 6.06609 4.43025H7.24059V5.10975C7.24059 5.30866 7.31961 5.49943 7.46026 5.64008C7.60092 5.78073 7.79168 5.85975 7.99059 5.85975C8.18951 5.85975 8.38027 5.78073 8.52092 5.64008C8.66158 5.49943 8.74059 5.30866 8.74059 5.10975V4.43025H15.2596Z" fill="url(#paint0_linear_1153_1005)"/>
<path d="M6.0958 11.2035C5.98247 11.5474 5.96837 11.9163 6.05513 12.2679C6.14188 12.6194 6.32598 12.9394 6.5863 13.191L7.72105 14.2973C7.82455 14.397 7.87105 14.5433 7.84705 14.6858L7.5793 16.2458C7.51652 16.6026 7.55555 16.9698 7.69191 17.3054C7.82828 17.641 8.05646 17.9314 8.3503 18.1433C8.64268 18.3574 8.98947 18.4848 9.35093 18.511C9.71239 18.5371 10.0739 18.4609 10.394 18.291L11.7958 17.5538C11.9233 17.4863 12.077 17.4863 12.2038 17.5538L13.6063 18.2918C13.9268 18.4605 14.2882 18.536 14.6494 18.5097C15.0106 18.4835 15.3573 18.3565 15.65 18.1433C15.9438 17.9315 16.1718 17.6412 16.308 17.3057C16.4443 16.9702 16.4832 16.6031 16.4203 16.2465L16.1525 14.685C16.1407 14.6148 16.1462 14.5427 16.1684 14.4751C16.1906 14.4074 16.2289 14.3461 16.28 14.2965L17.4125 13.1918C17.945 12.672 18.134 11.9108 17.9038 11.2035C17.6735 10.4963 17.0743 9.98929 16.3378 9.88354L14.7703 9.65554C14.6999 9.64499 14.633 9.61759 14.5754 9.57568C14.5178 9.53377 14.4712 9.47857 14.4395 9.41479L13.739 7.99504C13.4105 7.32754 12.7438 6.91504 11.9998 6.91504C11.2558 6.91504 10.5898 7.32904 10.2598 7.99579L9.56005 9.41554C9.52836 9.47932 9.48175 9.53452 9.42417 9.57643C9.36658 9.61834 9.29973 9.64574 9.2293 9.65629L7.6618 9.88429C7.30305 9.93476 6.9658 10.0854 6.6888 10.3189C6.41179 10.5524 6.20626 10.8593 6.0958 11.2043V11.2035ZM10.9048 10.0785L11.6053 8.65879C11.714 8.43754 11.918 8.41429 11.9998 8.41429C12.0815 8.41429 12.2848 8.43754 12.3943 8.65879L13.0948 10.0785C13.2339 10.3606 13.4395 10.6046 13.6939 10.7895C13.9483 10.9744 14.2438 11.0946 14.555 11.1398L16.1225 11.367C16.2042 11.3777 16.2811 11.4117 16.344 11.4649C16.407 11.5181 16.4532 11.5882 16.4773 11.667C16.5039 11.7448 16.5076 11.8287 16.4877 11.9085C16.4679 11.9883 16.4255 12.0607 16.3655 12.117L15.233 13.2218C15.0073 13.441 14.8384 13.7121 14.741 14.0114C14.6436 14.3106 14.6207 14.6292 14.6743 14.9393L14.942 16.5C14.9571 16.5807 14.9485 16.6641 14.9174 16.74C14.8863 16.816 14.8339 16.8813 14.7665 16.9283C14.7011 16.9783 14.6225 17.0082 14.5403 17.0144C14.4581 17.0205 14.376 17.0026 14.3038 16.9628L12.9028 16.2263C12.6243 16.0799 12.3144 16.0034 11.9998 16.0034C11.6852 16.0034 11.3753 16.0799 11.0968 16.2263L9.69655 16.962C9.47755 17.0775 9.29905 16.977 9.23305 16.9283C9.16705 16.8795 9.01555 16.7415 9.05755 16.4993L9.3253 14.9393C9.37895 14.6292 9.35618 14.3107 9.25894 14.0115C9.16171 13.7122 8.99295 13.4411 8.7673 13.2218L7.63405 12.1155C7.57403 12.0593 7.53155 11.9869 7.51173 11.907C7.4919 11.8272 7.49557 11.7433 7.5223 11.6655C7.5465 11.5869 7.59281 11.5169 7.65571 11.4638C7.71861 11.4107 7.79544 11.3769 7.87705 11.3663L9.44455 11.139C9.75577 11.0938 10.0513 10.9736 10.3057 10.7887C10.5601 10.6038 10.7657 10.3606 10.9048 10.0785Z" fill="url(#paint1_linear_1153_1005)"/>
<defs>
<linearGradient id="paint0_linear_1153_1005" x1="2.21484" y1="22.5" x2="22.4235" y2="21.8668" gradientUnits="userSpaceOnUse">
<stop stop-color="#F9F295"/>
<stop offset="0.348958" stop-color="#E0AA3E"/>
<stop offset="0.703125" stop-color="#FAF398"/>
<stop offset="1" stop-color="#B88A44"/>
</linearGradient>
<linearGradient id="paint1_linear_1153_1005" x1="5.99902" y1="18.516" x2="18.3888" y2="18.085" gradientUnits="userSpaceOnUse">
<stop stop-color="#F9F295"/>
<stop offset="0.348958" stop-color="#E0AA3E"/>
<stop offset="0.703125" stop-color="#FAF398"/>
<stop offset="1" stop-color="#B88A44"/>
</linearGradient>
</defs>
</svg>
