<svg width="48" height="48" viewBox="0 0 48 48" fill="none" xmlns="http://www.w3.org/2000/svg">
<path d="M47.9833 23.9582C47.9833 25.4582 46.7333 26.6332 45.3167 26.6332H42.65L42.7083 39.9832C42.7083 40.2082 42.6917 40.4332 42.6667 40.6582V41.9998C42.6667 43.8415 41.175 45.3332 39.3333 45.3332H38C37.9083 45.3332 37.8167 45.3332 37.725 45.3248C37.6083 45.3332 37.4917 45.3332 37.375 45.3332H34.6667H32.6667C30.825 45.3332 29.3333 43.8415 29.3333 41.9998V39.9998V34.6665C29.3333 33.1915 28.1417 31.9998 26.6667 31.9998H21.3333C19.8583 31.9998 18.6667 33.1915 18.6667 34.6665V39.9998V41.9998C18.6667 43.8415 17.175 45.3332 15.3333 45.3332H13.3333H10.675C10.55 45.3332 10.425 45.3248 10.3 45.3165C10.2 45.3248 10.1 45.3332 10 45.3332H8.66667C6.825 45.3332 5.33333 43.8415 5.33333 41.9998V32.6665C5.33333 32.5915 5.33333 32.5082 5.34167 32.4332V26.6332H2.66667C1.16667 26.6332 0 25.4665 0 23.9582C0 23.2082 0.25 22.5415 0.833333 21.9582L22.2 3.33317C22.7833 2.74984 23.45 2.6665 24.0333 2.6665C24.6167 2.6665 25.2833 2.83317 25.7833 3.24984L47.0667 21.9582C47.7333 22.5415 48.0667 23.2082 47.9833 23.9582Z" fill="url(#paint0_linear_825_821)"/>
<defs>
<linearGradient id="paint0_linear_825_821" x1="5.36396e-07" y1="45.3332" x2="49.5388" y2="43.4595" gradientUnits="userSpaceOnUse">
<stop stop-color="#F9F295"/>
<stop offset="0.348958" stop-color="#E0AA3E"/>
<stop offset="0.703125" stop-color="#FAF398"/>
<stop offset="1" stop-color="#B88A44"/>
</linearGradient>
</defs>
</svg>
