<svg width="48" height="48" viewBox="0 0 48 48" fill="none" xmlns="http://www.w3.org/2000/svg">
<path d="M5.33333 2.6665C2.39167 2.6665 0 5.05817 0 7.99984V39.9998C0 42.9415 2.39167 45.3332 5.33333 45.3332H26.6667C29.6083 45.3332 32 42.9415 32 39.9998V38.3915C31.775 38.4832 31.55 38.5582 31.3167 38.6165L26.3083 39.8665C26.0583 39.9248 25.8083 39.9665 25.5583 39.9832C25.4833 39.9915 25.4083 39.9998 25.3333 39.9998H20C19.4917 39.9998 19.0333 39.7165 18.8083 39.2665L18.075 37.7915C17.9333 37.5082 17.65 37.3332 17.3417 37.3332C17.0333 37.3332 16.7417 37.5082 16.6083 37.7915L15.875 39.2665C15.6333 39.7582 15.1083 40.0498 14.5667 39.9998C14.025 39.9498 13.5583 39.5748 13.4083 39.0582L12 34.4165L11.1833 37.1498C10.675 38.8415 9.11667 39.9998 7.35 39.9998H6.66667C5.93333 39.9998 5.33333 39.3998 5.33333 38.6665C5.33333 37.9332 5.93333 37.3332 6.66667 37.3332H7.35C7.94167 37.3332 8.45833 36.9498 8.625 36.3832L9.86667 32.2582C10.15 31.3165 11.0167 30.6665 12 30.6665C12.9833 30.6665 13.85 31.3165 14.1333 32.2582L15.1 35.4748C15.7167 34.9582 16.5 34.6665 17.3333 34.6665C18.6583 34.6665 19.8667 35.4165 20.4583 36.5998L20.825 37.3332H21.5667C21.3083 36.5998 21.2583 35.7998 21.45 35.0165L22.7 30.0082C22.9333 29.0665 23.4167 28.2165 24.1 27.5332L32 19.6332V15.9998H21.3333C19.8583 15.9998 18.6667 14.8082 18.6667 13.3332V2.6665H5.33333ZM21.3333 2.6665V13.3332H32L21.3333 2.6665ZM45.8167 14.3082C44.5167 13.0082 42.4083 13.0082 41.1 14.3082L38.65 16.7582L44.5667 22.6748L47.0167 20.2248C48.3167 18.9248 48.3167 16.8165 47.0167 15.5082L45.8167 14.3082ZM25.9917 29.4165C25.65 29.7582 25.4083 30.1832 25.2917 30.6582L24.0417 35.6665C23.925 36.1248 24.0583 36.5998 24.3917 36.9332C24.725 37.2665 25.2 37.3998 25.6583 37.2832L30.6667 36.0332C31.1333 35.9165 31.5667 35.6748 31.9083 35.3332L42.675 24.5582L36.7583 18.6415L25.9917 29.4165Z" fill="url(#paint0_linear_825_815)"/>
<defs>
<linearGradient id="paint0_linear_825_815" x1="5.36349e-07" y1="45.3332" x2="49.5344" y2="43.4598" gradientUnits="userSpaceOnUse">
<stop stop-color="#F9F295"/>
<stop offset="0.348958" stop-color="#E0AA3E"/>
<stop offset="0.703125" stop-color="#FAF398"/>
<stop offset="1" stop-color="#B88A44"/>
</linearGradient>
</defs>
</svg>
