<svg width="48" height="48" viewBox="0 0 48 48" fill="none" xmlns="http://www.w3.org/2000/svg">
<g clip-path="url(#clip0_1567_873)">
<path d="M46.7757 18.7773L43.2761 18.0774C42.8918 16.803 42.3813 15.5701 41.7522 14.3971L43.7316 11.4281C43.9119 11.1577 43.993 10.833 43.961 10.5095C43.9289 10.186 43.7858 9.88357 43.5559 9.65372L38.2526 4.35037C38.0227 4.12052 37.7203 3.9774 37.3968 3.94535C37.0733 3.91331 36.7487 3.99431 36.4782 4.17459L33.5091 6.15394C32.336 5.52491 31.1031 5.01445 29.8287 4.63013L29.1289 1.13044C29.0651 0.811667 28.8929 0.524829 28.6415 0.318728C28.3901 0.112627 28.0751 -3.495e-06 27.75 3.64671e-10H20.25C19.9249 -7.40005e-06 19.6099 0.11262 19.3584 0.31872C19.107 0.524819 18.9348 0.81166 18.871 1.13044L18.1712 4.63013C16.8968 5.01449 15.6639 5.52495 14.4908 6.15394L11.5217 4.17459C11.2512 3.99431 10.9266 3.91331 10.6031 3.94535C10.2796 3.9774 9.97716 4.12052 9.74728 4.35037L4.44403 9.65372C4.21413 9.88358 4.07098 10.186 4.03895 10.5095C4.00692 10.833 4.08798 11.1576 4.26834 11.4281L6.24769 14.3971C5.61862 15.5702 5.10813 16.803 4.72378 18.0774L1.22419 18.7773C0.90541 18.841 0.618569 19.0133 0.41247 19.2647C0.20637 19.5161 0.0937426 19.8312 0.09375 20.1562V27.6562C0.09375 28.3266 0.566906 28.9038 1.22428 29.0351L4.72388 29.7351C5.1082 31.0094 5.61869 32.2423 6.24778 33.4153L4.26844 36.3844C4.08809 36.6549 4.00704 36.9795 4.03907 37.303C4.0711 37.6265 4.21424 37.9289 4.44412 38.1588L9.74738 43.462C9.97724 43.6919 10.2796 43.8351 10.6032 43.8671C10.9267 43.8992 11.2513 43.8181 11.5218 43.6378L14.4301 41.6991V32.8711C12.2277 30.5269 10.875 27.3773 10.875 23.9062C10.875 16.6575 16.7513 10.7812 24 10.7812C31.2487 10.7812 37.125 16.6575 37.125 23.9062C37.125 27.3773 35.7723 30.5269 33.5699 32.8711V41.6991L36.4782 43.6378C36.709 43.7919 36.9803 43.8742 37.2577 43.8741C37.6207 43.8741 37.9808 43.7339 38.2525 43.4621L43.5558 38.1589C43.7857 37.929 43.9288 37.6266 43.9608 37.3031C43.9929 36.9796 43.9118 36.655 43.7315 36.3845L41.7521 33.4154C42.3812 32.2424 42.8917 31.0095 43.276 29.7352L46.7756 29.0352C47.0944 28.9715 47.3813 28.7993 47.5875 28.5479C47.7936 28.2964 47.9062 27.9814 47.9062 27.6562V20.1562C47.9063 19.8311 47.7936 19.5161 47.5875 19.2647C47.3814 19.0133 47.0945 18.841 46.7757 18.7773Z" fill="url(#paint0_linear_1567_873)"/>
<path d="M28.4549 16.2006C27.7472 15.7907 26.8492 16.2257 26.7323 17.0351L25.875 22.9684H22.125L21.2678 17.0351C21.1508 16.2257 20.2529 15.7907 19.5452 16.2006C16.7993 17.7911 15.0938 20.7437 15.0938 23.9059C15.0938 27.3326 17.0128 30.398 20.102 31.9058L20.25 31.9781V46.5934C20.25 47.37 20.8796 47.9996 21.6562 47.9996H26.3438C27.1204 47.9996 27.75 47.37 27.75 46.5934V31.9781L27.898 31.9058C30.9872 30.398 32.9062 27.3326 32.9062 23.9059C32.9062 20.7437 31.2007 17.7911 28.4549 16.2006Z" fill="url(#paint1_linear_1567_873)"/>
</g>
<defs>
<linearGradient id="paint0_linear_1567_873" x1="0.0937505" y1="43.8741" x2="49.4476" y2="42.0657" gradientUnits="userSpaceOnUse">
<stop stop-color="#F9F295"/>
<stop offset="0.348958" stop-color="#E0AA3E"/>
<stop offset="0.703125" stop-color="#FAF398"/>
<stop offset="1" stop-color="#B88A44"/>
</linearGradient>
<linearGradient id="paint1_linear_1567_873" x1="15.0938" y1="47.9996" x2="33.4987" y2="47.6547" gradientUnits="userSpaceOnUse">
<stop stop-color="#F9F295"/>
<stop offset="0.348958" stop-color="#E0AA3E"/>
<stop offset="0.703125" stop-color="#FAF398"/>
<stop offset="1" stop-color="#B88A44"/>
</linearGradient>
<clipPath id="clip0_1567_873">
<rect width="48" height="48" fill="white"/>
</clipPath>
</defs>
</svg>
