<svg width="48" height="48" viewBox="0 0 48 48" fill="none" xmlns="http://www.w3.org/2000/svg">
<path d="M5.4 11.4002C5.4 10.2863 5.8425 9.218 6.63015 8.43035C7.4178 7.64269 8.48609 7.2002 9.6 7.2002C10.7139 7.2002 11.7822 7.64269 12.5698 8.43035C13.3575 9.218 13.8 10.2863 13.8 11.4002C13.8 12.5141 13.3575 13.5824 12.5698 14.37C11.7822 15.1577 10.7139 15.6002 9.6 15.6002C8.48609 15.6002 7.4178 15.1577 6.63015 14.37C5.8425 13.5824 5.4 12.5141 5.4 11.4002ZM4.8 23.2277C4.05 24.0677 3.6 25.1852 3.6 26.4002C3.6 27.6152 4.05 28.7327 4.8 29.5727V23.2277ZM15.63 19.5302C13.4025 21.5027 12 24.3902 12 27.6002C12 30.1727 12.9 32.5352 14.4 34.3877V36.0002C14.4 37.3277 13.3275 38.4002 12 38.4002H7.2C5.8725 38.4002 4.8 37.3277 4.8 36.0002V33.9902C1.965 32.6402 0 29.7527 0 26.4002C0 21.7577 3.7575 18.0002 8.4 18.0002H10.8C12.6 18.0002 14.265 18.5627 15.63 19.5227V19.5302ZM33.6 36.0002V34.3877C35.1 32.5352 36 30.1727 36 27.6002C36 24.3902 34.5975 21.5027 32.37 19.5227C33.735 18.5627 35.4 18.0002 37.2 18.0002H39.6C44.2425 18.0002 48 21.7577 48 26.4002C48 29.7527 46.035 32.6402 43.2 33.9902V36.0002C43.2 37.3277 42.1275 38.4002 40.8 38.4002H36C34.6725 38.4002 33.6 37.3277 33.6 36.0002ZM34.2 11.4002C34.2 10.2863 34.6425 9.218 35.4302 8.43035C36.2178 7.64269 37.2861 7.2002 38.4 7.2002C39.5139 7.2002 40.5822 7.64269 41.3698 8.43035C42.1575 9.218 42.6 10.2863 42.6 11.4002C42.6 12.5141 42.1575 13.5824 41.3698 14.37C40.5822 15.1577 39.5139 15.6002 38.4 15.6002C37.2861 15.6002 36.2178 15.1577 35.4302 14.37C34.6425 13.5824 34.2 12.5141 34.2 11.4002ZM43.2 23.2277V29.5802C43.95 28.7327 44.4 27.6227 44.4 26.4077C44.4 25.1927 43.95 24.0752 43.2 23.2352V23.2277ZM24 7.2002C25.273 7.2002 26.4939 7.70591 27.3941 8.60608C28.2943 9.50626 28.8 10.7272 28.8 12.0002C28.8 13.2732 28.2943 14.4941 27.3941 15.3943C26.4939 16.2945 25.273 16.8002 24 16.8002C22.727 16.8002 21.5061 16.2945 20.6059 15.3943C19.7057 14.4941 19.2 13.2732 19.2 12.0002C19.2 10.7272 19.7057 9.50626 20.6059 8.60608C21.5061 7.70591 22.727 7.2002 24 7.2002ZM18 27.6002C18 28.8152 18.45 29.9252 19.2 30.7727V24.4277C18.45 25.2752 18 26.3852 18 27.6002ZM28.8 24.4277V30.7802C29.55 29.9327 30 28.8227 30 27.6077C30 26.3927 29.55 25.2752 28.8 24.4352V24.4277ZM33.6 27.6002C33.6 30.9527 31.635 33.8402 28.8 35.1902V38.4002C28.8 39.7277 27.7275 40.8002 26.4 40.8002H21.6C20.2725 40.8002 19.2 39.7277 19.2 38.4002V35.1902C16.365 33.8402 14.4 30.9527 14.4 27.6002C14.4 22.9577 18.1575 19.2002 22.8 19.2002H25.2C29.8425 19.2002 33.6 22.9577 33.6 27.6002Z" fill="url(#paint0_linear_825_819)"/>
<defs>
<linearGradient id="paint0_linear_825_819" x1="5.36442e-07" y1="40.8002" x2="49.4997" y2="38.4226" gradientUnits="userSpaceOnUse">
<stop stop-color="#F9F295"/>
<stop offset="0.348958" stop-color="#E0AA3E"/>
<stop offset="0.703125" stop-color="#FAF398"/>
<stop offset="1" stop-color="#B88A44"/>
</linearGradient>
</defs>
</svg>
