<svg width="165" height="165" viewBox="0 0 165 165" fill="none" xmlns="http://www.w3.org/2000/svg">
<g clip-path="url(#clip0_929_4935)">
<path d="M19.0007 60.44C19.2247 60.6645 19.4909 60.8426 19.7839 60.964C20.0769 61.0854 20.391 61.1477 20.7081 61.1474C21.1857 61.1473 21.6526 61.0056 22.0497 60.7402C22.4468 60.4748 22.7563 60.0977 22.9391 59.6565C23.1219 59.2152 23.1698 58.7297 23.0767 58.2612C22.9836 57.7928 22.7537 57.3624 22.4161 57.0246L16.5525 51.161L22.4164 45.2986C22.8567 44.8431 23.1004 44.2329 23.095 43.5994C23.0897 42.9659 22.8356 42.3599 22.3877 41.912C21.9397 41.4641 21.3337 41.21 20.7003 41.2046C20.0668 41.1993 19.4566 41.4429 19.0011 41.8832L11.4304 49.4539C11.2061 49.6782 11.0282 49.9444 10.9068 50.2374C10.7854 50.5304 10.7229 50.8444 10.7229 51.1616C10.7229 51.4788 10.7854 51.7928 10.9068 52.0858C11.0282 52.3788 11.2061 52.6451 11.4304 52.8693L19.0007 60.44ZM42.9645 51.161L37.1009 57.0246C36.8766 57.2489 36.6987 57.5152 36.5774 57.8082C36.456 58.1013 36.3936 58.4154 36.3938 58.7326C36.3939 59.0497 36.4565 59.3638 36.5781 59.6568C36.6996 59.9497 36.8777 60.2159 37.1022 60.44C37.5727 60.9105 38.1911 61.1474 38.8092 61.1474C39.4273 61.1474 40.0454 60.9108 40.5162 60.44L48.0882 52.868C48.3124 52.6439 48.4903 52.3777 48.6117 52.0848C48.733 51.7919 48.7955 51.478 48.7955 51.161C48.7955 50.8439 48.733 50.53 48.6117 50.2371C48.4903 49.9442 48.3124 49.6781 48.0882 49.4539L40.5162 41.8819C40.2921 41.6577 40.026 41.4799 39.7331 41.3585C39.4402 41.2372 39.1262 41.1747 38.8092 41.1747C38.4922 41.1747 38.1782 41.2372 37.8853 41.3585C37.5924 41.4799 37.3263 41.6577 37.1022 41.8819C36.8777 42.1061 36.6996 42.3723 36.5781 42.6653C36.4566 42.9583 36.394 43.2724 36.394 43.5896C36.394 43.9068 36.4566 44.2209 36.5781 44.514C36.6996 44.807 36.8777 45.0732 37.1022 45.2973L42.9645 51.161ZM26.1589 60.9801C26.4483 61.0932 26.748 61.1477 27.0413 61.1477C27.5266 61.1476 28.0007 61.0014 28.4017 60.7281C28.8028 60.4547 29.1122 60.067 29.2898 59.6153L35.2378 44.4726C35.3579 44.1768 35.418 43.86 35.4148 43.5408C35.4116 43.2215 35.3451 42.906 35.2191 42.6126C35.0932 42.3192 34.9103 42.0537 34.681 41.8315C34.4518 41.6093 34.1807 41.4347 33.8836 41.3179C33.5864 41.2011 33.269 41.1445 32.9498 41.1512C32.6306 41.1579 32.3159 41.2278 32.0239 41.357C31.7319 41.4861 31.4684 41.6719 31.2487 41.9036C31.0289 42.1352 30.8574 42.4082 30.7438 42.7066L24.7941 57.8493C24.3072 59.0903 24.9176 60.4928 26.1589 60.9801ZM14.5045 75.3145H30.7725C31.413 75.3145 32.0273 75.0601 32.4802 74.6072C32.9331 74.1543 33.1876 73.54 33.1876 72.8995C33.1876 72.259 32.9331 71.6447 32.4802 71.1918C32.0273 70.7389 31.413 70.4844 30.7725 70.4844H14.5045C14.1874 70.4844 13.8734 70.5468 13.5805 70.6681C13.2875 70.7894 13.0213 70.9673 12.7971 71.1915C12.5729 71.4157 12.3951 71.6819 12.2738 71.9748C12.1524 72.2678 12.09 72.5818 12.0901 72.8988C12.0899 73.216 12.1522 73.5301 12.2735 73.8232C12.3947 74.1163 12.5725 74.3826 12.7968 74.6069C13.021 74.8313 13.2872 75.0092 13.5802 75.1306C13.8732 75.252 14.1873 75.3145 14.5045 75.3145ZM68.2412 70.4844H39.64C38.9995 70.4844 38.3852 70.7389 37.9323 71.1918C37.4794 71.6447 37.2249 72.259 37.2249 72.8995C37.2249 73.54 37.4794 74.1543 37.9323 74.6072C38.3852 75.0601 38.9995 75.3145 39.64 75.3145H68.2412C68.5617 75.3198 68.88 75.2612 69.1776 75.1422C69.4752 75.0231 69.7461 74.8461 69.9746 74.6213C70.2031 74.3965 70.3845 74.1285 70.5084 73.8329C70.6322 73.5373 70.696 73.22 70.696 72.8995C70.696 72.579 70.6322 72.2617 70.5084 71.966C70.3845 71.6704 70.2031 71.4024 69.9746 71.1776C69.7461 70.9529 69.4752 70.7758 69.1776 70.6568C68.88 70.5378 68.5617 70.4792 68.2412 70.4844ZM14.5045 85.5001H21.4345C22.0751 85.5001 22.6894 85.2457 23.1423 84.7927C23.5953 84.3398 23.8497 83.7254 23.8497 83.0849C23.8497 82.4443 23.5953 81.83 23.1423 81.3771C22.6894 80.9241 22.0751 80.6697 21.4345 80.6697H14.5045C14.1874 80.6696 13.8734 80.732 13.5804 80.8534C13.2874 80.9747 13.0212 81.1526 12.797 81.3768C12.5728 81.6011 12.395 81.8673 12.2737 82.1603C12.1524 82.4533 12.09 82.7673 12.0901 83.0844C12.0899 83.4016 12.1522 83.7157 12.2735 84.0088C12.3947 84.3018 12.5725 84.5681 12.7968 84.7925C13.021 85.0168 13.2872 85.1948 13.5802 85.3162C13.8732 85.4376 14.1873 85.5001 14.5045 85.5001ZM59.4066 80.6697C59.0895 80.6696 58.7755 80.732 58.4825 80.8534C58.1895 80.9747 57.9233 81.1526 57.6991 81.3768C57.4749 81.6011 57.2971 81.8673 57.1758 82.1603C57.0545 82.4533 56.9921 82.7673 56.9921 83.0844C56.992 83.4016 57.0543 83.7157 57.1756 84.0088C57.2968 84.3018 57.4746 84.5681 57.6989 84.7925C57.9231 85.0168 58.1893 85.1948 58.4823 85.3162C58.7753 85.4376 59.0894 85.5001 59.4066 85.5001H63.6263C63.9459 85.5038 64.2629 85.444 64.5592 85.3243C64.8555 85.2046 65.125 85.0273 65.3523 84.8027C65.5795 84.578 65.7599 84.3105 65.8831 84.0157C66.0062 83.7208 66.0696 83.4044 66.0696 83.0849C66.0696 82.7653 66.0062 82.449 65.8831 82.1541C65.7599 81.8592 65.5795 81.5917 65.3523 81.3671C65.125 81.1425 64.8555 80.9651 64.5592 80.8454C64.2629 80.7257 63.9459 80.666 63.6263 80.6697H59.4066ZM53.0505 83.0844C53.0504 82.444 52.796 81.8299 52.3433 81.3771C51.8905 80.9243 51.2764 80.6698 50.6361 80.6697H29.9079C29.5907 80.6696 29.2767 80.732 28.9837 80.8533C28.6907 80.9746 28.4244 81.1525 28.2002 81.3767C27.9759 81.601 27.7981 81.8672 27.6768 82.1602C27.5554 82.4532 27.493 82.7673 27.4931 83.0844C27.493 83.4016 27.5553 83.7157 27.6766 84.0088C27.7978 84.3019 27.9757 84.5683 28.1999 84.7926C28.4242 85.0169 28.6905 85.1949 28.9835 85.3163C29.2766 85.4377 29.5907 85.5001 29.9079 85.5001H50.6361C50.9532 85.5 51.2673 85.4375 51.5602 85.316C51.8532 85.1946 52.1194 85.0166 52.3436 84.7923C52.5678 84.568 52.7456 84.3017 52.8669 84.0086C52.9882 83.7156 53.0506 83.4015 53.0505 83.0844ZM68.8693 83.0844C68.8692 83.4015 68.9316 83.7156 69.0529 84.0086C69.1742 84.3017 69.352 84.568 69.5762 84.7923C69.8004 85.0166 70.0666 85.1946 70.3596 85.316C70.6525 85.4375 70.9666 85.5 71.2837 85.5001H79.1883C79.5078 85.5038 79.8249 85.444 80.1211 85.3243C80.4174 85.2046 80.687 85.0273 80.9142 84.8027C81.1415 84.578 81.3219 84.3105 81.445 84.0157C81.5682 83.7208 81.6316 83.4044 81.6316 83.0849C81.6316 82.7653 81.5682 82.449 81.445 82.1541C81.3219 81.8592 81.1415 81.5917 80.9142 81.3671C80.687 81.1425 80.4174 80.9651 80.1211 80.8454C79.8249 80.7257 79.5078 80.666 79.1883 80.6697H71.2837C70.6434 80.6698 70.0293 80.9243 69.5765 81.3771C69.1238 81.8299 68.8694 82.444 68.8693 83.0844ZM55.7182 53.0984H64.0553C64.3748 53.1021 64.6919 53.0424 64.9881 52.9227C65.2844 52.8029 65.554 52.6256 65.7812 52.401C66.0085 52.1763 66.1889 51.9088 66.312 51.614C66.4351 51.3191 66.4986 51.0027 66.4986 50.6832C66.4986 50.3637 66.4351 50.0473 66.312 49.7524C66.1889 49.4576 66.0085 49.1901 65.7812 48.9654C65.554 48.7408 65.2844 48.5635 64.9881 48.4437C64.6919 48.324 64.3748 48.2643 64.0553 48.268H55.7182C55.0777 48.268 54.4633 48.5224 54.0104 48.9754C53.5575 49.4283 53.303 50.0426 53.303 50.6832C53.303 51.3238 53.5575 51.9381 54.0104 52.391C54.4633 52.844 55.0777 53.0984 55.7182 53.0984ZM73.3936 53.0984H124.265C124.583 53.0984 124.897 53.0359 125.19 52.9145C125.483 52.7931 125.749 52.6151 125.973 52.3908C126.197 52.1665 126.375 51.9002 126.496 51.6071C126.618 51.314 126.68 50.9999 126.68 50.6827C126.68 50.3656 126.617 50.0516 126.496 49.7586C126.375 49.4656 126.197 49.1994 125.973 48.9752C125.749 48.7509 125.482 48.573 125.189 48.4517C124.896 48.3304 124.582 48.2679 124.265 48.268H73.3936C72.753 48.268 72.1387 48.5224 71.6858 48.9754C71.2328 49.4283 70.9784 50.0426 70.9784 50.6832C70.9784 51.3238 71.2328 51.9381 71.6858 52.391C72.1387 52.844 72.753 53.0984 73.3936 53.0984ZM116.538 58.8928H95.931C95.2905 58.8928 94.6762 59.1472 94.2233 59.6001C93.7704 60.0531 93.5159 60.6673 93.5159 61.3079C93.5159 61.9484 93.7704 62.5627 94.2233 63.0156C94.6762 63.4685 95.2905 63.7229 95.931 63.7229H116.538C117.179 63.7229 117.793 63.4685 118.246 63.0156C118.699 62.5627 118.953 61.9484 118.953 61.3079C118.953 60.6673 118.699 60.0531 118.246 59.6001C117.793 59.1472 117.179 58.8928 116.538 58.8928ZM88.2043 58.8928H81.1206C80.8034 58.8928 80.4893 58.9553 80.1963 59.0767C79.9033 59.1981 79.6371 59.3761 79.4129 59.6004C79.1887 59.8247 79.0108 60.0911 78.8896 60.3841C78.7683 60.6772 78.706 60.9913 78.7062 61.3085C78.7061 61.6256 78.7685 61.9396 78.8899 62.2325C79.0112 62.5255 79.189 62.7916 79.4132 63.0159C79.6374 63.2401 79.9036 63.4179 80.1966 63.5392C80.4895 63.6605 80.8035 63.723 81.1206 63.7229H88.204C88.5211 63.723 88.8351 63.6605 89.128 63.5392C89.421 63.4179 89.6872 63.2401 89.9114 63.0159C90.1356 62.7916 90.3134 62.5255 90.4347 62.2325C90.5561 61.9396 90.6185 61.6256 90.6184 61.3085C90.6186 60.9913 90.5563 60.6772 90.435 60.3841C90.3138 60.0911 90.1359 59.8247 89.9117 59.6004C89.6875 59.3761 89.4213 59.1981 89.1283 59.0767C88.8353 58.9553 88.5212 58.8928 88.204 58.8928H88.2043ZM55.7182 63.7229H73.0713C73.7118 63.7229 74.3261 63.4685 74.779 63.0156C75.232 62.5627 75.4864 61.9484 75.4864 61.3079C75.4864 60.6673 75.232 60.0531 74.779 59.6001C74.3261 59.1472 73.7118 58.8928 73.0713 58.8928H55.7182C55.3978 58.8876 55.0794 58.9461 54.7818 59.0652C54.4843 59.1842 54.2133 59.3612 53.9848 59.586C53.7564 59.8108 53.5749 60.0788 53.451 60.3744C53.3272 60.67 53.2634 60.9873 53.2634 61.3079C53.2634 61.6284 53.3272 61.9457 53.451 62.2413C53.5749 62.5369 53.7564 62.8049 53.9848 63.0297C54.2133 63.2545 54.4843 63.4315 54.7818 63.5505C55.0794 63.6696 55.3978 63.7282 55.7182 63.7229ZM50.6664 90.7695H34.3993C34.0821 90.7694 33.7681 90.8318 33.475 90.9531C33.182 91.0744 32.9157 91.2522 32.6914 91.4764C32.4671 91.7006 32.2891 91.9668 32.1677 92.2598C32.0462 92.5527 31.9837 92.8668 31.9836 93.1839C31.9836 93.5011 32.0462 93.8152 32.1676 94.1082C32.289 94.4012 32.467 94.6674 32.6913 94.8916C32.9156 95.1159 33.1819 95.2937 33.475 95.415C33.768 95.5364 34.0821 95.5987 34.3993 95.5987H50.6664C51.3067 95.5985 51.9208 95.344 52.3735 94.8912C52.8263 94.4384 53.0807 93.8243 53.0808 93.1839C53.0806 92.5436 52.8262 91.9296 52.3734 91.4769C51.9207 91.0241 51.3067 90.7697 50.6664 90.7695ZM27.0026 90.7695H14.5042C14.1871 90.7695 13.8731 90.8319 13.5801 90.9532C13.2872 91.0745 13.021 91.2524 12.7968 91.4766C12.5726 91.7008 12.3948 91.967 12.2734 92.2599C12.1521 92.5529 12.0897 92.8668 12.0897 93.1839C12.0896 93.501 12.152 93.815 12.2733 94.108C12.3946 94.401 12.5725 94.6672 12.7967 94.8915C13.0209 95.1157 13.2871 95.2936 13.5801 95.4149C13.873 95.5363 14.187 95.5987 14.5042 95.5987H27.002C27.3191 95.5987 27.6331 95.5363 27.9261 95.4149C28.219 95.2936 28.4852 95.1157 28.7095 94.8915C28.9337 94.6672 29.1115 94.401 29.2328 94.108C29.3541 93.815 29.4165 93.501 29.4164 93.1839C29.4165 92.8668 29.354 92.5529 29.2327 92.2599C29.1114 91.967 28.9335 91.7008 28.7093 91.4766C28.4851 91.2524 28.2189 91.0745 27.926 90.9532C27.633 90.8319 27.3191 90.7695 27.002 90.7695H27.0026ZM80.1551 90.7695H58.9038C58.5868 90.7695 58.2728 90.8319 57.9798 90.9532C57.6869 91.0745 57.4207 91.2524 57.1965 91.4766C56.9723 91.7008 56.7944 91.967 56.6731 92.2599C56.5518 92.5529 56.4894 92.8668 56.4894 93.1839C56.4893 93.501 56.5517 93.815 56.673 94.108C56.7943 94.401 56.9722 94.6672 57.1964 94.8915C57.4206 95.1157 57.6868 95.2936 57.9797 95.4149C58.2727 95.5363 58.5867 95.5987 58.9038 95.5987H80.1548C80.7951 95.5985 81.4092 95.344 81.8619 94.8912C82.3147 94.4384 82.5691 93.8243 82.5692 93.1839C82.569 92.5436 82.3146 91.9296 81.8618 91.4769C81.4091 91.0241 80.7951 90.7697 80.1548 90.7695H80.1551Z" fill="url(#paint0_linear_929_4935)"/>
<path d="M154.373 0.322021H10.6284C4.76858 0.322021 0 5.08932 0 10.9504V127.794C0 133.654 4.76858 138.421 10.6284 138.421H19.7163C20.0334 138.421 20.3473 138.358 20.6403 138.237C20.9332 138.116 21.1994 137.938 21.4236 137.714C21.6478 137.49 21.8257 137.223 21.947 136.93C22.0683 136.637 22.1308 136.323 22.1307 136.006C22.1305 135.366 21.8761 134.752 21.4234 134.299C20.9706 133.847 20.3566 133.592 19.7163 133.592H10.6284C7.43115 133.592 4.83014 130.991 4.83014 127.794V118.633H92.8077V122.794H90.8931C88.2734 122.794 86.1435 124.925 86.1435 127.544V133.592H34.3981C33.7578 133.592 33.1438 133.846 32.6911 134.299C32.2383 134.752 31.9839 135.366 31.9837 136.006C31.9837 136.323 32.0461 136.637 32.1674 136.93C32.2887 137.223 32.4666 137.489 32.6908 137.713C32.915 137.938 33.1812 138.115 33.4741 138.237C33.7671 138.358 34.081 138.421 34.3981 138.42H57.6165V147.081H50.3252C45.4609 147.081 41.5047 151.039 41.5047 155.902V161.119C41.5047 163.338 43.3094 165.143 45.5289 165.143H119.288C121.507 165.143 123.313 163.338 123.313 161.119V155.903C123.313 151.04 119.356 147.082 114.492 147.082H107.2V144.029H151.843C154.462 144.029 156.591 141.899 156.591 139.279V138.143C161.298 137.05 164.817 132.827 164.817 127.794L164.999 10.9494C165.001 5.08932 160.233 0.322021 154.373 0.322021ZM90.9737 112.884V101.309H151.763V112.884H90.9737ZM97.6369 96.4784V91.3976H145.098V96.4784H97.6369ZM145.098 117.713V122.795H97.6372V117.713H145.098ZM62.4457 138.421H86.1435V139.281C86.1435 141.899 88.2737 144.03 90.8931 144.03H102.371V147.082H62.4457V138.421ZM114.493 151.913C116.693 151.913 118.483 153.702 118.483 155.903V160.315H46.3333V155.903C46.3333 153.702 48.1248 151.913 50.3252 151.913H114.493ZM151.763 139.199H90.9737V127.625H151.763V139.199ZM159.988 127.794C159.988 130.133 158.593 132.149 156.593 133.063V127.543C156.593 124.925 154.462 122.795 151.843 122.795H149.928V118.633H159.988V127.794ZM159.988 113.804H156.514C156.562 113.531 156.593 101.228 156.593 101.228C156.593 98.6086 154.462 96.4787 151.843 96.4787H149.928V91.3979H151.843C154.462 91.3979 156.593 89.2667 156.593 86.6483V74.912C156.593 72.2936 154.462 70.1624 151.843 70.1624H138.204C137.886 70.1624 137.572 70.2248 137.279 70.3462C136.986 70.4676 136.72 70.6456 136.496 70.8699C136.271 71.0943 136.093 71.3606 135.972 71.6537C135.851 71.9468 135.789 72.2609 135.789 72.5781C135.789 72.8952 135.851 73.2092 135.972 73.5022C136.094 73.7952 136.272 74.0614 136.496 74.2856C136.72 74.5098 136.986 74.6876 137.279 74.8089C137.572 74.9302 137.886 74.9926 138.204 74.9926H151.763V86.5677H90.9737V74.9926H123.178C123.495 74.9926 123.809 74.9302 124.102 74.8089C124.395 74.6875 124.661 74.5097 124.885 74.2855C125.109 74.0613 125.287 73.7951 125.409 73.5021C125.53 73.2092 125.592 72.8952 125.592 72.5781C125.592 72.261 125.53 71.9469 125.409 71.6538C125.288 71.3607 125.11 71.0944 124.886 70.87C124.661 70.6457 124.395 70.4677 124.102 70.3463C123.809 70.2249 123.495 70.1624 123.178 70.1624H90.8931C88.2734 70.1624 86.1435 72.2936 86.1435 74.912V86.6483C86.1435 89.2667 88.2737 91.3979 90.8931 91.3979H92.8077V96.4787H90.8931C88.2734 96.4787 86.1435 98.6099 86.1435 101.228C86.1435 101.228 86.1735 113.531 86.2228 113.804H4.83014V33.1707H159.988V113.804ZM159.988 28.3406H5.00803V10.9494C5.00803 7.75317 7.60872 5.15216 10.8063 5.15216H154.19C157.387 5.15216 159.988 7.75285 159.988 10.9504L159.988 28.3406Z" fill="url(#paint1_linear_929_4935)"/>
</g>
<defs>
<linearGradient id="paint0_linear_929_4935" x1="10.7229" y1="95.5987" x2="129.967" y2="87.0601" gradientUnits="userSpaceOnUse">
<stop stop-color="#F9F295"/>
<stop offset="0.348958" stop-color="#E0AA3E"/>
<stop offset="0.703125" stop-color="#FAF398"/>
<stop offset="1" stop-color="#B88A44"/>
</linearGradient>
<linearGradient id="paint1_linear_929_4935" x1="1.84401e-06" y1="165.144" x2="170.354" y2="159.41" gradientUnits="userSpaceOnUse">
<stop stop-color="#F9F295"/>
<stop offset="0.348958" stop-color="#E0AA3E"/>
<stop offset="0.703125" stop-color="#FAF398"/>
<stop offset="1" stop-color="#B88A44"/>
</linearGradient>
<clipPath id="clip0_929_4935">
<rect width="165" height="165" fill="white"/>
</clipPath>
</defs>
</svg>
