<svg width="43" height="57" viewBox="0 0 43 57" fill="none" xmlns="http://www.w3.org/2000/svg">
<path d="M20.3365 36.1504L11.9123 34.187L14.6784 11H41.4283V19.1653H23.3226L22.2853 28.1721C22.7883 27.8812 23.637 27.5384 24.8315 27.1436C26.0469 26.7281 27.388 26.5203 28.8549 26.5203C31.1181 26.5203 33.1194 26.8631 34.8587 27.5488C36.619 28.2136 38.1069 29.2005 39.3223 30.5095C40.5377 31.7977 41.4493 33.3871 42.057 35.2778C42.6857 37.1685 43 39.3293 43 41.7602C43 43.7132 42.6752 45.6039 42.0256 47.4322C41.3969 49.2398 40.4225 50.8708 39.1023 52.3252C37.803 53.7588 36.158 54.9015 34.1672 55.7534C32.1764 56.5845 29.8189 57 27.0947 57C25.062 57 23.0817 56.6883 21.1537 56.065C19.2258 55.4417 17.4865 54.5483 15.9358 53.3848C14.406 52.2005 13.1906 50.7773 12.2895 49.1152C11.4094 47.4322 10.9798 45.5519 11.0007 43.4743H21.6567C21.7195 44.5754 21.9815 45.5312 22.4425 46.3415C22.9035 47.1518 23.5217 47.7855 24.2971 48.2425C25.0934 48.6789 26.005 48.897 27.0318 48.897C28.0796 48.897 28.9492 48.6893 29.6408 48.2737C30.3323 47.8582 30.8772 47.2868 31.2753 46.5596C31.6735 45.8324 31.9564 45.0014 32.124 44.0664C32.2917 43.1107 32.3755 42.103 32.3755 41.0434C32.3755 39.9214 32.2498 38.9137 31.9983 38.0203C31.7678 37.1269 31.3906 36.3686 30.8667 35.7453C30.3428 35.1012 29.6617 34.6129 28.8235 34.2805C28.0062 33.9481 27.0213 33.7818 25.8688 33.7818C24.339 33.7818 23.134 34.0416 22.2539 34.561C21.3738 35.0804 20.7346 35.6102 20.3365 36.1504Z" fill="white" fill-opacity="0.2"/>
<path d="M15.3365 31.1504L6.9123 29.187L9.67845 6H36.4283V14.1653H18.3226L17.2853 23.1721C17.7883 22.8812 18.637 22.5384 19.8315 22.1436C21.0469 21.7281 22.388 21.5203 23.8549 21.5203C26.1181 21.5203 28.1194 21.8631 29.8587 22.5488C31.619 23.2136 33.1069 24.2005 34.3223 25.5095C35.5377 26.7977 36.4493 28.3871 37.057 30.2778C37.6857 32.1685 38 34.3293 38 36.7602C38 38.7132 37.6752 40.6039 37.0256 42.4322C36.3969 44.2398 35.4225 45.8708 34.1023 47.3252C32.803 48.7588 31.158 49.9015 29.1672 50.7534C27.1764 51.5845 24.8189 52 22.0947 52C20.062 52 18.0817 51.6883 16.1537 51.065C14.2258 50.4417 12.4865 49.5483 10.9358 48.3848C9.40602 47.2005 8.1906 45.7773 7.2895 44.1152C6.40937 42.4322 5.97978 40.5519 6.00073 38.4743H16.6567C16.7195 39.5754 16.9815 40.5312 17.4425 41.3415C17.9035 42.1518 18.5217 42.7855 19.2971 43.2425C20.0934 43.6789 21.005 43.897 22.0318 43.897C23.0796 43.897 23.9492 43.6892 24.6408 43.2737C25.3323 42.8582 25.8772 42.2868 26.2753 41.5596C26.6735 40.8324 26.9564 40.0014 27.124 39.0664C27.2917 38.1107 27.3755 37.103 27.3755 36.0434C27.3755 34.9214 27.2498 33.9137 26.9983 33.0203C26.7678 32.1269 26.3906 31.3686 25.8667 30.7453C25.3428 30.1012 24.6617 29.6129 23.8235 29.2805C23.0062 28.9481 22.0213 28.7818 20.8688 28.7818C19.339 28.7818 18.134 29.0416 17.2539 29.561C16.3738 30.0804 15.7346 30.6102 15.3365 31.1504Z" stroke="white" stroke-width="0.5"/>
<path d="M10.3365 26.1504L1.9123 24.187L4.67845 1H31.4283V9.16531H13.3226L12.2853 18.1721C12.7883 17.8812 13.637 17.5384 14.8315 17.1436C16.0469 16.7281 17.388 16.5203 18.8549 16.5203C21.1181 16.5203 23.1194 16.8631 24.8587 17.5488C26.619 18.2136 28.1069 19.2005 29.3223 20.5095C30.5377 21.7977 31.4493 23.3871 32.057 25.2778C32.6857 27.1685 33 29.3293 33 31.7602C33 33.7132 32.6752 35.6039 32.0256 37.4322C31.3969 39.2398 30.4225 40.8708 29.1023 42.3252C27.803 43.7588 26.158 44.9015 24.1672 45.7534C22.1764 46.5845 19.8189 47 17.0947 47C15.062 47 13.0817 46.6883 11.1537 46.065C9.22582 45.4417 7.4865 44.5483 5.93579 43.3848C4.40602 42.2005 3.1906 40.7773 2.2895 39.1152C1.40937 37.4322 0.979775 35.5519 1.00073 33.4743H11.6567C11.7195 34.5754 11.9815 35.5312 12.4425 36.3415C12.9035 37.1518 13.5217 37.7855 14.2971 38.2425C15.0934 38.6789 16.005 38.897 17.0318 38.897C18.0796 38.897 18.9492 38.6892 19.6408 38.2737C20.3323 37.8582 20.8772 37.2868 21.2753 36.5596C21.6735 35.8324 21.9564 35.0014 22.124 34.0664C22.2917 33.1107 22.3755 32.103 22.3755 31.0434C22.3755 29.9214 22.2498 28.9137 21.9983 28.0203C21.7678 27.1269 21.3906 26.3686 20.8667 25.7453C20.3428 25.1012 19.6617 24.6129 18.8235 24.2805C18.0062 23.9481 17.0213 23.7818 15.8688 23.7818C14.339 23.7818 13.134 24.0416 12.2539 24.561C11.3738 25.0804 10.7346 25.6102 10.3365 26.1504Z" stroke="url(#paint0_linear_1257_879)" stroke-width="2"/>
<defs>
<linearGradient id="paint0_linear_1257_879" x1="1" y1="1" x2="35.501" y2="2.95924" gradientUnits="userSpaceOnUse">
<stop stop-color="#FFF066"/>
<stop offset="1" stop-color="#FFB72D"/>
</linearGradient>
</defs>
</svg>
