<svg width="44" height="58" viewBox="0 0 44 58" fill="none" xmlns="http://www.w3.org/2000/svg">
<path d="M44 49.7265V58H11.9465V50.9993L26.7113 35.3433C28.0153 33.8371 29.0669 32.49 29.8662 31.302C30.6654 30.0928 31.2438 29.0002 31.6013 28.0244C31.9799 27.0485 32.1692 26.1681 32.1692 25.3832C32.1692 24.0467 31.9694 22.933 31.5698 22.042C31.1912 21.1298 30.6233 20.4403 29.8662 19.9736C29.13 19.5069 28.2151 19.2735 27.1214 19.2735C26.0277 19.2735 25.0707 19.5917 24.2505 20.2282C23.4302 20.8646 22.7887 21.7344 22.326 22.8375C21.8843 23.9406 21.6635 25.1817 21.6635 26.5606H11C11 23.7179 11.6836 21.1192 13.0507 18.7644C14.4388 16.4096 16.3633 14.5322 18.8241 13.132C21.2849 11.7107 24.1348 11 27.3738 11C30.76 11 33.5994 11.5304 35.892 12.5911C38.1845 13.6518 39.9092 15.1898 41.066 17.2051C42.2438 19.1993 42.8327 21.6071 42.8327 24.4286C42.8327 26.0408 42.5803 27.5895 42.0755 29.0745C41.5707 30.5595 40.8451 32.0339 39.8987 33.4976C38.9522 34.9402 37.7954 36.4252 36.4283 37.9526C35.0822 39.48 33.5468 41.1029 31.8222 42.8213L25.891 49.7265H44Z" fill="white" fill-opacity="0.2"/>
<path d="M39 44.7265V53H6.94646V45.9993L21.7113 30.3433C23.0153 28.8371 24.0669 27.49 24.8662 26.302C25.6654 25.0928 26.2438 24.0002 26.6013 23.0244C26.9799 22.0485 27.1692 21.1681 27.1692 20.3832C27.1692 19.0467 26.9694 17.933 26.5698 17.042C26.1912 16.1298 25.6233 15.4403 24.8662 14.9736C24.13 14.5069 23.2151 14.2735 22.1214 14.2735C21.0277 14.2735 20.0707 14.5917 19.2505 15.2282C18.4302 15.8646 17.7887 16.7344 17.326 17.8375C16.8843 18.9406 16.6635 20.1817 16.6635 21.5606H6C6 18.7179 6.68356 16.1192 8.05067 13.7644C9.43881 11.4096 11.3633 9.53216 13.8241 8.13202C16.2849 6.71067 19.1348 6 22.3738 6C25.76 6 28.5994 6.53035 30.892 7.59106C33.1845 8.65177 34.9092 10.1898 36.066 12.2051C37.2438 14.1993 37.8327 16.6071 37.8327 19.4286C37.8327 21.0408 37.5803 22.5895 37.0755 24.0745C36.5707 25.5595 35.8451 27.0339 34.8987 28.4976C33.9522 29.9402 32.7954 31.4252 31.4283 32.9526C30.0822 34.48 28.5468 36.1029 26.8222 37.8213L20.891 44.7265H39Z" stroke="white" stroke-width="0.5"/>
<path d="M34 39.7265V48H1.94646V40.9993L16.7113 25.3433C18.0153 23.8371 19.0669 22.49 19.8662 21.302C20.6654 20.0928 21.2438 19.0002 21.6013 18.0244C21.9799 17.0485 22.1692 16.1681 22.1692 15.3832C22.1692 14.0467 21.9694 12.933 21.5698 12.042C21.1912 11.1298 20.6233 10.4403 19.8662 9.97359C19.13 9.50688 18.2151 9.27353 17.1214 9.27353C16.0277 9.27353 15.0707 9.59174 14.2505 10.2282C13.4302 10.8646 12.7887 11.7344 12.326 12.8375C11.8843 13.9406 11.6635 15.1817 11.6635 16.5606H1C1 13.7179 1.68356 11.1192 3.05067 8.76439C4.43881 6.40961 6.36329 4.53216 8.82409 3.13202C11.2849 1.71067 14.1348 1 17.3738 1C20.76 1 23.5994 1.53035 25.892 2.59106C28.1845 3.65177 29.9092 5.1898 31.066 7.20515C32.2438 9.19928 32.8327 11.6071 32.8327 14.4286C32.8327 16.0408 32.5803 17.5895 32.0755 19.0745C31.5707 20.5595 30.8451 22.0339 29.8987 23.4976C28.9522 24.9402 27.7954 26.4252 26.4283 27.9526C25.0822 29.48 23.5468 31.1029 21.8222 32.8213L15.891 39.7265H34Z" stroke="url(#paint0_linear_1257_876)" stroke-width="2"/>
<defs>
<linearGradient id="paint0_linear_1257_876" x1="1" y1="1" x2="36.577" y2="3.03915" gradientUnits="userSpaceOnUse">
<stop stop-color="#FFF066"/>
<stop offset="1" stop-color="#FFB72D"/>
</linearGradient>
</defs>
</svg>
