<svg width="45" height="59" viewBox="0 0 45 59" fill="none" xmlns="http://www.w3.org/2000/svg">
<path d="M22.8856 31.0888H28.0009C29.311 31.0888 30.3819 30.8586 31.2136 30.3981C32.0662 29.9167 32.7004 29.2469 33.1163 28.3888C33.5321 27.5097 33.7401 26.4736 33.7401 25.2806C33.7401 24.3596 33.5425 23.5119 33.1474 22.7375C32.7732 21.963 32.1909 21.3456 31.4008 20.8851C30.6106 20.4037 29.6021 20.163 28.3752 20.163C27.5435 20.163 26.7325 20.3409 25.9423 20.6967C25.1522 21.0316 24.4972 21.513 23.9773 22.1409C23.4783 22.7689 23.2287 23.5328 23.2287 24.4329H12.6862C12.6862 21.8375 13.3932 19.6188 14.8072 17.7769C16.242 15.9141 18.1238 14.4908 20.4527 13.507C22.8025 12.5023 25.3289 12 28.0321 12C31.2552 12 34.0832 12.5023 36.5161 13.507C38.949 14.4908 40.8412 15.9559 42.1928 17.9025C43.5652 19.8281 44.2514 22.2142 44.2514 25.0608C44.2514 26.6306 43.8875 28.1062 43.1597 29.4876C42.4319 30.8691 41.413 32.0831 40.103 33.1296C38.793 34.1761 37.2543 35.0029 35.4868 35.6099C33.7401 36.1959 31.827 36.489 29.7476 36.489H22.8856V31.0888ZM22.8856 38.9693V33.6947H29.7476C32.0142 33.6947 34.0832 33.9564 35.9546 34.4796C37.8261 34.982 39.4376 35.7355 40.7892 36.7401C42.1408 37.7448 43.1805 38.9902 43.9083 40.4763C44.6361 41.9414 45 43.6264 45 45.5311C45 47.666 44.5737 49.5707 43.7212 51.2452C42.8686 52.9196 41.673 54.3324 40.1342 55.4836C38.5955 56.6348 36.7968 57.5139 34.7382 58.1209C32.6796 58.707 30.4442 59 28.0321 59C26.1399 59 24.2476 58.7488 22.3554 58.2465C20.4631 57.7232 18.7372 56.9279 17.1777 55.8604C15.6181 54.772 14.3601 53.3906 13.4036 51.7161C12.4679 50.0207 12 48.0009 12 45.6566H22.5425C22.5425 46.6195 22.8025 47.4986 23.3223 48.2939C23.8629 49.0684 24.5803 49.6858 25.4745 50.1463C26.3686 50.6068 27.3355 50.837 28.3752 50.837C29.6645 50.837 30.7561 50.5963 31.6503 50.1149C32.5652 49.6126 33.2618 48.9428 33.7401 48.1055C34.2183 47.2683 34.4575 46.3369 34.4575 45.3113C34.4575 43.7624 34.1975 42.5275 33.6777 41.6065C33.1786 40.6856 32.4405 40.0158 31.4631 39.5972C30.5066 39.1786 29.3526 38.9693 28.0009 38.9693H22.8856Z" fill="white" fill-opacity="0.2"/>
<path d="M17.8856 25.8388H17.6356V26.0888V28.4447V28.6947V31.489V31.739V33.9693V34.2193H17.8856H23.0009C24.3278 34.2193 25.4458 34.4249 26.3629 34.8262L26.3647 34.827C27.2911 35.2238 27.9861 35.855 28.4579 36.7257L28.4579 36.7257L28.46 36.7294C28.9511 37.5994 29.2075 38.7868 29.2075 40.3113C29.2075 41.2963 28.9783 42.1845 28.523 42.9815C28.0696 43.7752 27.4084 44.4133 26.5308 44.8953C25.6818 45.3522 24.6335 45.587 23.3752 45.587C22.374 45.587 21.4465 45.3657 20.5889 44.924C19.7298 44.4816 19.0451 43.8914 18.5295 43.154C18.038 42.4007 17.7925 41.5703 17.7925 40.6566V40.4066H17.5425H7H6.75V40.6566C6.75 43.0343 7.22469 45.0975 8.18469 46.8369L8.18651 46.8401C9.16113 48.5462 10.4443 49.9555 12.0346 51.0654L12.0365 51.0667C13.6197 52.1503 15.3709 52.9571 17.2888 53.4875L17.2912 53.4881C19.2037 53.9958 21.1175 54.25 23.0321 54.25C25.4645 54.25 27.7232 53.9545 29.8066 53.3614L29.8089 53.3607C31.8927 52.7463 33.7188 51.8548 35.284 50.6838C36.8527 49.5102 38.0736 48.068 38.944 46.3586C39.8167 44.6445 40.25 42.7 40.25 40.5311C40.25 38.5944 39.8799 36.8705 39.1325 35.3657C38.3869 33.8434 37.3212 32.5674 35.9384 31.5395C35.0341 30.8674 34.018 30.3069 32.8913 29.857C33.7475 29.4124 34.5369 28.9018 35.2591 28.3249C36.594 27.2585 37.6359 26.0183 38.3809 24.6042C39.1277 23.1866 39.5014 21.671 39.5014 20.0608C39.5014 17.1736 38.805 14.7345 37.3973 12.7587C36.0153 10.7688 34.0827 9.27535 31.6107 8.27561C29.1418 7.25619 26.2804 6.75 23.0321 6.75C20.2973 6.75 17.7374 7.25836 15.355 8.27693C12.9896 9.27615 11.0721 10.7249 9.60912 12.6243L9.60888 12.6247C8.15743 14.5154 7.4362 16.7892 7.4362 19.4329V19.6829H7.6862H18.2287H18.4787V19.4329C18.4787 18.583 18.7129 17.8764 19.1715 17.2984C19.6642 16.704 20.2854 16.2467 21.0399 15.9269L21.0399 15.927L21.045 15.9247C21.8043 15.5828 22.5804 15.413 23.3752 15.413C24.5708 15.413 25.5305 15.6476 26.2707 16.0986L26.2707 16.0986L26.2749 16.1011C27.0249 16.5382 27.5711 17.1195 27.9224 17.8463L27.9223 17.8463L27.9248 17.8511C28.3008 18.5883 28.4901 19.3967 28.4901 20.2806C28.4901 21.4444 28.2873 22.4421 27.8908 23.2808C27.4979 24.091 26.9004 24.7229 26.0918 25.1798C25.3086 25.6132 24.2834 25.8388 23.0009 25.8388H17.8856Z" stroke="white" stroke-width="0.5"/>
<path d="M12.8856 20.0888H11.8856V21.0888V22.6947V23.6947V26.489V27.489V28.9693V29.9693H12.8856H18.0009C19.2535 29.9693 20.2635 30.1637 21.0622 30.5133L21.0622 30.5133L21.0694 30.5164C21.843 30.8478 22.4085 31.3633 22.7985 32.083L22.8026 32.0906L22.8069 32.0981C23.2117 32.8153 23.4575 33.86 23.4575 35.3113C23.4575 36.1744 23.2582 36.933 22.8718 37.6095C22.4931 38.2725 21.9379 38.8155 21.1725 39.2364C20.4587 39.6198 19.5406 39.837 18.3752 39.837C17.4892 39.837 16.68 39.6423 15.9323 39.2573C15.1782 38.8689 14.5916 38.3607 14.1511 37.7341C13.7446 37.1071 13.5425 36.4227 13.5425 35.6566V34.6566H12.5425H2H1V35.6566C1 38.1345 1.49515 40.3278 2.52809 42.1993L2.53164 42.2057L2.53528 42.2121C3.5642 44.0133 4.92265 45.5061 6.60539 46.6804L6.60537 46.6805L6.61286 46.6856C8.26702 47.8178 10.0944 48.6588 12.0889 49.2103L12.0888 49.2104L12.0988 49.213C14.0719 49.7368 16.0503 50 18.0321 50C20.5253 50 22.8539 49.6971 25.012 49.0827L25.012 49.0827L25.021 49.0801C27.1804 48.4434 29.0889 47.5146 30.7333 46.2843C32.3918 45.0435 33.6886 43.513 34.6123 41.6989C35.5456 39.8658 36 37.8021 36 35.5311C36 33.4983 35.6112 31.6576 34.8051 30.0338C34.0059 28.403 32.8622 27.035 31.3858 25.9376C30.8054 25.5062 30.1838 25.1197 29.5221 24.7773C29.941 24.5067 30.3428 24.218 30.7272 23.9109C32.1368 22.7848 33.2478 21.4659 34.0445 19.9538C34.8484 18.4278 35.2514 16.7921 35.2514 15.0608C35.2514 12.0518 34.5244 9.45336 33.0107 7.32707C31.5373 5.20725 29.4839 3.62905 26.8944 2.58132C24.3173 1.51775 21.3561 1 18.0321 1C15.2025 1 12.5421 1.52641 10.0616 2.58668C7.58698 3.63233 5.56247 5.15746 4.01493 7.16669L4.01396 7.16795C2.45015 9.20503 1.6862 11.6446 1.6862 14.4329V15.4329H2.6862H13.2287H14.2287V14.4329C14.2287 13.7338 14.4166 13.1989 14.7542 12.7707C15.1654 12.2766 15.6854 11.8917 16.3326 11.6174L16.3428 11.6131L16.3529 11.6085C17.0196 11.3084 17.691 11.163 18.3752 11.163C19.4768 11.163 20.2903 11.3795 20.8805 11.7391L20.8888 11.7442L20.8973 11.7491C21.5268 12.116 21.965 12.589 22.2471 13.1726L22.2518 13.1823L22.2567 13.1919C22.5757 13.8173 22.7401 14.508 22.7401 15.2806C22.7401 16.3564 22.553 17.2391 22.2143 17.9569C21.8902 18.6236 21.4027 19.142 20.7256 19.5253C20.0879 19.8773 19.2002 20.0888 18.0009 20.0888H12.8856Z" stroke="url(#paint0_linear_1257_877)" stroke-width="2"/>
<defs>
<linearGradient id="paint0_linear_1257_877" x1="2" y1="2" x2="37.577" y2="4.03915" gradientUnits="userSpaceOnUse">
<stop stop-color="#FFF066"/>
<stop offset="1" stop-color="#FFB72D"/>
</linearGradient>
</defs>
</svg>
