<svg width="44" height="59" viewBox="0 0 44 59" fill="none" xmlns="http://www.w3.org/2000/svg">
<path d="M35.4258 12H37.0794V20.32H36.5282C34.548 20.32 32.6903 20.6025 30.955 21.1677C29.2402 21.7328 27.7295 22.591 26.423 23.7422C25.1368 24.8724 24.1263 26.3062 23.3914 28.0434C22.6769 29.7807 22.3196 31.8214 22.3196 34.1657V42.1717C22.3196 43.6368 22.4421 44.9136 22.6871 46.002C22.9321 47.0904 23.2995 47.9904 23.7895 48.7021C24.2794 49.4137 24.8817 49.9474 25.5962 50.3033C26.3311 50.6591 27.1783 50.837 28.1378 50.837C28.934 50.837 29.6689 50.6486 30.3426 50.2719C31.0163 49.8951 31.5981 49.3614 32.088 48.6707C32.5984 47.98 32.9863 47.1741 33.2517 46.2532C33.5171 45.3322 33.6498 44.3275 33.6498 43.2391C33.6498 42.067 33.5069 41.01 33.2211 40.0681C32.9352 39.1263 32.527 38.3309 31.9962 37.682C31.4858 37.0122 30.8632 36.5099 30.1282 36.175C29.4137 35.8192 28.6278 35.6413 27.7703 35.6413C26.4638 35.6413 25.3512 35.9448 24.4325 36.5518C23.5343 37.1378 22.8504 37.8913 22.3809 38.8123C21.9317 39.7332 21.7072 40.6647 21.7072 41.6065L19.2268 39.0321C19.186 37.7762 19.4207 36.4785 19.9311 35.1389C20.4415 33.7994 21.207 32.554 22.2278 31.4028C23.2485 30.2516 24.5244 29.3202 26.0555 28.6085C27.5866 27.8969 29.3627 27.5411 31.3837 27.5411C33.4252 27.5411 35.2217 27.9388 36.7732 28.7341C38.3451 29.5295 39.6619 30.6388 40.7234 32.0621C41.8054 33.4854 42.622 35.1494 43.1732 37.0541C43.7244 38.9588 44 41.0205 44 43.2391C44 45.4787 43.6121 47.5613 42.8364 49.487C42.081 51.3917 41.0093 53.0557 39.6211 54.479C38.2329 55.9022 36.5895 57.0116 34.6909 57.8069C32.7923 58.6023 30.6998 59 28.4134 59C26.0657 59 23.8915 58.5919 21.8909 57.7756C19.9107 56.9383 18.1754 55.7348 16.6852 54.165C15.2153 52.5743 14.0619 50.6382 13.2249 48.3567C12.4083 46.0753 12 43.4903 12 40.6019V36.7401C12 32.8261 12.6226 29.3411 13.8679 26.2852C15.1337 23.2293 16.8485 20.6444 19.0124 18.5304C21.1968 16.3955 23.6976 14.7733 26.5148 13.664C29.3321 12.5547 32.3024 12 35.4258 12Z" fill="white" fill-opacity="0.2"/>
<path d="M32.3294 6.75V7V15.32V15.57H32.0794H31.5282C29.5722 15.57 27.7409 15.849 26.0328 16.4053C24.349 16.9602 22.8684 17.8018 21.5882 18.9297L21.588 18.9299C20.3332 20.0327 19.3438 21.434 18.6221 23.1397C18.3426 23.8196 18.1183 24.5484 17.9498 25.3266C18.8137 24.5578 19.8144 23.9097 20.9501 23.3818C22.5201 22.6521 24.3333 22.2911 26.3837 22.2911C28.4578 22.2911 30.2944 22.6952 31.8867 23.5114C33.4927 24.3241 34.8389 25.4584 35.9232 26.9117C37.0253 28.3619 37.8546 30.054 38.4134 31.9846C38.9718 33.9144 39.25 35.9997 39.25 38.2391C39.25 40.5079 38.857 42.6223 38.0685 44.5797C37.3014 46.5139 36.2119 48.206 34.8 49.6535C33.3876 51.1017 31.7159 52.2297 29.7875 53.0375C27.8551 53.8471 25.7293 54.25 23.4134 54.25C21.0361 54.25 18.8296 53.8366 16.7965 53.007L16.7935 53.0058C14.7814 52.1551 13.0176 50.9317 11.5039 49.3371L11.5015 49.3347C10.0068 47.7169 8.83715 45.7514 7.99018 43.4428L7.9895 43.441C7.16158 41.1278 6.75 38.5137 6.75 35.6019V31.7401C6.75 27.7997 7.37688 24.2818 8.63643 21.1909L8.63697 21.1896C9.91439 18.1054 11.6474 15.4914 13.8377 13.3516L32.3294 6.75ZM32.3294 6.75H32.0794M32.3294 6.75H32.0794M32.0794 6.75H30.4258M32.0794 6.75H30.4258M30.4258 6.75C27.2721 6.75 24.2706 7.3102 21.4232 8.43138C18.5747 9.55303 16.0457 11.1936 13.8377 13.3516L30.4258 6.75ZM17.5696 37.1717V33.9967C17.5811 33.9724 17.5928 33.9481 17.6046 33.9239C18.0535 33.0442 18.7067 32.3238 19.5691 31.7611L19.5704 31.7604C20.441 31.1851 21.5035 30.8913 22.7703 30.8913C23.592 30.8913 24.3394 31.0615 25.0168 31.3988L25.0167 31.3989L25.0246 31.4025C25.7204 31.7196 26.3108 32.1951 26.7973 32.8336L26.7972 32.8336L26.8027 32.8403C27.3095 33.4599 27.7039 34.2248 27.9818 35.1407C28.2593 36.0551 28.3998 37.0871 28.3998 38.2391C28.3998 39.3072 28.2695 40.2883 28.0114 41.1839C27.7533 42.0796 27.3777 42.8579 26.887 43.5221L26.8869 43.5221L26.8841 43.526C26.4136 44.1894 25.8588 44.6968 25.2206 45.0537C24.5854 45.4089 23.8926 45.587 23.1378 45.587C22.21 45.587 21.4016 45.4152 20.7064 45.0789C20.0334 44.7435 19.4631 44.2396 18.9954 43.5603C18.5279 42.8814 18.1709 42.013 17.931 40.9471C17.6911 39.8813 17.5696 38.6237 17.5696 37.1717Z" stroke="white" stroke-width="0.5"/>
<path d="M28.0794 1V2V10.32V11.32H27.0794H26.5282C24.6449 11.32 22.8931 11.5884 21.2664 12.1179C19.6757 12.6424 18.2851 13.4342 17.0841 14.4925L17.0831 14.4933C15.9311 15.5057 15.0107 16.7977 14.33 18.3915C14.7452 18.1426 15.1799 17.9128 15.634 17.7017C17.3206 16.9178 19.2453 16.5411 21.3837 16.5411C23.5558 16.5411 25.5126 16.9647 27.227 17.843C28.9356 18.708 30.3701 19.9169 31.5223 21.4606C32.6851 22.9912 33.5526 24.7676 34.1338 26.7761C34.714 28.7812 35 30.9374 35 33.2391C35 35.5956 34.5915 37.8054 33.7649 39.8581C32.9624 41.8809 31.8197 43.657 30.3369 45.1772C28.8517 46.6999 27.0951 47.8839 25.0773 48.7293C23.0435 49.5813 20.8178 50 18.4134 50C15.9475 50 13.6437 49.5708 11.5131 48.7014L11.5015 48.6967L11.5015 48.6966C9.39363 47.8054 7.54428 46.5224 5.95993 44.8535L5.95064 44.8437L5.9507 44.8436C4.38107 43.1449 3.16295 41.0913 2.28607 38.7011L2.28334 38.6937L2.28337 38.6937C1.42145 36.2856 1 33.5837 1 30.6019V26.7401C1 22.7203 1.63957 19.1037 2.94188 15.9079L2.94404 15.9026L2.94405 15.9026C4.25662 12.7336 6.04414 10.0322 8.31347 7.81524L28.0794 1ZM28.0794 1H27.0794M28.0794 1H27.0794M27.0794 1H25.4258M27.0794 1H25.4258M25.4258 1C22.181 1 19.0861 1.5768 16.1484 2.73353C13.2061 3.89214 10.5925 5.58783 8.31364 7.81508L25.4258 1ZM13.3196 32.1717V29.175C13.7047 28.4569 14.252 27.8636 14.979 27.3893L14.979 27.3893L14.9838 27.3861C15.7104 26.906 16.6226 26.6413 17.7703 26.6413C18.4848 26.6413 19.1165 26.7883 19.6825 27.0702L19.6979 27.0778L19.7136 27.085C20.292 27.3486 20.7859 27.7437 21.2008 28.2881L21.2112 28.3018L21.2222 28.3152C21.657 28.8468 22.0098 29.5203 22.2641 30.3585C22.5165 31.1903 22.6498 32.1472 22.6498 33.2391C22.6498 34.2463 22.527 35.1566 22.2908 35.9763C22.0545 36.7961 21.7158 37.4918 21.2838 38.0764L21.278 38.0842L21.2724 38.0921C20.86 38.6736 20.3863 39.1017 19.8545 39.3991C19.3348 39.6897 18.7687 39.837 18.1378 39.837C17.3054 39.837 16.6132 39.6836 16.0369 39.4056C15.4886 39.1315 15.0139 38.7171 14.6131 38.135L13.7895 38.7021L14.6131 38.135C14.2132 37.5541 13.8874 36.7809 13.6627 35.7824C13.4381 34.7845 13.3196 33.5845 13.3196 32.1717Z" stroke="url(#paint0_linear_1257_880)" stroke-width="2"/>
<defs>
<linearGradient id="paint0_linear_1257_880" x1="2" y1="2" x2="36.5057" y2="3.91781" gradientUnits="userSpaceOnUse">
<stop stop-color="#FFF066"/>
<stop offset="1" stop-color="#FFB72D"/>
</linearGradient>
</defs>
</svg>
