<svg width="46" height="57" viewBox="0 0 46 57" fill="none" xmlns="http://www.w3.org/2000/svg">
<path d="M46 39.4141V47.4499H13.618L13 41.0831L31.0758 12H39.2949L30.3652 26.6188L22.9494 39.4141H46ZM41.4579 12V57H31.0449V12H41.4579Z" fill="white" fill-opacity="0.2"/>
<path d="M41.25 34.4141V34.1641H41H36.7079V7V6.75H36.4579H34.7406H34.2949H26.0758H26.0449H25.9369H25.7949V6.97835L7.78767 35.9511L7.74299 36.023L7.75117 36.1073L8.36915 42.474L8.39107 42.6999H8.61798H25.7949V52V52.25H26.0449H36.4579H36.7079V52V42.6999H41H41.25V42.4499V34.4141ZM25.7949 34.1641H18.3833L25.58 21.7467L25.7949 21.3948V34.1641Z" stroke="white" stroke-width="0.5"/>
<path d="M37 29.4141V28.4141H36H32.4579V2V1H31.4579H31.0776H29.2949H21.0758H21.0449H20.52H20.0449V1.76427L2.15068 30.5552L1.97197 30.8428L2.00468 31.1797L2.62266 37.5465L2.71034 38.4499H3.61798H20.0449V47V48H21.0449H31.4579H32.4579V47V38.4499H36H37V37.4499V29.4141ZM20.0449 28.4141H14.6848L20.0449 19.1656V28.4141Z" stroke="url(#paint0_linear_1165_897)" stroke-width="2"/>
<defs>
<linearGradient id="paint0_linear_1165_897" x1="3" y1="2" x2="38.5664" y2="4.12915" gradientUnits="userSpaceOnUse">
<stop stop-color="#FFF066"/>
<stop offset="1" stop-color="#FFB72D"/>
</linearGradient>
</defs>
</svg>
