<svg width="165" height="165" viewBox="0 0 165 165" fill="none" xmlns="http://www.w3.org/2000/svg">
<g clip-path="url(#clip0_929_4940)">
<path d="M90.0001 116.25C92.0711 116.25 93.75 114.571 93.75 112.5C93.75 110.429 92.0711 108.75 90.0001 108.75C87.9291 108.75 86.2502 110.429 86.2502 112.5C86.2502 114.571 87.9291 116.25 90.0001 116.25Z" fill="url(#paint0_linear_929_4940)"/>
<path d="M26.2501 138.75C28.3211 138.75 30 137.071 30 135C30 132.929 28.3211 131.25 26.2501 131.25C24.1791 131.25 22.5002 132.929 22.5002 135C22.5002 137.071 24.1791 138.75 26.2501 138.75Z" fill="url(#paint1_linear_929_4940)"/>
<path d="M153.75 14.9998H26.2502C19.8752 14.9998 15.0002 19.8747 15.0002 26.2497V63.7498C15.0002 65.9999 16.5004 67.4997 18.7501 67.4997C20.9999 67.4997 22.5 65.9996 22.5 63.7498V26.2501C22.5 24 24.0002 22.5002 26.2499 22.5002H153.75C156 22.5002 157.5 24.0003 157.5 26.2501V116.25C157.5 118.5 156 120 153.75 120H63.75C61.4999 120 60.0001 121.5 60.0001 123.75C60.0001 126 61.5003 127.5 63.75 127.5H71.2501V138.75C71.2501 141 69.75 142.5 67.5002 142.5H63.7503C61.5003 142.5 60.0004 144 60.0004 146.25C60.0004 148.499 61.5006 149.999 63.7503 149.999H116.25C118.5 149.999 120 148.499 120 146.25C120 144 118.5 142.5 116.25 142.5H112.5C110.25 142.5 108.751 140.999 108.751 138.75V127.5H153.75C160.125 127.5 165 122.625 165 116.25V26.2501C165 19.875 160.125 14.9998 153.75 14.9998ZM77.9999 142.5C78.3751 141.375 78.7499 140.25 78.7499 138.75V127.5H101.25V138.75C101.25 140.25 101.625 141.375 102 142.5H77.9999Z" fill="url(#paint2_linear_929_4940)"/>
<path d="M146.25 97.4997H63.7499C61.4999 97.4997 60.0001 98.9998 60.0001 101.25C60.0001 103.499 61.5002 104.999 63.7499 104.999H146.25C148.5 104.999 150 103.499 150 101.25C150 98.9998 148.5 97.4997 146.25 97.4997ZM41.25 74.9998H11.25C4.87491 74.9998 0 79.875 0 86.2497V138.75C0 145.125 4.87491 150 11.25 150H41.25C47.6251 150 52.5 145.125 52.5 138.75V86.2497C52.5 79.875 47.6251 74.9998 41.25 74.9998ZM44.9999 138.75C44.9999 141 43.4997 142.5 41.25 142.5H11.25C8.99991 142.5 7.50009 140.999 7.50009 138.75V86.2497C7.50009 83.9997 9.00023 82.4998 11.25 82.4998H41.25C43.5001 82.4998 44.9999 84 44.9999 86.2497V138.75Z" fill="url(#paint3_linear_929_4940)"/>
</g>
<defs>
<linearGradient id="paint0_linear_929_4940" x1="86.2502" y1="116.25" x2="93.9934" y2="115.989" gradientUnits="userSpaceOnUse">
<stop stop-color="#F9F295"/>
<stop offset="0.348958" stop-color="#E0AA3E"/>
<stop offset="0.703125" stop-color="#FAF398"/>
<stop offset="1" stop-color="#B88A44"/>
</linearGradient>
<linearGradient id="paint1_linear_929_4940" x1="22.5002" y1="138.75" x2="30.2434" y2="138.489" gradientUnits="userSpaceOnUse">
<stop stop-color="#F9F295"/>
<stop offset="0.348958" stop-color="#E0AA3E"/>
<stop offset="0.703125" stop-color="#FAF398"/>
<stop offset="1" stop-color="#B88A44"/>
</linearGradient>
<linearGradient id="paint2_linear_929_4940" x1="15.0002" y1="149.999" x2="169.828" y2="144.215" gradientUnits="userSpaceOnUse">
<stop stop-color="#F9F295"/>
<stop offset="0.348958" stop-color="#E0AA3E"/>
<stop offset="0.703125" stop-color="#FAF398"/>
<stop offset="1" stop-color="#B88A44"/>
</linearGradient>
<linearGradient id="paint3_linear_929_4940" x1="1.67638e-06" y1="150" x2="154.345" y2="139.621" gradientUnits="userSpaceOnUse">
<stop stop-color="#F9F295"/>
<stop offset="0.348958" stop-color="#E0AA3E"/>
<stop offset="0.703125" stop-color="#FAF398"/>
<stop offset="1" stop-color="#B88A44"/>
</linearGradient>
<clipPath id="clip0_929_4940">
<rect width="165" height="165" fill="white"/>
</clipPath>
</defs>
</svg>
