<svg width="165" height="165" viewBox="0 0 165 165" fill="none" xmlns="http://www.w3.org/2000/svg">
<g clip-path="url(#clip0_929_4856)">
<path d="M16.2747 107.476C15.6337 107.476 15.0189 107.731 14.5656 108.184C14.1123 108.638 13.8577 109.252 13.8577 109.893C13.8577 110.534 14.1123 111.149 14.5656 111.602C15.0189 112.056 15.6337 112.31 16.2747 112.31H37.3837C38.0247 112.31 38.6395 112.056 39.0928 111.602C39.5461 111.149 39.8007 110.534 39.8007 109.893C39.8007 109.252 39.5461 108.638 39.0928 108.184C38.6395 107.731 38.0247 107.476 37.3837 107.476H16.2747Z" fill="url(#paint0_linear_929_4856)"/>
<path d="M162.288 125.162L152.111 114.985L152.113 33.2016C152.113 30.9804 150.306 29.1731 148.085 29.1731L124.82 29.1715C115.661 20.4044 102.791 15.2625 89.9924 15.3057C76.5358 15.3057 64.2888 20.5794 55.2058 29.1667L32.7211 29.1644C32.0801 29.1644 31.4649 29.419 31.0116 29.8723C30.5583 30.3255 30.3036 30.9403 30.3036 31.5813C30.3035 32.2224 30.5581 32.8372 31.0114 33.2905C31.4646 33.7438 32.0794 33.9985 32.7205 33.9985L50.714 34.0005C49.3764 35.6406 48.1423 37.3624 47.0188 39.1559L4.83604 39.1533V33.9976L21.4409 33.9985C22.7757 33.9985 23.8579 32.9167 23.8579 31.5815C23.8579 30.2463 22.7761 29.1644 21.4409 29.1644L4.03003 29.1635C1.8086 29.1635 0.00161137 30.9705 0.00161137 33.1919L0 123.421C0 125.643 1.80699 127.45 4.02842 127.45L36.7805 127.452C38.1153 127.452 39.1975 126.37 39.1975 125.035C39.1975 123.7 38.1156 122.618 36.7805 122.618L4.83411 122.615L4.83604 43.9874L44.3423 43.99C42.7739 47.2336 41.5587 50.6363 40.7177 54.1397H16.436C15.7949 54.1397 15.1801 54.3943 14.7268 54.8476C14.2736 55.3009 14.0189 55.9157 14.0189 56.5567V75.8932C14.0189 76.5342 14.2736 77.149 14.7268 77.6023C15.1801 78.0556 15.7949 78.3102 16.436 78.3102H40.8373C41.4018 80.5595 42.1213 82.7669 42.9907 84.9168H16.2748C15.6338 84.9168 15.019 85.1715 14.5657 85.6248C14.1124 86.0781 13.8578 86.6928 13.8578 87.3339C13.8578 87.9749 14.1124 88.5897 14.5657 89.043C15.019 89.4963 15.6338 89.7509 16.2748 89.7509H45.2498C46.4483 91.9988 47.8142 94.1534 49.3359 96.1964H16.2748C15.6338 96.1964 15.019 96.4511 14.5657 96.9044C14.1124 97.3576 13.8578 97.9724 13.8578 98.6135C13.8578 99.2545 14.1124 99.8693 14.5657 100.323C15.019 100.776 15.6338 101.031 16.2748 101.031H53.4282C62.6574 110.655 75.637 116.656 89.9927 116.656C98.8565 116.656 107.436 114.364 114.992 110.072L119.825 114.905C120.255 115.335 120.765 115.677 121.328 115.909C121.89 116.142 122.493 116.261 123.101 116.26C124.16 116.26 125.218 115.898 126.075 115.178L133.521 122.624L48.0601 122.618C46.7252 122.618 45.643 123.7 45.643 125.035C45.643 126.37 46.7249 127.452 48.0601 127.452L58.6068 127.453L56.4875 135.184L52.3083 135.183C46.2998 135.183 41.4119 140.071 41.4119 146.079V147.268C41.4119 147.909 41.6665 148.524 42.1197 148.977C42.5729 149.43 43.1876 149.685 43.8286 149.685L108.282 149.694H108.283C108.924 149.694 109.538 149.439 109.992 148.986C110.445 148.533 110.7 147.918 110.7 147.277V146.089C110.7 140.08 105.812 135.193 99.8037 135.193L95.6248 135.192L93.5039 127.455L138.355 127.458L149.173 138.277C150.925 140.028 153.254 140.993 155.731 140.993C158.208 140.993 160.537 140.028 162.288 138.277C165.904 134.661 165.904 128.778 162.288 125.162ZM105.74 144.86L46.3707 144.851C46.9401 142.095 49.3856 140.017 52.3073 140.017L99.8027 140.027C102.725 140.027 105.171 142.104 105.74 144.86ZM90.6115 135.191L61.4995 135.185L63.6191 127.453L88.4909 127.455L90.6115 135.191ZM147.279 39.1626L132.989 39.1617C131.869 37.3682 130.639 35.6463 129.306 34.0059L147.279 34.0072V39.1626ZM18.853 73.4764V58.9741H39.804C39.4806 61.2958 39.318 63.6372 39.3174 65.9813C39.3174 68.5276 39.5082 71.0301 39.8727 73.4764H18.853ZM44.1515 65.9813C44.1515 40.7044 64.7158 20.1401 89.9927 20.1401C112.745 20.1401 131.794 36.4291 135.286 58.872C135.492 60.191 136.728 61.095 138.046 60.8884C138.36 60.8396 138.661 60.7295 138.932 60.5644C139.203 60.3993 139.439 60.1824 139.626 59.9261C139.813 59.6698 139.948 59.3792 140.023 59.0707C140.098 58.7623 140.112 58.4421 140.063 58.1285C139.297 53.2262 137.812 48.464 135.654 43.9961L147.279 43.9971L147.277 110.151L139.19 102.064C139.892 101.232 140.276 100.178 140.274 99.0898C140.274 97.8523 139.791 96.6885 138.916 95.8132L134.086 90.9823C137.739 84.5517 139.957 77.354 140.523 69.838C140.547 69.5214 140.508 69.2033 140.409 68.9018C140.31 68.6002 140.153 68.3211 139.946 68.0805C139.739 67.8398 139.486 67.6423 139.203 67.4991C138.92 67.356 138.611 67.2701 138.294 67.2462C136.964 67.1486 135.803 68.1438 135.703 69.4751C133.914 93.2212 113.836 111.822 89.9927 111.822C64.7158 111.823 44.1515 91.2582 44.1515 65.9813ZM119.172 107.416C123.928 104.062 128.074 99.9175 131.43 95.1635L135.356 99.0898L123.101 111.345L119.172 107.416ZM158.87 134.858C158.031 135.697 156.916 136.159 155.731 136.159C154.545 136.159 153.43 135.697 152.592 134.858L129.508 111.774L135.786 105.496L158.87 128.58C160.601 130.311 160.601 133.127 158.87 134.858Z" fill="url(#paint1_linear_929_4856)"/>
<path d="M89.9928 24.9578C67.3724 24.9578 48.9692 43.3609 48.9692 65.9813C48.9692 79.0463 55.2803 91.4467 65.8509 99.1523C66.9296 99.939 68.4417 99.7014 69.228 98.6228C70.0144 97.5441 69.7775 96.032 68.6985 95.2457C59.3719 88.4467 53.8033 77.5064 53.8033 65.981C53.8033 46.0261 70.0379 29.7915 89.9928 29.7915C109.948 29.7915 126.182 46.0261 126.182 65.981C126.182 85.9358 109.948 102.17 89.9928 102.17C85.8828 102.17 81.8515 101.487 78.0109 100.141C77.7114 100.036 77.3942 99.9904 77.0772 100.008C76.7603 100.025 76.4499 100.105 76.1638 100.243C75.8777 100.38 75.6215 100.573 75.4099 100.809C75.1982 101.046 75.0353 101.322 74.9303 101.622C74.7182 102.226 74.7551 102.891 75.0328 103.469C75.3105 104.046 75.8063 104.49 76.4112 104.702C80.767 106.23 85.3362 107.004 89.9928 107.004C112.613 107.004 131.016 88.6014 131.016 65.981C131.016 43.3606 112.613 24.9578 89.9928 24.9578Z" fill="url(#paint2_linear_929_4856)"/>
<path d="M91.1416 59.7377C91.7827 59.7377 92.3975 59.483 92.8508 59.0297C93.304 58.5765 93.5587 57.9617 93.5587 57.3206C93.5587 56.6796 93.304 56.0648 92.8508 55.6115C92.3975 55.1582 91.7827 54.9036 91.1416 54.9036H83.8431C83.2021 54.9036 82.5873 55.1582 82.134 55.6115C81.6807 56.0648 81.4261 56.6796 81.4261 57.3206V74.6419C81.4261 75.2829 81.6807 75.8977 82.134 76.351C82.5873 76.8043 83.2021 77.0589 83.8431 77.0589H91.1416C91.7827 77.0589 92.3975 76.8043 92.8508 76.351C93.304 75.8977 93.5587 75.2829 93.5587 74.6419C93.5587 74.0008 93.304 73.3861 92.8508 72.9328C92.3975 72.4795 91.7827 72.2248 91.1416 72.2248H86.2602V68.3985H90.6034C91.2445 68.3985 91.8593 68.1438 92.3126 67.6905C92.7659 67.2372 93.0205 66.6225 93.0205 65.9814C93.0205 65.3404 92.7659 64.7256 92.3126 64.2723C91.8593 63.819 91.2445 63.5644 90.6034 63.5644H86.2602V59.7377H91.1416ZM67.9798 72.3048C66.3069 72.3048 64.6991 71.6328 63.6791 70.5074C63.2486 70.0324 62.6471 69.7479 62.0068 69.7164C61.3665 69.6849 60.7399 69.909 60.2649 70.3395C59.7899 70.77 59.5054 71.3716 59.4739 72.0118C59.4424 72.6521 59.6665 73.2787 60.097 73.7537C62.0468 75.9049 64.9198 77.1389 67.9795 77.1389C71.7759 77.1389 74.9654 74.7076 75.5636 71.3579C76.0151 68.8281 74.8787 65.5277 70.3337 63.8515C68.8735 63.3198 66.4784 62.4464 65.5679 61.9346C65.3133 61.796 65.2031 61.5472 65.2395 61.195C65.2901 60.7071 65.6537 60.0922 66.5231 59.8302C68.8616 59.1263 71.0514 60.845 71.1204 60.9001C71.6117 61.3071 72.244 61.5033 72.8794 61.4458C73.5148 61.3884 74.1017 61.0819 74.512 60.5933C74.7162 60.3503 74.8706 60.0695 74.9663 59.7669C75.062 59.4642 75.0971 59.1457 75.0697 58.8294C75.0423 58.5132 74.9529 58.2055 74.8065 57.9238C74.6602 57.6422 74.4598 57.3921 74.2168 57.1879C74.0479 57.0461 70.0227 53.727 65.1287 55.2014C62.5392 55.9813 60.6955 58.1386 60.4306 60.6974C60.1924 63.0004 61.2746 65.1013 63.2556 66.1799C64.2514 66.7542 66.5354 67.6199 68.6605 68.3869C69.2157 68.5915 71.0111 69.3498 70.8042 70.5084C70.6476 71.3914 69.5477 72.3048 67.9798 72.3048ZM121.25 65.9814C121.25 59.8292 116.245 54.824 110.093 54.824C103.94 54.824 98.9352 59.8292 98.9352 65.9814C98.9352 72.1336 103.94 77.1389 110.093 77.1389C116.245 77.1389 121.25 72.1336 121.25 65.9814ZM103.769 65.9814C103.769 62.4947 106.606 59.6581 110.093 59.6581C113.579 59.6581 116.416 62.4947 116.416 65.9814C116.416 69.4681 113.579 72.3048 110.093 72.3048C106.606 72.3048 103.769 69.4681 103.769 65.9814Z" fill="url(#paint3_linear_929_4856)"/>
</g>
<defs>
<linearGradient id="paint0_linear_929_4856" x1="13.8577" y1="112.31" x2="39.8274" y2="107.624" gradientUnits="userSpaceOnUse">
<stop stop-color="#F9F295"/>
<stop offset="0.348958" stop-color="#E0AA3E"/>
<stop offset="0.703125" stop-color="#FAF398"/>
<stop offset="1" stop-color="#B88A44"/>
</linearGradient>
<linearGradient id="paint1_linear_929_4856" x1="1.84402e-06" y1="149.694" x2="170.258" y2="142.666" gradientUnits="userSpaceOnUse">
<stop stop-color="#F9F295"/>
<stop offset="0.348958" stop-color="#E0AA3E"/>
<stop offset="0.703125" stop-color="#FAF398"/>
<stop offset="1" stop-color="#B88A44"/>
</linearGradient>
<linearGradient id="paint2_linear_929_4856" x1="48.9692" y1="107.005" x2="133.679" y2="104.156" gradientUnits="userSpaceOnUse">
<stop stop-color="#F9F295"/>
<stop offset="0.348958" stop-color="#E0AA3E"/>
<stop offset="0.703125" stop-color="#FAF398"/>
<stop offset="1" stop-color="#B88A44"/>
</linearGradient>
<linearGradient id="paint3_linear_929_4856" x1="59.4709" y1="77.1389" x2="122.779" y2="71.2459" gradientUnits="userSpaceOnUse">
<stop stop-color="#F9F295"/>
<stop offset="0.348958" stop-color="#E0AA3E"/>
<stop offset="0.703125" stop-color="#FAF398"/>
<stop offset="1" stop-color="#B88A44"/>
</linearGradient>
<clipPath id="clip0_929_4856">
<rect width="165" height="165" fill="white"/>
</clipPath>
</defs>
</svg>
