<svg width="165" height="165" viewBox="0 0 165 165" fill="none" xmlns="http://www.w3.org/2000/svg">
<path d="M59.9084 127.909H9.72348C8.1848 127.957 6.65684 127.637 5.26711 126.975C3.87738 126.312 2.66617 125.327 1.73454 124.102C0.840068 122.791 0.271912 121.286 0.0774601 119.711C-0.116991 118.137 0.0679001 116.538 0.61671 115.05L10.0752 86.5022C10.4007 85.5174 11.1041 84.7023 12.0306 84.2361C12.9571 83.7699 14.0308 83.6909 15.0156 84.0164C16.0003 84.3418 16.8155 85.0452 17.2816 85.9717C17.7478 86.8982 17.8269 87.9719 17.5014 88.9567L8.04283 117.504C7.89401 117.818 7.81681 118.161 7.81681 118.509C7.81681 118.856 7.89401 119.199 8.04283 119.513C8.25828 119.727 8.51898 119.89 8.80577 119.991C9.09256 120.091 9.39813 120.125 9.70003 120.092H59.9084C60.945 120.092 61.9392 120.503 62.6722 121.236C63.4051 121.969 63.8169 122.964 63.8169 124C63.8169 125.037 63.4051 126.031 62.6722 126.764C61.9392 127.497 60.945 127.909 59.9084 127.909ZM140.58 84.6026C140.163 84.602 139.749 84.5361 139.352 84.4072C138.369 84.0806 137.555 83.3767 137.09 82.4502C136.626 81.5237 136.548 80.4506 136.874 79.4669L156.956 18.5727C157.558 16.7435 156.901 15.9696 155.276 15.9696L46.6899 15.8914C45.202 16.0087 43.7777 16.5453 42.5823 17.4391C41.3869 18.3328 40.4694 19.5472 39.9361 20.9412L32.1973 44.4703C32.042 44.9638 31.7903 45.4216 31.4567 45.8171C31.1231 46.2126 30.7144 46.5379 30.2541 46.7742C29.7939 47.0105 29.2913 47.1531 28.7755 47.1937C28.2597 47.2342 27.741 47.172 27.2494 47.0106C26.7579 46.8491 26.3033 46.5917 25.912 46.2532C25.5207 45.9148 25.2005 45.502 24.97 45.0388C24.7394 44.5756 24.6031 44.0713 24.569 43.555C24.5349 43.0388 24.6036 42.5209 24.7712 42.0314L32.51 18.5023C33.5694 15.5501 35.4853 12.9809 38.0126 11.1234C40.5399 9.2658 43.5639 8.20425 46.6978 8.07446L155.283 8.15263C156.821 8.10678 158.346 8.42824 159.735 9.09032C161.123 9.7524 162.333 10.736 163.264 11.9595C164.159 13.2714 164.727 14.778 164.922 16.3539C165.116 17.9298 164.931 19.5294 164.382 21.0194L144.293 81.9214C144.034 82.7021 143.537 83.3815 142.87 83.8628C142.203 84.3442 141.402 84.6031 140.58 84.6026ZM18.9475 76.004C18.3294 76.0031 17.7204 75.8556 17.1704 75.5737C16.6203 75.2918 16.145 74.8835 15.7834 74.3823C15.4218 73.881 15.1842 73.3012 15.0901 72.6903C14.9961 72.0795 15.0482 71.455 15.2423 70.8682L19.6198 57.6575C19.7698 57.1569 20.0187 56.6915 20.3517 56.2888C20.6848 55.8861 21.0952 55.5542 21.5587 55.3129C22.0223 55.0716 22.5295 54.9256 23.0504 54.8837C23.5713 54.8418 24.0953 54.9048 24.5915 55.069C25.0876 55.2332 25.5458 55.4951 25.9389 55.8395C26.332 56.1838 26.6521 56.6035 26.8802 57.0736C27.1083 57.5438 27.2398 58.055 27.2669 58.5769C27.2941 59.0987 27.2162 59.6208 27.0381 60.1121L22.6606 73.3227C22.4024 74.1034 21.9045 74.7828 21.2379 75.2642C20.5713 75.7456 19.7698 76.0044 18.9475 76.004Z" fill="url(#paint0_linear_929_4951)"/>
<path d="M155.26 40.0145L30.845 39.952C29.8084 39.952 28.8143 39.5402 28.0813 38.8072C27.3483 38.0742 26.9365 37.0801 26.9365 36.0435C26.9365 35.0069 27.3483 34.0128 28.0813 33.2798C28.8143 32.5468 29.8084 32.135 30.845 32.135L155.252 32.1975C156.289 32.1975 157.283 32.6093 158.016 33.3423C158.749 34.0753 159.161 35.0694 159.161 36.106C159.161 37.1426 158.749 38.1368 158.016 38.8697C157.283 39.6027 156.289 40.0145 155.252 40.0145H155.26Z" fill="url(#paint1_linear_929_4951)"/>
<path d="M123.073 26.7573C125.062 25.1949 125.761 22.7639 124.633 21.3277C123.506 19.8914 120.978 19.9936 118.989 21.556C116.999 23.1184 116.3 25.5494 117.428 26.9857C118.556 28.4219 121.083 28.3197 123.073 26.7573Z" fill="url(#paint2_linear_929_4951)"/>
<path d="M123.073 26.7573C125.062 25.1949 125.761 22.7639 124.633 21.3277C123.506 19.8914 120.978 19.9936 118.989 21.556C116.999 23.1184 116.3 25.5494 117.428 26.9857C118.556 28.4219 121.083 28.3197 123.073 26.7573Z" fill="url(#paint3_linear_929_4951)"/>
<path d="M135.195 26.7605C137.185 25.198 137.883 22.7671 136.755 21.3308C135.628 19.8945 133.1 19.9968 131.111 21.5592C129.121 23.1216 128.422 25.5525 129.55 26.9888C130.678 28.4251 133.205 28.3229 135.195 26.7605Z" fill="url(#paint4_linear_929_4951)"/>
<path d="M147.306 26.7541C149.295 25.1917 149.994 22.7608 148.866 21.3245C147.738 19.8882 145.211 19.9904 143.221 21.5528C141.232 23.1152 140.533 25.5462 141.661 26.9825C142.789 28.4188 145.316 28.3165 147.306 26.7541Z" fill="url(#paint5_linear_929_4951)"/>
<path d="M158.058 142.269H62.8241C62.0249 142.268 61.2451 142.023 60.5896 141.566C59.9341 141.109 59.4344 140.462 59.1579 139.712C56.9966 133.825 55.9008 127.599 55.9217 121.327C55.9217 106.862 61.6677 92.99 71.8958 82.762C82.1238 72.5339 95.996 66.7878 110.461 66.7878C124.925 66.7878 138.798 72.5339 149.026 82.762C159.254 92.99 165 106.862 165 121.327C165.011 127.599 163.91 133.824 161.748 139.712C161.47 140.466 160.967 141.116 160.307 141.573C159.646 142.03 158.861 142.273 158.058 142.269ZM65.6304 134.452H155.244C156.522 130.194 157.167 125.772 157.159 121.327C157.159 108.935 152.237 97.0515 143.475 88.2894C134.713 79.5273 122.829 74.6048 110.437 74.6048C98.0458 74.6048 86.1619 79.5273 77.3998 88.2894C68.6377 97.0515 63.7152 108.935 63.7152 121.327C63.7107 125.772 64.3559 130.193 65.6304 134.452Z" fill="url(#paint6_linear_929_4951)"/>
<path d="M110.438 80.8271C109.401 80.8271 108.407 80.4154 107.674 79.6824C106.941 78.9494 106.529 77.9553 106.529 76.9187V70.6651C106.529 69.6285 106.941 68.6343 107.674 67.9014C108.407 67.1684 109.401 66.7566 110.438 66.7566C111.475 66.7566 112.469 67.1684 113.202 67.9014C113.935 68.6343 114.346 69.6285 114.346 70.6651V76.9187C114.346 77.9553 113.935 78.9494 113.202 79.6824C112.469 80.4154 111.475 80.8271 110.438 80.8271ZM141.823 93.8268C141.051 93.8266 140.296 93.5976 139.653 93.1686C139.011 92.7396 138.51 92.1299 138.214 91.4164C137.918 90.703 137.84 89.9178 137.99 89.1601C138.14 88.4023 138.511 87.7059 139.056 87.1589L143.465 82.7579C144.202 82.046 145.189 81.652 146.214 81.6609C147.239 81.6698 148.219 82.0809 148.944 82.8055C149.668 83.5302 150.079 84.5105 150.088 85.5353C150.097 86.5601 149.703 87.5474 148.991 88.2845L144.582 92.6855C143.85 93.4161 142.858 93.8266 141.823 93.8268ZM161.053 125.22H154.799C153.763 125.22 152.769 124.808 152.036 124.075C151.303 123.342 150.891 122.348 150.891 121.311C150.891 120.275 151.303 119.281 152.036 118.548C152.769 117.815 153.763 117.403 154.799 117.403H161.053C162.089 117.403 163.084 117.815 163.817 118.548C164.55 119.281 164.961 120.275 164.961 121.311C164.961 122.348 164.55 123.342 163.817 124.075C163.084 124.808 162.089 125.22 161.053 125.22ZM66.0844 125.22H59.8308C58.7943 125.22 57.8001 124.808 57.0671 124.075C56.3341 123.342 55.9224 122.348 55.9224 121.311C55.9224 120.275 56.3341 119.281 57.0671 118.548C57.8001 117.815 58.7943 117.403 59.8308 117.403H66.0844C67.121 117.403 68.1152 117.815 68.8481 118.548C69.5811 119.281 69.9929 120.275 69.9929 121.311C69.9929 122.348 69.5811 123.342 68.8481 124.075C68.1152 124.808 67.121 125.22 66.0844 125.22ZM79.045 93.8268C78.0104 93.8266 77.0181 93.4161 76.2856 92.6855L71.8846 88.2845C71.1727 87.5474 70.7787 86.5601 70.7876 85.5353C70.7965 84.5105 71.2076 83.5302 71.9322 82.8055C72.6569 82.0809 73.6372 81.6698 74.662 81.6609C75.6868 81.652 76.6741 82.046 77.4112 82.7579L81.8122 87.1589C82.3575 87.7059 82.7285 88.4023 82.8784 89.1601C83.0282 89.9178 82.9502 90.703 82.6541 91.4164C82.358 92.1299 81.8572 92.7396 81.2148 93.1686C80.5725 93.5976 79.8174 93.8266 79.045 93.8268ZM110.438 131.442C108.428 131.442 106.463 130.846 104.792 129.729C103.121 128.613 101.819 127.026 101.049 125.169C100.28 123.312 100.079 121.269 100.471 119.297C100.863 117.326 101.831 115.516 103.252 114.094C104.673 112.673 106.484 111.705 108.455 111.313C110.427 110.921 112.47 111.122 114.327 111.891C116.184 112.661 117.771 113.963 118.887 115.634C120.004 117.305 120.6 119.27 120.6 121.28C120.6 123.975 119.529 126.56 117.624 128.466C115.718 130.371 113.133 131.442 110.438 131.442ZM110.438 118.99C109.974 118.99 109.521 119.127 109.135 119.385C108.749 119.643 108.449 120.009 108.271 120.437C108.094 120.866 108.047 121.337 108.138 121.792C108.228 122.247 108.452 122.665 108.78 122.993C109.108 123.321 109.526 123.544 109.98 123.635C110.435 123.725 110.907 123.679 111.335 123.501C111.764 123.324 112.13 123.023 112.388 122.638C112.645 122.252 112.783 121.799 112.783 121.335C112.783 121.027 112.722 120.722 112.605 120.437C112.487 120.153 112.314 119.894 112.096 119.676C111.878 119.459 111.62 119.286 111.335 119.168C111.051 119.05 110.746 118.99 110.438 118.99Z" fill="url(#paint7_linear_929_4951)"/>
<path d="M115.667 121.945C114.818 121.946 113.991 121.671 113.312 121.161C112.633 120.651 112.138 119.934 111.903 119.117C111.668 118.301 111.706 117.431 112.01 116.637C112.314 115.844 112.868 115.172 113.588 114.722L136.257 100.495C136.692 100.222 137.177 100.037 137.684 99.9514C138.19 99.8657 138.709 99.8806 139.21 99.9953C139.711 100.11 140.184 100.322 140.603 100.62C141.022 100.917 141.378 101.295 141.651 101.73C141.924 102.165 142.109 102.65 142.194 103.157C142.28 103.663 142.265 104.182 142.15 104.683C142.036 105.183 141.823 105.657 141.526 106.076C141.228 106.494 140.851 106.851 140.416 107.124L117.707 121.35C117.094 121.731 116.389 121.936 115.667 121.945ZM42.1955 91.6225H4.3301C3.29351 91.6225 2.29937 91.2108 1.56638 90.4778C0.833401 89.7448 0.421615 88.7506 0.421615 87.714C0.421615 86.6775 0.833401 85.6833 1.56638 84.9503C2.29937 84.2173 3.29351 83.8056 4.3301 83.8056H42.1955C43.2321 83.8056 44.2263 84.2173 44.9592 84.9503C45.6922 85.6833 46.104 86.6775 46.104 87.714C46.104 88.7506 45.6922 89.7448 44.9592 90.4778C44.2263 91.2108 43.2321 91.6225 42.1955 91.6225ZM76.8403 62.7935H3.93143C2.89484 62.7935 1.9007 62.3818 1.16772 61.6488C0.434735 60.9158 0.0229492 59.9216 0.0229492 58.885C0.0229492 57.8485 0.434735 56.8543 1.16772 56.1213C1.9007 55.3883 2.89484 54.9766 3.93143 54.9766H76.8403C77.8769 54.9766 78.8711 55.3883 79.6041 56.1213C80.337 56.8543 80.7488 57.8485 80.7488 58.885C80.7488 59.9216 80.337 60.9158 79.6041 61.6488C78.8711 62.3818 77.8769 62.7935 76.8403 62.7935ZM42.1955 142.269H12.1471C11.1105 142.269 10.1163 141.857 9.38336 141.124C8.65037 140.391 8.23859 139.397 8.23859 138.36C8.23859 137.324 8.65037 136.329 9.38336 135.596C10.1163 134.864 11.1105 134.452 12.1471 134.452H42.1955C43.2321 134.452 44.2263 134.864 44.9592 135.596C45.6922 136.329 46.104 137.324 46.104 138.36C46.104 139.397 45.6922 140.391 44.9592 141.124C44.2263 141.857 43.2321 142.269 42.1955 142.269ZM104.208 156.926H98.2119C97.1753 156.926 96.1812 156.514 95.4482 155.781C94.7152 155.048 94.3035 154.054 94.3035 153.017C94.3035 151.98 94.7152 150.986 95.4482 150.253C96.1812 149.52 97.1753 149.109 98.2119 149.109H104.208C105.244 149.109 106.238 149.52 106.971 150.253C107.704 150.986 108.116 151.98 108.116 153.017C108.116 154.054 107.704 155.048 106.971 155.781C106.238 156.514 105.244 156.926 104.208 156.926ZM84.4306 156.926H53.2487C52.2121 156.926 51.218 156.514 50.485 155.781C49.752 155.048 49.3402 154.054 49.3402 153.017C49.3402 151.98 49.752 150.986 50.485 150.253C51.218 149.52 52.2121 149.109 53.2487 149.109H84.4306C85.4672 149.109 86.4614 149.52 87.1943 150.253C87.9273 150.986 88.3391 151.98 88.3391 153.017C88.3391 154.054 87.9273 155.048 87.1943 155.781C86.4614 156.514 85.4672 156.926 84.4306 156.926Z" fill="url(#paint8_linear_929_4951)"/>
<defs>
<linearGradient id="paint0_linear_929_4951" x1="0.00244325" y1="127.913" x2="170.179" y2="120.036" gradientUnits="userSpaceOnUse">
<stop stop-color="#F9F295"/>
<stop offset="0.348958" stop-color="#E0AA3E"/>
<stop offset="0.703125" stop-color="#FAF398"/>
<stop offset="1" stop-color="#B88A44"/>
</linearGradient>
<linearGradient id="paint1_linear_929_4951" x1="26.9365" y1="40.0145" x2="130.605" y2="-18.4766" gradientUnits="userSpaceOnUse">
<stop stop-color="#F9F295"/>
<stop offset="0.348958" stop-color="#E0AA3E"/>
<stop offset="0.703125" stop-color="#FAF398"/>
<stop offset="1" stop-color="#B88A44"/>
</linearGradient>
<linearGradient id="paint2_linear_929_4951" x1="119.47" y1="29.5863" x2="126.63" y2="23.4046" gradientUnits="userSpaceOnUse">
<stop stop-color="#F9F295"/>
<stop offset="0.348958" stop-color="#E0AA3E"/>
<stop offset="0.703125" stop-color="#FAF398"/>
<stop offset="1" stop-color="#B88A44"/>
</linearGradient>
<linearGradient id="paint3_linear_929_4951" x1="119.47" y1="29.5863" x2="126.63" y2="23.4046" gradientUnits="userSpaceOnUse">
<stop stop-color="#F9F295"/>
<stop offset="0.348958" stop-color="#E0AA3E"/>
<stop offset="0.703125" stop-color="#FAF398"/>
<stop offset="1" stop-color="#B88A44"/>
</linearGradient>
<linearGradient id="paint4_linear_929_4951" x1="131.592" y1="29.5895" x2="138.752" y2="23.4077" gradientUnits="userSpaceOnUse">
<stop stop-color="#F9F295"/>
<stop offset="0.348958" stop-color="#E0AA3E"/>
<stop offset="0.703125" stop-color="#FAF398"/>
<stop offset="1" stop-color="#B88A44"/>
</linearGradient>
<linearGradient id="paint5_linear_929_4951" x1="143.703" y1="29.5831" x2="150.863" y2="23.4014" gradientUnits="userSpaceOnUse">
<stop stop-color="#F9F295"/>
<stop offset="0.348958" stop-color="#E0AA3E"/>
<stop offset="0.703125" stop-color="#FAF398"/>
<stop offset="1" stop-color="#B88A44"/>
</linearGradient>
<linearGradient id="paint6_linear_929_4951" x1="55.9214" y1="142.269" x2="168.402" y2="136.803" gradientUnits="userSpaceOnUse">
<stop stop-color="#F9F295"/>
<stop offset="0.348958" stop-color="#E0AA3E"/>
<stop offset="0.703125" stop-color="#FAF398"/>
<stop offset="1" stop-color="#B88A44"/>
</linearGradient>
<linearGradient id="paint7_linear_929_4951" x1="55.9224" y1="131.442" x2="168.267" y2="125.075" gradientUnits="userSpaceOnUse">
<stop stop-color="#F9F295"/>
<stop offset="0.348958" stop-color="#E0AA3E"/>
<stop offset="0.703125" stop-color="#FAF398"/>
<stop offset="1" stop-color="#B88A44"/>
</linearGradient>
<linearGradient id="paint8_linear_929_4951" x1="0.0229508" y1="156.926" x2="146.708" y2="150.045" gradientUnits="userSpaceOnUse">
<stop stop-color="#F9F295"/>
<stop offset="0.348958" stop-color="#E0AA3E"/>
<stop offset="0.703125" stop-color="#FAF398"/>
<stop offset="1" stop-color="#B88A44"/>
</linearGradient>
</defs>
</svg>
