<svg width="165" height="165" viewBox="0 0 165 165" fill="none" xmlns="http://www.w3.org/2000/svg">
<path d="M97.2843 0C97.4551 0.113799 97.6376 0.208873 97.8286 0.283586C104.455 1.97221 108.252 6.78459 108.269 13.6809C108.304 26.3005 108.269 38.9201 108.269 51.544C108.269 54.9814 108.269 58.4188 108.269 61.8562C108.269 63.88 107.378 65.0143 105.873 65.0014C104.369 64.9885 103.465 63.8284 103.465 61.8218C103.465 45.8722 103.465 29.9212 103.465 13.9688C103.465 11.5626 102.955 9.39702 101.322 7.58379C99.9373 6.04984 98.2058 5.00573 96.1785 4.92409C92.7712 4.778 89.3552 4.88542 85.8365 4.88542C85.4764 6.70725 85.1293 8.48181 84.7821 10.2564C83.6721 15.9109 79.3647 19.6534 73.6386 19.6878C63.0008 19.7537 52.3616 19.7537 41.721 19.6878C36.0206 19.6534 31.6661 15.8679 30.5775 10.2349C30.2431 8.499 29.9103 6.75594 29.5788 5.00573C25.8715 5.00573 22.1641 4.65769 18.5596 5.10026C14.3979 5.61587 11.9163 9.16929 11.9121 13.6637C11.9121 31.4408 11.9121 49.218 11.9121 66.9951C11.9121 94.8682 12.0021 122.741 11.8435 150.614C11.8092 156.63 16.0309 160.261 21.354 160.226C45.7841 160.076 70.2141 160.166 94.6441 160.158C98.973 160.158 102.269 157.747 103.216 153.824C103.42 152.771 103.503 151.699 103.465 150.627C103.465 137.685 103.465 124.742 103.465 111.797C103.465 108.541 104.056 107.956 107.301 107.956H112.838C112.838 107.097 112.838 106.306 112.838 105.529C112.937 100.828 116.087 97.6826 120.759 97.6611C124.766 97.6397 128.778 97.6611 132.789 97.6611H134.324C134.684 94.8339 135.348 93.8757 136.848 93.8628C138.348 93.8499 139.15 94.9198 139.39 97.6568C142.501 97.4549 145.617 97.7728 147.494 100.63C148.47 102.084 149.024 103.782 149.093 105.533C149.093 110.259 145.879 112.485 138.747 112.885C139.235 113.417 139.604 113.83 139.964 114.208C145.214 119.489 150.486 124.757 155.719 130.054C157.914 132.28 158.539 134.987 157.532 137.922C156.525 140.856 154.322 142.575 151.236 142.928C148.686 143.22 146.547 142.244 144.743 140.427C139.651 135.271 134.534 130.17 129.446 125.032C129.081 124.587 128.756 124.109 128.478 123.605L127.908 123.983C127.908 124.842 127.933 125.667 127.908 126.505C127.736 130.94 124.62 134.106 120.429 134.123C116.143 134.145 112.962 130.957 112.868 126.437C112.782 122.518 112.868 118.595 112.842 114.672V112.876H108.282V150.511C108.282 158.306 105.025 162.615 97.5157 164.794C97.4257 164.82 97.3614 164.931 97.2843 165H18.3624C11.1149 163.475 6.95747 157.992 7.00033 149.149C7.21034 105.254 7.09462 61.3578 7.09891 17.462C7.09891 15.9066 7.06462 14.3469 7.09891 12.7958C7.27463 8.29275 9.21189 4.69207 12.9578 2.28158C14.5822 1.24177 16.5495 0.74334 18.3624 0H97.2843ZM117.647 115.811C117.647 119.3 117.608 122.793 117.647 126.282C117.673 128.276 118.877 129.414 120.617 129.29C122.117 129.161 123.03 128.095 123.06 126.26C123.107 123.631 123.086 120.997 123.06 118.367C123.06 117.177 123.244 116.073 124.466 115.544C125.687 115.016 126.746 115.454 127.612 116.429C127.86 116.709 128.139 116.958 128.405 117.224L147.563 136.474C147.923 136.868 148.315 137.233 148.733 137.565C149.27 137.977 149.939 138.176 150.613 138.124C151.287 138.072 151.918 137.772 152.385 137.282C152.842 136.783 153.095 136.13 153.095 135.453C153.095 134.776 152.842 134.124 152.385 133.625C152.068 133.262 151.733 132.915 151.382 132.585C144.81 125.977 138.238 119.371 131.666 112.769C130.766 111.866 129.931 110.968 130.513 109.546C131.096 108.124 132.361 107.965 133.706 107.982C136.111 108.012 138.515 107.982 140.92 107.982C143.041 107.982 144.349 106.891 144.319 105.206C144.289 103.522 143.033 102.512 140.988 102.512C134.311 102.512 127.63 102.512 120.947 102.512C118.628 102.512 117.63 103.518 117.613 105.842C117.647 109.138 117.647 112.485 117.647 115.811ZM80.9162 4.89831H34.4991C34.8034 6.49241 35.0691 8.01346 35.3563 9.52592C36.0163 12.7098 38.4508 14.8453 41.6738 14.8582C52.363 14.8983 63.0522 14.8983 73.7415 14.8582C76.8959 14.8582 79.3132 12.7614 79.9818 9.63764C80.3204 8.11659 80.5862 6.58694 80.9162 4.89831Z" fill="url(#paint0_linear_880_813)"/>
<path d="M30.1446 58.8957C30.1446 52.5623 30.1103 46.2246 30.1446 39.8868C30.1789 35.4999 32.8747 32.2386 37.0021 31.4136C37.4255 31.3279 37.856 31.2833 38.2879 31.2804C39.7237 31.2804 40.7223 32.1398 40.8595 33.4288C40.9966 34.8167 40.1566 35.8436 38.6779 36.0971C35.8449 36.5826 34.9577 37.6139 34.9577 40.5314C34.9577 52.8287 34.9577 65.1275 34.9577 77.4277C34.9577 80.5729 36.2435 81.8447 39.3208 81.849H76.073C79.1589 81.849 80.4704 80.56 80.4747 77.4363C80.4919 65.1361 80.4919 52.8373 80.4747 40.54C80.4747 37.4076 79.1675 36.1186 76.0902 36.1143H51.6901C51.2058 36.1143 50.7215 36.1401 50.2458 36.0928C48.8871 35.951 47.8756 34.8983 47.9785 33.6394C47.9852 33.0391 48.219 32.4637 48.6328 32.0298C49.0466 31.5958 49.6093 31.3357 50.2072 31.3019C50.5811 31.2782 50.9562 31.2782 51.3301 31.3019C59.6706 31.3019 68.0111 31.3019 76.3516 31.3019C81.6062 31.3019 85.215 34.7393 85.245 39.99C85.3164 52.6654 85.3164 65.3409 85.245 78.0163C85.215 83.2799 81.6019 86.6958 76.3388 86.7001C63.8809 86.7001 51.423 86.7001 38.9651 86.7001C33.7234 86.7001 30.1874 83.1982 30.1531 77.939C30.1103 71.5712 30.1403 65.2335 30.1446 58.8957Z" fill="url(#paint1_linear_880_813)"/>
<path d="M65.2038 121.624V132.74C65.2038 142.343 58.0462 149.141 48.4414 148.638C41.4252 148.286 35.2834 143.413 33.9419 137.075C33.7403 136.022 33.6498 134.951 33.6719 133.879C33.6519 125.394 33.6519 116.908 33.6719 108.42C33.6571 107.989 33.6815 107.558 33.7448 107.131C33.8057 106.617 34.05 106.141 34.4328 105.793C34.8156 105.445 35.311 105.247 35.8278 105.236C37.0236 105.138 37.9322 105.666 38.2793 106.856C38.4297 107.48 38.4946 108.122 38.4722 108.764C38.4722 116.769 38.8622 124.795 38.3693 132.766C37.885 140.612 46.0284 145.583 52.7831 143.293C57.4462 141.707 60.5878 138.596 60.4507 132.946C60.2535 124.731 60.3778 116.511 60.4292 108.291C60.4292 107.496 60.6478 106.439 61.175 105.975C61.5257 105.725 61.9227 105.546 62.343 105.451C62.7632 105.356 63.1981 105.346 63.6223 105.421C64.8009 105.653 65.2167 106.71 65.2124 107.905C65.2038 112.488 65.201 117.061 65.2038 121.624Z" fill="url(#paint2_linear_880_813)"/>
<path d="M76.9302 126.853C76.9302 120.898 76.9302 114.944 76.9302 108.992C76.9151 108.402 76.9409 107.812 77.0074 107.226C77.0519 106.682 77.3013 106.175 77.7049 105.809C78.1085 105.443 78.636 105.244 79.1804 105.254C79.7476 105.179 80.3214 105.331 80.7771 105.678C81.2329 106.025 81.5339 106.538 81.6148 107.105C81.7171 107.687 81.7573 108.277 81.7348 108.867C81.7348 120.935 81.7348 133.003 81.7348 145.072C81.7624 145.714 81.7047 146.357 81.5634 146.984C81.2376 148.178 80.3504 148.702 79.1461 148.647C78.6305 148.645 78.1326 148.458 77.7437 148.119C77.3548 147.779 77.101 147.311 77.0288 146.799C76.9436 146.216 76.912 145.626 76.9345 145.037C76.9316 138.976 76.9302 132.915 76.9302 126.853Z" fill="url(#paint3_linear_880_813)"/>
<path d="M58.2605 60.1547C62.1179 60.1547 65.9538 60.1547 69.7984 60.1547C71.6928 60.1547 72.7985 61.057 72.7985 62.5222C72.7985 63.9874 71.6842 64.9714 69.8369 64.9756C62.1479 64.9928 54.456 64.9928 46.7613 64.9756C44.8969 64.9756 43.7611 64.0261 43.7611 62.5695C43.7611 61.1129 44.8583 60.1676 46.7227 60.159C50.5672 60.1547 54.416 60.1547 58.2605 60.1547Z" fill="url(#paint4_linear_880_813)"/>
<path d="M63.9394 55.8278C61.8565 55.8278 59.7778 55.8536 57.6991 55.8278C56.079 55.8021 55.0332 54.8482 55.0203 53.4732C55.0075 52.0983 56.0575 51.0498 57.6519 51.0327C61.8093 50.9811 65.9681 50.9811 70.1284 51.0327C71.7442 51.0327 72.7943 52.0768 72.8071 53.4302C72.8071 54.8568 71.7485 55.815 70.0169 55.8364C67.9897 55.8579 65.9624 55.8278 63.9394 55.8278Z" fill="url(#paint5_linear_880_813)"/>
<path d="M113.871 66.3506C114.728 66.3506 115.585 66.3248 116.443 66.3506C117.81 66.4022 118.65 67.1412 118.783 68.499C118.916 69.8568 118.196 70.9138 116.88 71.0298C114.865 71.2059 112.839 71.2059 110.824 71.0298C109.576 70.9224 108.852 69.904 108.925 68.6322C108.919 68.3343 108.972 68.0382 109.082 67.7615C109.192 67.4848 109.357 67.2331 109.566 67.0215C109.775 66.8098 110.025 66.6425 110.3 66.5294C110.575 66.4164 110.869 66.36 111.167 66.3635C112.067 66.3076 112.975 66.3635 113.884 66.3635L113.871 66.3506Z" fill="url(#paint6_linear_880_813)"/>
<path d="M100.782 67.4033C101.146 67.7385 102.179 68.2627 102.355 68.9888C102.486 69.9361 102.238 70.897 101.665 71.6614C100.74 72.885 99.6359 73.9614 98.3901 74.8539C97.6743 75.3652 96.4571 75.7133 95.7071 75.4469C95.0384 75.2062 94.3484 74.0461 94.297 73.2555C94.1727 71.2747 98.2915 67.3947 100.782 67.4033Z" fill="url(#paint7_linear_880_813)"/>
<path d="M134.495 82.3045C134.495 81.4451 134.452 80.5858 134.495 79.7264C134.491 79.4286 134.545 79.1329 134.656 78.8565C134.767 78.5802 134.931 78.3286 135.14 78.1167C135.348 77.9047 135.597 77.7365 135.871 77.6219C136.145 77.5073 136.44 77.4485 136.737 77.4491C138.078 77.3675 139.09 78.1409 139.197 79.4686C139.368 81.4428 139.368 83.4282 139.197 85.4025C139.077 86.713 138.078 87.4477 136.694 87.3446C136.124 87.3402 135.579 87.1133 135.174 86.712C134.769 86.3108 134.536 85.7669 134.525 85.1962C134.435 84.2423 134.525 83.2713 134.525 82.3045H134.495Z" fill="url(#paint8_linear_880_813)"/>
<path d="M128.4 66.0713C130.042 66.6342 131.739 67.0854 133.312 67.79C134.885 68.4947 135.309 69.9771 134.598 71.2274C133.886 72.4778 132.652 72.7055 131.126 72.0868C130.102 71.6657 129.034 71.3616 127.942 71.1802C126.227 70.9181 125.173 70.0115 125.233 68.6021C125.306 67.1713 126.455 66.3119 128.4 66.0713Z" fill="url(#paint9_linear_880_813)"/>
<path d="M93.0669 87.0309C93.0669 86.0685 93.0026 85.1017 93.0669 84.1435C93.0822 83.5995 93.3057 83.0823 93.6912 82.6992C94.0766 82.316 94.5943 82.0962 95.137 82.0854C96.4228 81.965 97.5072 82.515 97.6229 83.8041C97.8072 85.9255 97.8072 88.059 97.6229 90.1805C97.5157 91.4695 96.4357 92.0495 95.1627 91.9378C94.8788 91.9379 94.5976 91.8813 94.3357 91.7715C94.0737 91.6616 93.8361 91.5007 93.6367 91.298C93.4373 91.0953 93.2801 90.8549 93.1742 90.5908C93.0683 90.3266 93.0158 90.044 93.0198 89.7594C92.9598 88.8528 93.0198 87.9418 93.0198 87.0352L93.0669 87.0309Z" fill="url(#paint10_linear_880_813)"/>
<path d="M95.3128 98.4861C96.7228 98.5334 97.49 99.2595 97.79 100.579C98.1201 102.018 98.4587 103.462 98.8615 104.875C99.2644 106.289 98.7972 107.453 97.6057 107.969C96.3199 108.528 95.2742 108.094 94.5841 106.972C93.3797 105.052 92.853 102.783 93.0883 100.527C93.2169 99.2251 94.0741 98.6064 95.3128 98.4861Z" fill="url(#paint11_linear_880_813)"/>
<path d="M48.5614 53.3873C48.5763 53.6946 48.53 54.0019 48.4252 54.2911C48.3204 54.5803 48.1591 54.8457 47.9508 55.0717C47.7425 55.2977 47.4914 55.4798 47.2121 55.6075C46.9328 55.7351 46.6309 55.8056 46.3241 55.8149C46.0044 55.8347 45.684 55.7898 45.3819 55.683C45.0798 55.5762 44.8022 55.4097 44.5656 55.1932C44.3289 54.9768 44.138 54.715 44.0043 54.4232C43.8705 54.1314 43.7965 53.8157 43.7868 53.4947C43.7901 52.846 44.0468 52.2245 44.5019 51.7634C44.9571 51.3024 45.5743 51.0385 46.2212 51.0284C46.841 51.0384 47.4323 51.2906 47.8694 51.7311C48.3065 52.1717 48.5548 52.7659 48.5614 53.3873Z" fill="url(#paint12_linear_880_813)"/>
<path d="M93.0712 14.9742C92.6076 14.9708 92.1556 14.8294 91.7723 14.568C91.389 14.3066 91.0918 13.937 90.9184 13.506C90.745 13.075 90.7031 12.6021 90.7981 12.1473C90.8932 11.6924 91.1208 11.2761 91.4522 10.9512C91.7836 10.6262 92.2037 10.4072 92.6594 10.322C93.1151 10.2368 93.5858 10.2892 94.0118 10.4725C94.4377 10.6558 94.7998 10.9619 95.052 11.3518C95.3042 11.7417 95.4352 12.1979 95.4285 12.6626C95.4321 12.9715 95.3733 13.278 95.2554 13.5636C95.1376 13.8491 94.9632 14.1077 94.7429 14.3237C94.5226 14.5398 94.2608 14.7088 93.9735 14.8206C93.6862 14.9325 93.3792 14.9847 93.0712 14.9742Z" fill="url(#paint13_linear_880_813)"/>
<path d="M57.6776 12.6368C56.1347 12.6368 54.5917 12.6755 53.0488 12.6368C51.5058 12.5981 50.5329 11.6313 50.4772 10.3251C50.4215 9.0189 51.4801 7.87167 53.0488 7.84159C56.1347 7.79003 59.2249 7.78573 62.3108 7.84159C63.9137 7.87167 64.9081 8.93297 64.8566 10.338C64.8052 11.6657 63.828 12.5852 62.2851 12.6325C60.7421 12.6797 59.2249 12.6411 57.6776 12.6368Z" fill="url(#paint14_linear_880_813)"/>
<defs>
<linearGradient id="paint0_linear_880_813" x1="7" y1="165" x2="162.929" y2="160.202" gradientUnits="userSpaceOnUse">
<stop stop-color="#F9F295"/>
<stop offset="0.348958" stop-color="#E0AA3E"/>
<stop offset="0.703125" stop-color="#FAF398"/>
<stop offset="1" stop-color="#B88A44"/>
</linearGradient>
<linearGradient id="paint1_linear_880_813" x1="7" y1="165" x2="162.929" y2="160.202" gradientUnits="userSpaceOnUse">
<stop stop-color="#F9F295"/>
<stop offset="0.348958" stop-color="#E0AA3E"/>
<stop offset="0.703125" stop-color="#FAF398"/>
<stop offset="1" stop-color="#B88A44"/>
</linearGradient>
<linearGradient id="paint2_linear_880_813" x1="7" y1="165" x2="162.929" y2="160.202" gradientUnits="userSpaceOnUse">
<stop stop-color="#F9F295"/>
<stop offset="0.348958" stop-color="#E0AA3E"/>
<stop offset="0.703125" stop-color="#FAF398"/>
<stop offset="1" stop-color="#B88A44"/>
</linearGradient>
<linearGradient id="paint3_linear_880_813" x1="7" y1="165" x2="162.929" y2="160.202" gradientUnits="userSpaceOnUse">
<stop stop-color="#F9F295"/>
<stop offset="0.348958" stop-color="#E0AA3E"/>
<stop offset="0.703125" stop-color="#FAF398"/>
<stop offset="1" stop-color="#B88A44"/>
</linearGradient>
<linearGradient id="paint4_linear_880_813" x1="7" y1="165" x2="162.929" y2="160.202" gradientUnits="userSpaceOnUse">
<stop stop-color="#F9F295"/>
<stop offset="0.348958" stop-color="#E0AA3E"/>
<stop offset="0.703125" stop-color="#FAF398"/>
<stop offset="1" stop-color="#B88A44"/>
</linearGradient>
<linearGradient id="paint5_linear_880_813" x1="7" y1="165" x2="162.929" y2="160.202" gradientUnits="userSpaceOnUse">
<stop stop-color="#F9F295"/>
<stop offset="0.348958" stop-color="#E0AA3E"/>
<stop offset="0.703125" stop-color="#FAF398"/>
<stop offset="1" stop-color="#B88A44"/>
</linearGradient>
<linearGradient id="paint6_linear_880_813" x1="7" y1="165" x2="162.929" y2="160.202" gradientUnits="userSpaceOnUse">
<stop stop-color="#F9F295"/>
<stop offset="0.348958" stop-color="#E0AA3E"/>
<stop offset="0.703125" stop-color="#FAF398"/>
<stop offset="1" stop-color="#B88A44"/>
</linearGradient>
<linearGradient id="paint7_linear_880_813" x1="7" y1="165" x2="162.929" y2="160.202" gradientUnits="userSpaceOnUse">
<stop stop-color="#F9F295"/>
<stop offset="0.348958" stop-color="#E0AA3E"/>
<stop offset="0.703125" stop-color="#FAF398"/>
<stop offset="1" stop-color="#B88A44"/>
</linearGradient>
<linearGradient id="paint8_linear_880_813" x1="7" y1="165" x2="162.929" y2="160.202" gradientUnits="userSpaceOnUse">
<stop stop-color="#F9F295"/>
<stop offset="0.348958" stop-color="#E0AA3E"/>
<stop offset="0.703125" stop-color="#FAF398"/>
<stop offset="1" stop-color="#B88A44"/>
</linearGradient>
<linearGradient id="paint9_linear_880_813" x1="7" y1="165" x2="162.929" y2="160.202" gradientUnits="userSpaceOnUse">
<stop stop-color="#F9F295"/>
<stop offset="0.348958" stop-color="#E0AA3E"/>
<stop offset="0.703125" stop-color="#FAF398"/>
<stop offset="1" stop-color="#B88A44"/>
</linearGradient>
<linearGradient id="paint10_linear_880_813" x1="7" y1="165" x2="162.929" y2="160.202" gradientUnits="userSpaceOnUse">
<stop stop-color="#F9F295"/>
<stop offset="0.348958" stop-color="#E0AA3E"/>
<stop offset="0.703125" stop-color="#FAF398"/>
<stop offset="1" stop-color="#B88A44"/>
</linearGradient>
<linearGradient id="paint11_linear_880_813" x1="7" y1="165" x2="162.929" y2="160.202" gradientUnits="userSpaceOnUse">
<stop stop-color="#F9F295"/>
<stop offset="0.348958" stop-color="#E0AA3E"/>
<stop offset="0.703125" stop-color="#FAF398"/>
<stop offset="1" stop-color="#B88A44"/>
</linearGradient>
<linearGradient id="paint12_linear_880_813" x1="7" y1="165" x2="162.929" y2="160.202" gradientUnits="userSpaceOnUse">
<stop stop-color="#F9F295"/>
<stop offset="0.348958" stop-color="#E0AA3E"/>
<stop offset="0.703125" stop-color="#FAF398"/>
<stop offset="1" stop-color="#B88A44"/>
</linearGradient>
<linearGradient id="paint13_linear_880_813" x1="7" y1="165" x2="162.929" y2="160.202" gradientUnits="userSpaceOnUse">
<stop stop-color="#F9F295"/>
<stop offset="0.348958" stop-color="#E0AA3E"/>
<stop offset="0.703125" stop-color="#FAF398"/>
<stop offset="1" stop-color="#B88A44"/>
</linearGradient>
<linearGradient id="paint14_linear_880_813" x1="7" y1="165" x2="162.929" y2="160.202" gradientUnits="userSpaceOnUse">
<stop stop-color="#F9F295"/>
<stop offset="0.348958" stop-color="#E0AA3E"/>
<stop offset="0.703125" stop-color="#FAF398"/>
<stop offset="1" stop-color="#B88A44"/>
</linearGradient>
</defs>
</svg>
