<svg width="165" height="165" viewBox="0 0 165 165" fill="none" xmlns="http://www.w3.org/2000/svg">
<g clip-path="url(#clip0_929_4946)">
<path d="M13.2364 49.1345C13.0119 48.5198 12.6089 47.9861 12.0792 47.6018C11.5495 47.2175 10.9172 47.0001 10.2632 46.9773C9.60914 46.9546 8.96321 47.1276 8.4081 47.4742C7.85299 47.8207 7.41396 48.3251 7.14724 48.9227C2.40671 59.5517 0.00292969 70.8481 0.00292969 82.4967C0.00292969 98.2761 4.47437 113.614 12.9335 126.853C21.1668 139.738 32.7735 150.073 46.5001 156.741C47.089 157.027 47.75 157.131 48.3983 157.039C49.0466 156.947 49.6525 156.663 50.1384 156.224C50.6245 155.785 50.9684 155.211 51.1261 154.576C51.2838 153.94 51.2482 153.272 51.0237 152.657L13.2364 49.1345ZM6.57683 82.4967C6.57683 74.6772 7.75374 67.0299 10.084 59.6683L41.8272 146.633C19.8858 132.786 6.57683 108.917 6.57683 82.4967ZM111.303 154.934L86.9805 88.2987C86.7494 87.6657 86.3292 87.1189 85.777 86.7326C85.2248 86.3463 84.5671 86.139 83.8932 86.1389H83.8622C83.1831 86.1454 82.5226 86.362 81.9715 86.759C81.4204 87.156 81.0058 87.7139 80.7846 88.3561L57.0166 157.415C56.8718 157.835 56.8137 158.28 56.8458 158.723C56.8779 159.167 56.9996 159.599 57.2034 159.993C57.4072 160.388 57.689 160.737 58.0316 161.02C58.3743 161.303 58.7707 161.513 59.197 161.638C66.7643 163.867 74.6118 164.999 82.5004 165C91.8631 165 101.081 163.426 109.898 160.323C110.36 160.16 110.781 159.895 111.128 159.549C111.475 159.202 111.74 158.783 111.904 158.321C112.068 157.858 112.127 157.365 112.075 156.877C112.024 156.39 111.864 155.92 111.607 155.502C111.471 155.279 111.373 155.097 111.303 154.934ZM82.5004 158.426C76.3928 158.425 70.3076 157.688 64.3768 156.229L83.9837 99.2613L104.402 155.203C97.3039 157.343 89.9527 158.426 82.5004 158.426Z" fill="url(#paint0_linear_929_4946)"/>
<path d="M120.299 130.159C121.689 130.159 122.931 129.284 123.397 127.972L132.142 103.338C136.337 92.576 138.377 83.8236 138.377 76.5832C138.377 65.6681 135.147 60.0146 132.296 55.0265C132.279 54.9959 132.261 54.9655 132.242 54.9353C131.926 54.4207 131.611 53.9121 131.299 53.4088C127.893 47.9093 124.951 43.1597 124.951 38.0783C124.951 32.8982 128.779 27.3069 134.964 27.3069C135.066 27.3069 135.223 27.3201 135.389 27.3343C135.52 27.3452 135.649 27.3558 135.779 27.3642C137.174 27.4548 138.467 26.6552 139.014 25.3729C139.281 24.7471 139.347 24.0539 139.203 23.389C139.059 22.724 138.712 22.1201 138.211 21.6604C122.968 7.69248 103.183 0 82.5001 0C54.6773 0 28.9096 13.8984 13.572 37.1782C13.2506 37.666 13.065 38.2306 13.0343 38.814C13.0036 39.3974 13.129 39.9784 13.3975 40.4972C13.666 41.016 14.0679 41.4539 14.5619 41.7658C15.0558 42.0777 15.624 42.2523 16.2078 42.2716C18.232 42.3386 19.9845 42.3728 21.4156 42.3728C29.0488 42.3728 40.2282 41.551 42.4216 41.3841C42.7725 42.0164 42.806 43.5239 42.4657 44.0879C41.6004 44.1846 37.8512 44.5884 33.799 44.7998C33.2926 44.826 32.7992 44.969 32.3573 45.2177C31.9154 45.4664 31.5371 45.8139 31.2519 46.2332C30.9668 46.6524 30.7825 47.132 30.7135 47.6343C30.6446 48.1367 30.6928 48.6482 30.8545 49.1288L56.7904 126.332C57.0096 126.985 57.4283 127.552 57.9874 127.954C58.5464 128.356 59.2176 128.572 59.9061 128.572H59.9096C60.5988 128.572 61.2704 128.354 61.8293 127.951C62.3882 127.548 62.8063 126.979 63.0243 126.325L80.36 74.3364C80.5979 73.6229 80.5841 72.8494 80.3206 72.145L70.8882 46.9299C70.665 46.3334 70.2734 45.8146 69.7608 45.4366C69.2482 45.0585 68.6369 44.8375 68.0011 44.8004C64.2679 44.5829 60.6624 44.1597 60.0118 44.0814C59.7156 43.4543 59.7839 42.007 60.1333 41.3847C62.3898 41.5536 73.7003 42.3721 80.8666 42.3721C88.501 42.3721 99.6811 41.5504 101.873 41.3834C102.224 42.0154 102.259 43.5236 101.918 44.0869C101.055 44.1836 97.3005 44.5877 93.2503 44.7994C92.7427 44.8259 92.2481 44.9697 91.8055 45.2196C91.3629 45.4695 90.9842 45.8186 90.6993 46.2395C90.4144 46.6604 90.231 47.1417 90.1635 47.6455C90.096 48.1493 90.1462 48.6618 90.3102 49.1429L117.188 127.934C117.409 128.58 117.825 129.141 118.379 129.54C118.932 129.938 119.597 130.155 120.279 130.159H120.299ZM97.9138 51.0727C100.717 50.8445 102.744 50.6096 102.869 50.5947C106.647 50.1481 109.095 46.4881 108.689 41.892C108.3 37.4985 105.455 34.5778 101.785 34.7976L101.721 34.8018C101.594 34.8118 88.9229 35.7982 80.8656 35.7982C73.2998 35.7982 60.3853 34.8111 60.2557 34.8015C60.236 34.7998 60.2162 34.7986 60.1964 34.7976C56.462 34.5736 53.541 37.7247 53.2713 42.2832C53.0019 46.8355 55.4823 50.3121 59.1852 50.6031C59.7085 50.6666 62.3292 50.9782 65.4723 51.2177L73.7548 73.3593L59.8935 114.929L38.4422 51.0746C41.2575 50.8461 43.2933 50.6099 43.4193 50.5951C47.1975 50.1484 49.6442 46.4871 49.2378 41.89C48.8488 37.4979 46.0048 34.5756 42.3352 34.7979L42.2714 34.8021C42.1509 34.8121 30.7072 35.7028 22.6522 35.7918C37.0081 17.3895 58.9541 6.57325 82.5001 6.57325C99.2334 6.57325 115.329 12.0447 128.506 22.1023C122.559 24.7407 118.378 30.9085 118.378 38.0783C118.378 45.0305 121.94 50.7817 125.711 56.8702C126.01 57.3527 126.311 57.8402 126.615 58.3336C129.287 63.0094 131.803 67.4438 131.803 76.5832C131.803 82.9132 129.85 91.1264 125.999 100.996C125.987 101.028 125.975 101.06 125.964 101.092L120.361 116.874L97.9138 51.0727Z" fill="url(#paint1_linear_929_4946)"/>
<path d="M154.891 42.9177C154.522 42.2447 153.929 41.722 153.215 41.4403C152.501 41.1587 151.71 41.1357 150.981 41.3753C150.252 41.6156 149.63 42.1036 149.222 42.7545C148.815 43.4055 148.649 44.1784 148.752 44.9393C149.086 47.4094 149.257 50.0011 149.257 52.6417C149.257 61.2862 147.416 69.9132 143.465 79.7917C143.446 79.84 143.428 79.889 143.411 79.938L119.218 149.888C119.047 150.383 118.997 150.912 119.072 151.43C119.146 151.949 119.344 152.442 119.648 152.869C119.952 153.296 120.354 153.643 120.82 153.883C121.285 154.123 121.802 154.249 122.326 154.249C122.907 154.249 123.478 154.094 123.98 153.801C136.231 146.659 146.503 136.424 153.683 124.204C161.085 111.607 164.998 97.1853 164.998 82.4971C164.997 68.6706 161.503 54.984 154.891 42.9177ZM128.635 142.773L149.599 82.1593C152.606 74.6264 154.477 67.728 155.315 60.9781C157.375 67.9655 158.422 75.2123 158.424 82.4971C158.424 106.183 147.211 128.507 128.635 142.773ZM84.526 119.153C82.8045 118.578 80.9427 119.51 80.3685 121.231L79.9302 122.546C79.3562 124.268 80.2872 126.129 82.0091 126.704C82.3539 126.819 82.7042 126.873 83.0487 126.873C84.4248 126.873 85.7074 126.002 86.1667 124.625L86.6049 123.31C87.1789 121.588 86.2479 119.727 84.526 119.153ZM80.4722 131.314C78.75 130.739 76.8889 131.671 76.3147 133.393L70.8365 149.827C70.2625 151.549 71.1935 153.41 72.9154 153.984C73.2505 154.097 73.6016 154.154 73.955 154.154C75.3311 154.154 76.6137 153.283 77.073 151.906L82.5508 135.471C83.1251 133.75 82.1941 131.888 80.4722 131.314Z" fill="url(#paint2_linear_929_4946)"/>
</g>
<defs>
<linearGradient id="paint0_linear_929_4946" x1="0.00293094" y1="165" x2="115.744" y2="161.304" gradientUnits="userSpaceOnUse">
<stop stop-color="#F9F295"/>
<stop offset="0.348958" stop-color="#E0AA3E"/>
<stop offset="0.703125" stop-color="#FAF398"/>
<stop offset="1" stop-color="#B88A44"/>
</linearGradient>
<linearGradient id="paint1_linear_929_4946" x1="13.0298" y1="130.159" x2="143.383" y2="125.908" gradientUnits="userSpaceOnUse">
<stop stop-color="#F9F295"/>
<stop offset="0.348958" stop-color="#E0AA3E"/>
<stop offset="0.703125" stop-color="#FAF398"/>
<stop offset="1" stop-color="#B88A44"/>
</linearGradient>
<linearGradient id="paint2_linear_929_4946" x1="70.667" y1="154.249" x2="168.093" y2="151.515" gradientUnits="userSpaceOnUse">
<stop stop-color="#F9F295"/>
<stop offset="0.348958" stop-color="#E0AA3E"/>
<stop offset="0.703125" stop-color="#FAF398"/>
<stop offset="1" stop-color="#B88A44"/>
</linearGradient>
<clipPath id="clip0_929_4946">
<rect width="165" height="165" fill="white"/>
</clipPath>
</defs>
</svg>
