<svg width="64" height="64" viewBox="0 0 64 64" fill="none" xmlns="http://www.w3.org/2000/svg">
<path d="M57.553 19.793C57.4197 20.4596 57.3157 21.133 57.145 21.793C56.6694 23.6381 55.7545 25.3407 54.4783 26.7556C54.2383 27.0223 53.9357 27.2196 53.605 27.0343C53.3877 26.913 53.1503 26.6343 53.1263 26.4143C53.1023 26.1943 53.277 25.881 53.4477 25.677C55.261 23.5436 56.1299 21.0752 56.0543 18.2716C55.9117 13.081 51.645 8.57829 46.497 8.18229C40.6957 7.73429 35.857 11.6236 35.0303 17.3916C34.261 22.7916 38.193 28.1463 43.601 29.0996C45.9415 29.5418 48.3628 29.1651 50.4583 28.033C50.517 28.0023 50.5757 27.9716 50.6357 27.9423C51.137 27.6956 51.5383 27.7823 51.7583 28.185C51.9783 28.5876 51.8477 29.041 51.3463 29.2516C50.2623 29.7023 49.1637 30.125 48.0477 30.489C47.5037 30.6663 46.909 30.689 46.285 30.7903C46.2783 30.9556 46.2623 31.1316 46.2623 31.3076C46.2623 32.8743 46.2623 34.441 46.253 36.0076C46.253 36.245 46.2143 36.5556 46.0663 36.6996C45.893 36.869 45.533 37.0236 45.3383 36.949C45.2051 36.885 45.0873 36.7928 44.9932 36.6789C44.899 36.5649 44.8307 36.4319 44.793 36.289C44.7063 35.8263 44.769 35.3343 44.769 34.8623C44.6997 34.845 44.6583 34.821 44.6357 34.833C42.277 36.517 39.5583 37.2623 36.769 37.801C31.673 38.7836 26.533 38.9316 21.3703 38.5263C17.9317 38.2596 14.529 37.7636 11.2903 36.513C10.141 36.0703 9.06234 35.4463 7.93968 34.8956V36.2463C7.93968 37.813 7.96634 39.381 7.92901 40.9463C7.91034 41.7223 8.21701 42.2943 8.77834 42.7703C9.87968 43.7036 11.189 44.237 12.5303 44.685C15.2077 45.581 17.9743 46.0396 20.777 46.309C24.123 46.6345 27.4911 46.6648 30.8423 46.3996C34.5477 46.1036 38.2117 45.5756 41.661 44.0903C42.433 43.7337 43.1677 43.3014 43.8543 42.7996C44.172 42.5938 44.4259 42.3035 44.5875 41.9612C44.7491 41.6189 44.812 41.2383 44.769 40.8623C44.747 40.496 44.747 40.1286 44.769 39.7623C44.7877 39.3223 45.0783 39.021 45.473 39.0036C45.6669 38.9972 45.8558 39.0659 46.0004 39.1953C46.145 39.3247 46.234 39.5049 46.249 39.6983C46.2637 39.8641 46.2677 40.0307 46.261 40.197C46.261 43.5143 46.233 46.8303 46.2743 50.1463C46.2917 51.5023 45.7583 52.5236 44.7383 53.3463C43.2717 54.5263 41.5383 55.1716 39.7677 55.6956C36.8343 56.561 33.8303 56.977 30.7903 57.2116C26.808 57.5211 22.8042 57.4156 18.8437 56.897C15.8877 56.509 12.9583 55.9636 10.2383 54.6836C9.27384 54.2049 8.36859 53.6152 7.54101 52.9263C6.75701 52.2983 6.44501 51.3903 6.44634 50.3543C6.45701 38.1214 6.45701 25.8881 6.44634 13.6543C6.43467 13.1778 6.52216 12.704 6.70325 12.2631C6.88435 11.8222 7.15511 11.4237 7.49834 11.093C8.70768 9.88363 10.2343 9.22629 11.8117 8.67829C15.0663 7.54629 18.4557 7.06629 21.877 6.79963C25.2783 6.53691 28.6959 6.56903 32.0917 6.89563C34.4589 7.11173 36.8051 7.51702 39.1077 8.10763C39.3567 8.16647 39.6184 8.1397 39.8503 8.03163C41.4993 7.15846 43.3284 6.67987 45.1937 6.6335C47.059 6.58714 48.9097 6.97427 50.6 7.76444C52.2903 8.5546 53.7742 9.72625 54.9349 11.1872C56.0956 12.6481 56.9014 14.3584 57.289 16.1836C57.3903 16.6503 57.4663 17.117 57.5557 17.593L57.553 19.793ZM7.95301 44.0716C7.95301 46.205 7.96634 48.2743 7.94501 50.3383C7.94501 50.9716 8.12234 51.5263 8.61168 51.8796C9.37301 52.4316 10.1543 52.9996 11.0117 53.3743C14.3877 54.8543 17.9877 55.3743 21.6237 55.6863C24.7239 55.945 27.8401 55.949 30.941 55.6983C33.9797 55.4596 36.9823 55.0116 39.8943 54.081C41.3063 53.6303 42.6823 53.0876 43.853 52.1356C44.4677 51.6356 44.7997 51.029 44.7863 50.1956C44.7517 48.3476 44.7757 46.497 44.7757 44.6476V44.1556C43.8117 44.6543 42.933 45.1996 41.9997 45.5903C38.825 46.9236 35.4663 47.457 32.0623 47.777C27.6892 48.203 23.282 48.1363 18.9237 47.5783C15.0877 47.0663 11.3037 46.377 7.95034 44.0716H7.95301ZM7.97568 25.4343C7.96501 25.5743 7.95434 25.6543 7.95434 25.733C7.95434 27.7823 7.93434 29.8316 7.97168 31.8796C7.98799 32.2748 8.12789 32.6549 8.37168 32.9663C8.71047 33.3983 9.13375 33.7567 9.61568 34.0196C10.709 34.5676 11.825 35.1036 12.985 35.4863C16.1317 36.513 19.393 36.941 22.6877 37.129C27.8383 37.4236 32.9543 37.1983 37.9943 35.989C39.8877 35.5343 41.7277 34.9343 43.3917 33.8636C44.521 33.1343 45.0223 32.1516 44.701 30.785C44.6513 30.7599 44.5983 30.742 44.5437 30.7316C42.2593 30.5537 40.0737 29.7255 38.245 28.345C38.1071 28.2682 37.946 28.244 37.7917 28.277C36.893 28.437 36.0023 28.6476 35.0997 28.7823C28.9183 29.701 22.741 29.6796 16.5837 28.589C13.5597 28.0503 10.601 27.2996 7.97301 25.4343H7.97568ZM37.8503 9.35029C35.2288 8.73018 32.5566 8.34774 29.8663 8.20763C25.613 7.94704 21.3438 8.1788 17.1437 8.89829C14.8157 9.29829 12.5063 9.81029 10.381 10.8876C9.67152 11.2504 9.01885 11.7148 8.44368 12.2663C7.74501 12.933 7.75834 13.733 8.42234 14.4423C8.84772 14.8842 9.33395 15.2631 9.86634 15.5676C11.433 16.4756 13.1583 16.9783 14.9077 17.3903C19.5743 18.4876 24.309 18.757 29.0783 18.5556C30.5343 18.4943 31.9863 18.3316 33.4583 18.2143C33.6743 14.6263 35.1197 11.713 37.8503 9.35029ZM7.95034 16.1063C7.95034 18.2396 7.97168 20.2796 7.93968 22.3263C7.92768 23.097 8.17434 23.7343 8.78634 24.1423C9.59568 24.6756 10.433 25.2223 11.3303 25.5836C14.805 26.9823 18.477 27.4916 22.1797 27.7743C25.9616 28.0752 29.7646 27.9787 33.5263 27.4863C34.5663 27.353 35.5997 27.1596 36.7263 26.9796C34.7997 24.8556 33.7503 22.4596 33.489 19.7596C33.4317 19.7263 33.417 19.7103 33.4037 19.7116C32.8583 19.765 32.3143 19.8316 31.769 19.8756C26.8943 20.2676 22.0357 20.1663 17.201 19.381C13.965 18.8543 10.7797 18.121 7.95034 16.1063Z" fill="url(#paint0_linear_906_835)"/>
<path d="M41.1397 22.6389C42.5197 24.0816 44.145 24.7562 46.0664 24.5402C48.4077 24.2736 50.0597 23.0269 50.9757 20.8322C51.2037 20.2869 51.5863 20.0842 52.0143 20.2682C52.4423 20.4522 52.573 20.8496 52.3597 21.4069C50.405 26.5056 43.5517 27.7162 39.9917 23.5802C39.725 23.2722 39.5237 23.1802 39.1704 23.3736C38.9324 23.4928 38.6832 23.5879 38.4264 23.6576C37.5837 23.9122 36.8624 23.2682 37.029 22.4042C37.2397 21.3091 37.4619 20.2167 37.6957 19.1269C37.885 18.2349 38.705 17.9016 39.4384 18.4309C40.3424 19.0834 41.2352 19.75 42.117 20.4309C42.8717 21.0122 42.741 21.9629 41.869 22.3416C41.6464 22.4389 41.4197 22.5256 41.1397 22.6389ZM40.6464 21.2002L39.0464 20.0002C38.913 20.6922 38.7917 21.2802 38.6557 21.9642L40.6464 21.2002Z" fill="url(#paint1_linear_906_835)"/>
<path d="M49.7453 14.6668C47.0666 11.6174 41.916 12.4721 40.188 16.1974C40.124 16.3308 40.0706 16.4721 40.0093 16.6094C39.7853 17.1108 39.4026 17.3028 38.9893 17.1228C38.576 16.9428 38.4346 16.5441 38.6346 16.0294C39.2019 14.5026 40.2765 13.217 41.6786 12.3881C44.784 10.5334 48.576 11.1081 51.012 13.8081C51.212 14.0281 51.3706 14.0948 51.64 13.9628C51.896 13.844 52.1597 13.7424 52.4293 13.6588C53.2653 13.3801 54.0013 13.9254 53.8626 14.7974C53.6733 15.9974 53.4253 17.1854 53.1453 18.3654C53.1061 18.525 53.0285 18.6725 52.9192 18.7951C52.8099 18.9177 52.6722 19.0117 52.5182 19.0689C52.3643 19.1261 52.1986 19.1448 52.0358 19.1233C51.8729 19.1017 51.7178 19.0407 51.584 18.9454C50.5906 18.2494 49.6146 17.5241 48.6706 16.7641C48.0386 16.2548 48.196 15.3481 48.9373 14.9988C49.1866 14.8774 49.4533 14.7868 49.7453 14.6668ZM50.2546 16.0948L51.8546 17.2948C51.988 16.6148 52.108 16.0214 52.2453 15.3321L50.2546 16.0948Z" fill="url(#paint2_linear_906_835)"/>
<defs>
<linearGradient id="paint0_linear_906_835" x1="6.44531" y1="57.3848" x2="59.2137" y2="55.5984" gradientUnits="userSpaceOnUse">
<stop stop-color="#F9F295"/>
<stop offset="0.348958" stop-color="#EAB54D"/>
<stop offset="0.703125" stop-color="#FAF398"/>
<stop offset="1" stop-color="#B88A44"/>
</linearGradient>
<linearGradient id="paint1_linear_906_835" x1="37.0049" y1="26.0717" x2="52.9111" y2="25.0247" gradientUnits="userSpaceOnUse">
<stop stop-color="#F9F295"/>
<stop offset="0.348958" stop-color="#EAB54D"/>
<stop offset="0.703125" stop-color="#FAF398"/>
<stop offset="1" stop-color="#B88A44"/>
</linearGradient>
<linearGradient id="paint2_linear_906_835" x1="38.5449" y1="19.132" x2="54.3266" y2="18.0919" gradientUnits="userSpaceOnUse">
<stop stop-color="#F9F295"/>
<stop offset="0.348958" stop-color="#EAB54D"/>
<stop offset="0.703125" stop-color="#FAF398"/>
<stop offset="1" stop-color="#B88A44"/>
</linearGradient>
</defs>
</svg>
