<svg width="64" height="64" viewBox="0 0 64 64" fill="none" xmlns="http://www.w3.org/2000/svg">
<path d="M57.5507 44.8998C57.1333 46.0452 56.3747 46.7185 55.1013 46.7078C55.0133 46.7078 54.896 46.8412 54.8427 46.9358C54.756 47.0945 54.732 47.2892 54.644 47.4452C54.284 48.0798 54.1653 48.5972 54.7493 49.2692C55.368 49.9825 55.1813 51.1278 54.532 51.8478C54.0561 52.3831 53.55 52.8906 53.016 53.3678C52.0613 54.2105 50.8653 54.0785 49.7027 53.0332C49.1467 53.2518 48.576 53.4652 48.02 53.7132C47.932 53.7518 47.876 53.9492 47.868 54.0772C47.7747 55.5358 46.8747 56.3932 45.4147 56.3985C44.8987 56.3985 44.384 56.3985 43.868 56.3985C42.5547 56.3865 41.6227 55.5358 41.5427 54.2238C41.52 53.8412 41.4093 53.6332 41.0333 53.5825C41.0006 53.5759 40.9694 53.5633 40.9413 53.5452C40.2293 53.1545 39.6213 52.9558 38.852 53.6358C38.1853 54.2265 37.0627 53.9878 36.3707 53.3585C35.8514 52.8905 35.3561 52.3966 34.8867 51.8785C34.4981 51.467 34.2841 50.9209 34.2899 50.355C34.2956 49.7891 34.5205 49.2474 34.9173 48.8438C35.1693 48.5772 35.2107 48.3812 35.0227 48.0772C34.8786 47.8526 34.774 47.605 34.7133 47.3452C34.604 46.8118 34.3213 46.6785 33.78 46.6785C31.236 46.7118 28.6907 46.6958 26.1467 46.6905C25.4667 46.6905 25.0413 46.3345 25.0013 45.7572C24.9587 45.1198 25.384 44.6838 26.0853 44.6812C27.8187 44.6745 29.552 44.6812 31.2747 44.6812H31.828C31.828 44.0412 31.828 43.4478 31.828 42.8545C31.836 41.3278 32.6347 40.4745 34.1427 40.3398C34.2933 40.3265 34.4427 40.1638 34.568 40.0438C34.632 39.9825 34.6293 39.8572 34.6747 39.7692C35.028 39.0692 35.2467 38.4718 34.5827 37.7172C33.9773 37.0278 34.2013 35.8878 34.8427 35.1838C35.3147 34.6692 35.8093 34.1718 36.324 33.6998C37.1973 32.8998 38.4573 32.9172 39.3533 33.7452C39.6053 33.9772 39.78 34.0118 40.0827 33.8518C40.52 33.6198 40.9933 33.4518 41.444 33.2678C41.4907 32.9318 41.4933 32.5905 41.588 32.2785C41.8653 31.3692 42.48 30.7798 43.432 30.6785C44.1937 30.6092 44.9597 30.6012 45.7227 30.6545C46.2626 30.6722 46.7758 30.8935 47.1593 31.2738C47.5429 31.6541 47.7684 32.1655 47.7907 32.7052C47.824 33.1412 47.9587 33.3798 48.3867 33.4478C48.469 33.462 48.5477 33.4918 48.6187 33.5358C49.2507 33.9185 49.804 34.0505 50.4387 33.4252C50.7373 33.1305 51.3227 33.1292 51.8453 32.9758V22.9758H8.48002C8.47202 23.1532 8.45735 23.3278 8.45735 23.5092C8.45735 29.343 8.45735 35.1758 8.45735 41.0078C8.45735 41.8945 8.63068 42.7278 9.14135 43.4678C9.68935 44.2612 10.4253 44.6905 11.408 44.6852C13.2747 44.6732 15.1334 44.6772 16.9974 44.6852C17.6254 44.6852 18.0427 45.0665 18.0734 45.6278C18.1027 46.1505 17.7387 46.6638 17.2053 46.6678C14.9947 46.6838 12.7734 46.7852 10.5774 46.5985C8.50802 46.4238 6.89868 44.5558 6.55335 42.3318C6.4885 41.9208 6.45551 41.5053 6.45468 41.0892C6.44935 31.7905 6.44935 22.4918 6.45468 13.1932C6.45468 11.3678 7.03868 9.79318 8.46268 8.59585C9.22783 7.9429 10.2035 7.58909 11.2093 7.59985C23.8511 7.59985 36.4916 7.59985 49.1307 7.59985C51.3333 7.59985 53.2387 9.27451 53.7333 11.6492C53.8527 12.2533 53.909 12.8681 53.9013 13.4838C53.9133 20.3332 53.9013 27.1825 53.9187 34.0318C53.9113 34.2882 53.9907 34.5396 54.144 34.7452C55.3987 36.1252 55.4267 37.0852 54.1987 38.5132C54.4147 39.0572 54.628 39.6118 54.8653 40.1585C54.89 40.2064 54.9252 40.248 54.9685 40.2802C55.0117 40.3123 55.0617 40.3341 55.1147 40.3438C56.3667 40.3225 57.108 41.0012 57.552 42.0998L57.5507 44.8998ZM51.8893 20.8998C51.8893 20.1318 51.8893 19.4172 51.8893 18.7038C51.8893 16.7038 51.924 14.7038 51.86 12.7038C51.7973 10.7772 50.5267 9.61051 48.6213 9.61051H35.048C27.1956 9.61051 19.344 9.61051 11.4933 9.61051C10.64 9.61051 9.93202 9.87718 9.37335 10.5225C8.72402 11.2785 8.46002 12.1732 8.45735 13.1532C8.45735 15.603 8.45735 18.0527 8.45735 20.5025C8.45735 20.6358 8.47868 20.7585 8.49202 20.9025L51.8893 20.8998ZM37.852 35.1665C37.784 35.1852 37.7187 35.1838 37.6907 35.2132C37.4813 35.4038 37.276 35.5958 37.076 35.7958C36.2067 36.6625 36.208 36.6638 37.048 37.5412C37.5573 38.0745 37.572 38.3972 37.2547 39.0652C36.8917 39.8098 36.5729 40.5751 36.3 41.3572C36.0333 42.1438 35.788 42.3812 34.9453 42.3878C33.8547 42.3958 33.8493 42.3958 33.856 43.5172C33.8627 44.8705 33.704 44.6798 35.0147 44.6932C35.8053 44.7012 36.0453 44.9265 36.2947 45.6718C36.5451 46.4235 36.8477 47.1569 37.2 47.8665C37.612 48.6905 37.608 48.9798 36.9653 49.6252C36.0987 50.4958 36.1293 50.2665 36.9653 51.1225C37.8013 51.9785 37.8253 51.9865 38.7067 51.1345C39.2147 50.6452 39.5587 50.6278 40.1867 50.9318C40.9103 51.2976 41.6568 51.6165 42.4213 51.8865C43.3547 52.1972 43.5413 52.3812 43.544 53.3678C43.544 54.5038 43.4373 54.3825 44.5587 54.3852C45.832 54.3852 45.832 54.3852 45.8507 53.1372C45.8627 52.4332 46.0893 52.1865 46.752 51.9518C47.5359 51.6885 48.3027 51.3768 49.048 51.0185C49.8787 50.6038 50.1333 50.6038 50.804 51.2638C51.672 52.1185 51.4333 52.1025 52.2987 51.2478C53.164 50.3932 53.1613 50.3852 52.2987 49.4998C51.812 48.9972 51.7987 48.6505 52.1053 48.0172C52.4731 47.2922 52.7942 46.5444 53.0667 45.7785C53.3733 44.8665 53.5493 44.6865 54.5107 44.6865C55.6693 44.6865 55.5467 44.7745 55.5493 43.6345C55.5493 42.4158 55.5493 42.4158 54.328 42.3812C53.624 42.3612 53.3667 42.1078 53.128 41.4212C52.8524 40.6218 52.5296 39.8396 52.1613 39.0785C51.8027 38.3438 51.808 38.0372 52.3987 37.4398C53.18 36.6478 53.18 36.6478 52.3987 35.8692C51.564 35.0332 51.564 35.0332 50.7253 35.8505C50.1667 36.3945 49.8413 36.3932 49.1253 36.0452C48.3653 35.6783 47.5834 35.3585 46.784 35.0878C46.0613 34.8412 45.82 34.5798 45.8093 33.7918C45.796 32.6745 45.796 32.6745 44.7067 32.6745C43.5147 32.6745 43.5147 32.6745 43.5067 33.8478C43.4987 34.6092 43.268 34.8625 42.5547 35.1012C41.8292 35.3333 41.1219 35.619 40.4387 35.9558C39.436 36.4665 39.2547 36.4718 38.448 35.6692C38.3307 35.5505 38.2173 35.4292 38.0933 35.3185C38.0172 35.2594 37.9365 35.2063 37.852 35.1598V35.1665Z" fill="url(#paint0_linear_906_825)"/>
<path d="M28.96 33.8103C28.16 32.8997 27.392 32.045 26.6347 31.185C26.156 30.6423 26.1427 30.0463 26.5893 29.6397C27.036 29.233 27.6413 29.3023 28.1187 29.833C29.0076 30.8214 29.8907 31.8148 30.768 32.813C31.3307 33.457 31.3373 34.1463 30.78 34.7903C29.896 35.8063 28.9987 36.8103 28.1 37.8117C27.6493 38.313 27.04 38.377 26.6027 37.9917C26.1653 37.6063 26.1507 36.981 26.6213 36.4463C27.388 35.5757 28.1613 34.7103 28.96 33.8103Z" fill="url(#paint1_linear_906_825)"/>
<path d="M14.3708 33.8106C15.1441 34.6799 15.8881 35.5093 16.6188 36.3439C16.7928 36.5213 16.9289 36.7322 17.0188 36.9639C17.0915 37.1715 17.0886 37.3981 17.0105 37.6038C16.9325 37.8094 16.7843 37.9809 16.5921 38.0879C16.392 38.2124 16.1541 38.2616 15.921 38.2267C15.688 38.1917 15.4749 38.075 15.3201 37.8973C14.6988 37.2306 14.0988 36.5333 13.4908 35.8493C13.1588 35.4759 12.8241 35.1106 12.5015 34.7253C12.0255 34.1466 12.0081 33.4613 12.4921 32.9013C13.4157 31.8293 14.3552 30.7715 15.3108 29.7279C15.3961 29.6249 15.5016 29.5403 15.6206 29.4793C15.7397 29.4184 15.87 29.3823 16.0035 29.3733C16.137 29.3643 16.2709 29.3826 16.3971 29.4271C16.5233 29.4716 16.6391 29.5412 16.7375 29.6319C16.8371 29.7212 16.9179 29.8294 16.9752 29.9503C17.0324 30.0713 17.0649 30.2024 17.0707 30.3361C17.0766 30.4697 17.0556 30.6032 17.0092 30.7286C16.9627 30.8541 16.8916 30.969 16.8001 31.0666C16.0135 31.9786 15.2095 32.8653 14.3708 33.8106Z" fill="url(#paint2_linear_906_825)"/>
<path d="M23.7027 29.5762C23.4534 30.6428 23.232 31.5935 23.0054 32.5482C22.5747 34.3615 22.1547 36.1762 21.6947 37.9815C21.6052 38.312 21.4229 38.61 21.1694 38.8402C20.8574 39.1068 20.4467 39.0602 20.1027 38.8175C19.9313 38.71 19.7992 38.5501 19.7259 38.3616C19.6527 38.173 19.6422 37.9658 19.696 37.7708C20.0516 36.2642 20.4072 34.758 20.7627 33.2522C21.0587 32.0055 21.3467 30.7575 21.656 29.5188C21.8694 28.6628 22.744 28.3188 23.32 28.8882C23.5147 29.0748 23.6 29.3815 23.7027 29.5762Z" fill="url(#paint3_linear_906_825)"/>
<path d="M21.5732 44.6898C21.7065 44.6895 21.8384 44.7162 21.961 44.7683C22.0837 44.8203 22.1945 44.8967 22.2868 44.9928C22.3791 45.0888 22.4511 45.2026 22.4982 45.3272C22.5454 45.4518 22.5668 45.5847 22.5612 45.7178C22.5536 45.9782 22.4453 46.2254 22.259 46.4075C22.0727 46.5895 21.823 46.6922 21.5626 46.6938C21.2935 46.6918 21.0358 46.5847 20.8445 46.3954C20.6532 46.2061 20.5434 45.9496 20.5386 45.6805C20.5408 45.5473 20.5694 45.4159 20.6228 45.2938C20.6761 45.1718 20.7531 45.0615 20.8493 44.9694C20.9455 44.8773 21.059 44.8051 21.1833 44.7571C21.3076 44.7091 21.4401 44.6863 21.5732 44.6898Z" fill="url(#paint4_linear_906_825)"/>
<path d="M40.8387 18.6906C39.3253 18.6906 37.812 18.7133 36.2987 18.684C35.6161 18.666 34.955 18.4414 34.4027 18.0399C33.8504 17.6385 33.4328 17.0789 33.2051 16.4352C32.9773 15.7915 32.9501 15.0939 33.127 14.4344C33.3039 13.7749 33.6767 13.1846 34.196 12.7413C34.8025 12.2078 35.5843 11.9164 36.392 11.9226C39.352 11.912 42.312 11.8986 45.272 11.9226C47.2347 11.94 48.6947 13.4413 48.676 15.352C48.66 17.2266 47.1787 18.6613 45.228 18.692H40.8387V18.6906ZM40.884 13.9453C39.404 13.9453 37.924 13.9306 36.4453 13.9453C35.6053 13.9573 35.0173 14.5466 35.0213 15.3053C35.0253 16.064 35.6133 16.664 36.448 16.668C39.3747 16.684 42.3 16.6773 45.2253 16.668C45.8213 16.668 46.292 16.4106 46.5467 15.8533C46.972 14.9293 46.312 13.9586 45.2227 13.9413C43.776 13.9266 42.3293 13.944 40.884 13.9453Z" fill="url(#paint5_linear_906_825)"/>
<path d="M27.9105 15.2916C27.9113 15.9597 27.7137 16.613 27.3428 17.1688C26.972 17.7245 26.4445 18.1577 25.8272 18.4134C25.2099 18.669 24.5307 18.7357 23.8755 18.605C23.2203 18.4743 22.6186 18.152 22.1467 17.679C21.6748 17.206 21.354 16.6036 21.2248 15.948C21.0956 15.2925 21.1639 14.6134 21.4211 13.9967C21.6782 13.3801 22.1126 12.8536 22.6693 12.4841C23.2259 12.1145 23.8797 11.9185 24.5478 11.9209C25.4391 11.9272 26.2919 12.2846 26.9214 12.9156C27.5509 13.5466 27.9063 14.4003 27.9105 15.2916ZM25.9038 15.3223C25.9042 14.9601 25.7612 14.6125 25.5061 14.3555C25.251 14.0984 24.9046 13.9527 24.5425 13.9503C24.1814 13.9464 23.8336 14.0861 23.5756 14.3386C23.3175 14.5912 23.1704 14.9359 23.1665 15.2969C23.1626 15.658 23.3023 16.0058 23.5548 16.2638C23.8074 16.5219 24.1521 16.669 24.5131 16.6729C24.8753 16.6737 25.2235 16.533 25.4833 16.2806C25.7432 16.0282 25.8941 15.6843 25.9038 15.3223Z" fill="url(#paint6_linear_906_825)"/>
<path d="M19.1562 15.2973C19.1541 15.9633 18.9544 16.6138 18.5826 17.1663C18.2107 17.7189 17.6833 18.1487 17.0671 18.4014C16.4509 18.6542 15.7735 18.7185 15.1208 18.5862C14.468 18.4539 13.8692 18.1309 13.4 17.6582C12.9308 17.1855 12.6124 16.5842 12.485 15.9305C12.3576 15.2767 12.427 14.5999 12.6844 13.9856C12.9418 13.3713 13.3756 12.8472 13.9309 12.4795C14.4862 12.1118 15.1381 11.9171 15.8042 11.92C16.6957 11.9259 17.5487 12.2845 18.1767 12.9173C18.8048 13.5501 19.1569 14.4057 19.1562 15.2973ZM17.1402 15.2826C17.1366 14.9237 16.9907 14.5809 16.7344 14.3296C16.4781 14.0783 16.1324 13.9391 15.7735 13.9426C15.4146 13.9462 15.0718 14.0921 14.8205 14.3484C14.5692 14.6047 14.43 14.9504 14.4335 15.3093C14.437 15.6682 14.583 16.011 14.8393 16.2623C15.0956 16.5136 15.4412 16.6528 15.8002 16.6493C16.1591 16.6458 16.5019 16.4998 16.7532 16.2435C17.0045 15.9872 17.1437 15.6415 17.1402 15.2826Z" fill="url(#paint7_linear_906_825)"/>
<path d="M38.5508 43.529C38.5524 42.3137 38.9141 41.126 39.5902 40.1161C40.2663 39.1061 41.2266 38.3192 42.3497 37.8546C43.4727 37.3901 44.7083 37.2687 45.9003 37.506C47.0923 37.7432 48.1873 38.3283 49.047 39.1874C49.9066 40.0465 50.4924 41.1411 50.7304 42.3329C50.9684 43.5248 50.8479 44.7604 50.3841 45.8838C49.9202 47.0072 49.1339 47.9679 48.1244 48.6447C47.1149 49.3215 45.9275 49.684 44.7121 49.6864C43.9026 49.689 43.1006 49.5316 42.3521 49.2231C41.6036 48.9147 40.9236 48.4613 40.3509 47.889C39.7783 47.3168 39.3245 46.637 39.0156 45.8888C38.7066 45.1405 38.5487 44.3385 38.5508 43.529ZM40.5681 43.529C40.5681 44.3474 40.8111 45.1474 41.2662 45.8276C41.7214 46.5078 42.3682 47.0375 43.1247 47.3497C43.8812 47.6619 44.7134 47.7425 45.5157 47.5813C46.3181 47.4201 47.0545 47.0243 47.6317 46.4441C48.2089 45.8639 48.6009 45.1254 48.758 44.3222C48.915 43.519 48.8301 42.6873 48.514 41.9324C48.1979 41.1775 47.6648 40.5335 46.9823 40.0819C46.2998 39.6303 45.4985 39.3915 44.6801 39.3957C43.5883 39.4013 42.543 39.8387 41.7726 40.6124C41.0022 41.3861 40.5692 42.4332 40.5681 43.525V43.529Z" fill="url(#paint8_linear_906_825)"/>
<defs>
<linearGradient id="paint0_linear_906_825" x1="6.45068" y1="56.3985" x2="59.2048" y2="54.5411" gradientUnits="userSpaceOnUse">
<stop stop-color="#F9F295"/>
<stop offset="0.348958" stop-color="#EAB54D"/>
<stop offset="0.703125" stop-color="#FAF398"/>
<stop offset="1" stop-color="#B88A44"/>
</linearGradient>
<linearGradient id="paint1_linear_906_825" x1="26.2646" y1="38.2405" x2="31.358" y2="38.1452" gradientUnits="userSpaceOnUse">
<stop stop-color="#F9F295"/>
<stop offset="0.348958" stop-color="#EAB54D"/>
<stop offset="0.703125" stop-color="#FAF398"/>
<stop offset="1" stop-color="#B88A44"/>
</linearGradient>
<linearGradient id="paint2_linear_906_825" x1="12.1367" y1="38.2376" x2="17.2358" y2="38.1422" gradientUnits="userSpaceOnUse">
<stop stop-color="#F9F295"/>
<stop offset="0.348958" stop-color="#EAB54D"/>
<stop offset="0.703125" stop-color="#FAF398"/>
<stop offset="1" stop-color="#B88A44"/>
</linearGradient>
<linearGradient id="paint3_linear_906_825" x1="19.6621" y1="39.0207" x2="23.8379" y2="38.9662" gradientUnits="userSpaceOnUse">
<stop stop-color="#F9F295"/>
<stop offset="0.348958" stop-color="#EAB54D"/>
<stop offset="0.703125" stop-color="#FAF398"/>
<stop offset="1" stop-color="#B88A44"/>
</linearGradient>
<linearGradient id="paint4_linear_906_825" x1="20.5386" y1="46.6938" x2="22.6277" y2="46.6229" gradientUnits="userSpaceOnUse">
<stop stop-color="#F9F295"/>
<stop offset="0.348958" stop-color="#EAB54D"/>
<stop offset="0.703125" stop-color="#FAF398"/>
<stop offset="1" stop-color="#B88A44"/>
</linearGradient>
<linearGradient id="paint5_linear_906_825" x1="33.0117" y1="18.699" x2="49.106" y2="17.4506" gradientUnits="userSpaceOnUse">
<stop stop-color="#F9F295"/>
<stop offset="0.348958" stop-color="#EAB54D"/>
<stop offset="0.703125" stop-color="#FAF398"/>
<stop offset="1" stop-color="#B88A44"/>
</linearGradient>
<linearGradient id="paint6_linear_906_825" x1="21.1611" y1="18.6702" x2="28.1295" y2="18.4359" gradientUnits="userSpaceOnUse">
<stop stop-color="#F9F295"/>
<stop offset="0.348958" stop-color="#EAB54D"/>
<stop offset="0.703125" stop-color="#FAF398"/>
<stop offset="1" stop-color="#B88A44"/>
</linearGradient>
<linearGradient id="paint7_linear_906_825" x1="12.4229" y1="18.6533" x2="19.3747" y2="18.4195" gradientUnits="userSpaceOnUse">
<stop stop-color="#F9F295"/>
<stop offset="0.348958" stop-color="#EAB54D"/>
<stop offset="0.703125" stop-color="#FAF398"/>
<stop offset="1" stop-color="#B88A44"/>
</linearGradient>
<linearGradient id="paint8_linear_906_825" x1="38.5508" y1="49.6864" x2="51.2486" y2="49.2595" gradientUnits="userSpaceOnUse">
<stop stop-color="#F9F295"/>
<stop offset="0.348958" stop-color="#EAB54D"/>
<stop offset="0.703125" stop-color="#FAF398"/>
<stop offset="1" stop-color="#B88A44"/>
</linearGradient>
</defs>
</svg>
