<svg width="64" height="64" viewBox="0 0 64 64" fill="none" xmlns="http://www.w3.org/2000/svg">
<path d="M8.23454 37.0909C8.23454 38.5576 8.22254 39.9562 8.23454 41.3509C8.2412 41.8456 8.5412 42.1242 9.03454 42.1749C9.21205 42.187 9.39008 42.1897 9.56787 42.1829H27.2332C27.3745 42.1829 27.5159 42.1829 27.6572 42.1829C28.2665 42.1976 28.5985 42.4896 28.6065 43.0136C28.6145 43.5589 28.2732 43.8722 27.6345 43.8762C26.5679 43.8842 25.5132 43.8762 24.4519 43.8762H22.8679C22.3905 45.0629 21.9505 46.1576 21.5039 47.2709H23.6279C24.9532 47.2709 26.2799 47.2709 27.6052 47.2709C28.2465 47.2709 28.5985 47.5776 28.6012 48.1122C28.6039 48.6469 28.2505 48.9629 27.6105 48.9642C24.3039 48.9642 20.9972 48.9642 17.6905 48.9642C17.0612 48.9642 16.7092 48.6322 16.7212 48.0949C16.7332 47.5576 17.0732 47.2949 17.6799 47.2656C18.1612 47.2389 18.7585 47.3322 19.0959 47.0869C19.9548 46.4469 20.5729 45.5361 20.8505 44.5016C20.9025 44.3176 20.9292 44.1256 20.9839 43.8749H9.3932C7.5572 43.8749 6.53454 42.8536 6.5332 41.0216C6.5332 33.2954 6.5332 25.5696 6.5332 17.8442C6.5332 16.0496 7.56654 15.0176 9.36387 15.0176H41.1399C42.6345 15.0176 43.7705 15.9896 43.8759 17.3469C43.9239 17.9509 43.6652 18.3376 43.1665 18.4136C42.6679 18.4896 42.2772 18.1869 42.1919 17.6696C42.0652 16.8949 41.8652 16.7202 41.0759 16.7202H9.35454C8.52254 16.7202 8.2332 16.9869 8.2332 17.7616C8.2332 23.526 8.2332 29.2896 8.2332 35.0522C8.2332 35.1389 8.2412 35.2269 8.25054 35.3922H27.3332C27.511 35.3841 27.6891 35.3867 27.8665 35.4002C28.3372 35.4602 28.5932 35.7376 28.6159 36.2109C28.6253 36.3175 28.6133 36.4249 28.5805 36.5268C28.5477 36.6287 28.4948 36.7229 28.425 36.804C28.3551 36.885 28.2697 36.9512 28.1737 36.9987C28.0778 37.0462 27.9734 37.0739 27.8665 37.0802C27.6891 37.0935 27.511 37.0966 27.3332 37.0896H8.23454V37.0909Z" fill="url(#paint0_linear_906_877)"/>
<path d="M31.9997 42.1822C31.9997 43.6582 31.985 45.0688 32.0077 46.4808C32.0157 47.0035 32.381 47.2702 32.9997 47.2728C34.5557 47.2728 36.1117 47.2728 37.6664 47.2728C39.3828 47.2728 41.0984 47.2728 42.813 47.2728C43.5104 47.2728 43.865 47.5555 43.8797 48.1035C43.8944 48.6515 43.5224 48.9675 42.8464 48.9675C39.5397 48.9675 36.233 48.9782 32.925 48.9675C31.381 48.9675 30.305 47.8609 30.3037 46.3009C30.3037 38.468 30.3037 30.6346 30.3037 22.8008C30.3037 21.1888 31.3837 20.1102 33.001 20.1075C37.9895 20.1022 42.9766 20.1022 47.9624 20.1075C49.6144 20.1075 50.6717 21.1835 50.6757 22.8408C50.6757 24.3973 50.6757 25.9528 50.6757 27.5075C50.6757 28.2355 50.3837 28.6008 49.8184 28.5928C49.253 28.5848 48.9824 28.2235 48.9797 27.4835C48.977 26.7435 48.9797 26.0048 48.9797 25.2328H32.025V40.4849H42.6664C42.8444 40.4765 43.0228 40.4832 43.1997 40.5049C43.4038 40.5356 43.5883 40.6435 43.7153 40.8062C43.8423 40.9689 43.9021 41.1741 43.8824 41.3795C43.8464 41.8195 43.6157 42.1022 43.1637 42.1688C42.9865 42.1869 42.8082 42.1913 42.6304 42.1822H31.9997ZM31.9997 23.4742H48.977C48.977 23.1928 48.9864 22.9408 48.977 22.7008C48.9517 22.1302 48.6504 21.8168 48.0744 21.8155C43.0184 21.8102 37.9628 21.8102 32.9077 21.8155C32.3304 21.8155 32.029 22.1302 32.0037 22.6995C31.9904 22.9448 31.9997 23.1915 31.9997 23.4742Z" fill="url(#paint1_linear_906_877)"/>
<path d="M45.5831 39.6218C45.5831 37.4298 45.5831 35.2386 45.5831 33.0484C45.5831 31.3604 46.6431 30.3031 48.3284 30.3018C50.4671 30.3018 52.6057 30.3018 54.7444 30.3018C56.3937 30.3018 57.4617 31.3684 57.4644 33.0218C57.4644 37.4395 57.4644 41.8564 57.4644 46.2724C57.4644 47.8871 56.3871 48.9644 54.7724 48.9711C52.5982 48.9791 50.4244 48.9791 48.2511 48.9711C46.6657 48.9631 45.5844 47.8818 45.5844 46.3044C45.5777 44.0738 45.5831 41.8471 45.5831 39.6218ZM47.3044 43.8391H55.7244V35.4204H47.3044V43.8391ZM55.7644 33.6764C55.7644 33.3591 55.7791 33.0951 55.7644 32.8338C55.7297 32.3218 55.4324 32.0084 54.9164 32.0044C52.656 31.9938 50.3955 31.9938 48.1351 32.0044C47.6177 32.0044 47.3217 32.3204 47.2897 32.8338C47.2724 33.1084 47.2897 33.3858 47.2897 33.6764H55.7644ZM47.2817 45.6004C47.2817 45.9031 47.2724 46.1484 47.2817 46.3938C47.3071 46.9431 47.5964 47.2711 48.1337 47.2738C50.3942 47.2871 52.6546 47.2871 54.9151 47.2738C55.4297 47.2738 55.7257 46.9524 55.7591 46.4404C55.7764 46.1658 55.7591 45.8898 55.7591 45.6004H47.2817Z" fill="url(#paint2_linear_906_877)"/>
<path d="M11.6257 30.2997C11.6257 31.113 11.6337 31.9264 11.6257 32.7384C11.6177 33.337 11.3017 33.6824 10.7884 33.6877C10.2751 33.693 9.9364 33.3477 9.93373 32.7544C9.92573 31.1108 9.92573 29.4664 9.93373 27.821C9.93373 27.241 10.2844 26.8877 10.7951 26.8877C11.2804 26.897 11.6137 27.2424 11.6231 27.7957C11.6364 28.6397 11.6257 29.4664 11.6257 30.2997Z" fill="url(#paint3_linear_906_877)"/>
<path d="M35.3949 35.3957C35.3949 36.2077 35.4029 37.021 35.3949 37.833C35.3882 38.4317 35.0709 38.777 34.5562 38.7824C34.0416 38.7877 33.7069 38.441 33.7042 37.849C33.6962 36.2046 33.6962 34.5601 33.7042 32.9157C33.7042 32.337 34.0562 31.9824 34.5656 31.9904C35.0522 31.9997 35.3842 32.3464 35.3936 32.8997C35.4042 33.733 35.3949 34.565 35.3949 35.3957Z" fill="url(#paint4_linear_906_877)"/>
<path d="M25.2068 40.484C24.9081 40.484 24.6081 40.4947 24.3108 40.484C23.8135 40.4614 23.5108 40.1667 23.4895 39.7014C23.4681 39.236 23.7375 38.844 24.2028 38.8147C24.8687 38.7688 25.5369 38.7688 26.2028 38.8147C26.6695 38.8507 26.9081 39.1987 26.8948 39.6627C26.8815 40.1267 26.6281 40.424 26.1535 40.4734C25.8373 40.4916 25.5205 40.4938 25.2041 40.48L25.2068 40.484Z" fill="url(#paint5_linear_906_877)"/>
<path d="M11.6215 23.5158C11.6215 23.8145 11.6401 24.1145 11.6215 24.4118C11.6192 24.5224 11.5941 24.6314 11.548 24.732C11.5018 24.8325 11.4355 24.9226 11.3531 24.9964C11.2707 25.0703 11.174 25.1265 11.0691 25.1615C10.9641 25.1964 10.853 25.2095 10.7428 25.1998C10.5306 25.1998 10.3271 25.1155 10.1771 24.9655C10.0271 24.8154 9.9428 24.612 9.9428 24.3998C9.92146 23.8025 9.9188 23.1998 9.9428 22.6065C9.94526 22.392 10.0327 22.1874 10.186 22.0374C10.3392 21.8874 10.5457 21.8043 10.7601 21.8065C10.8704 21.8016 10.9805 21.819 11.0839 21.8574C11.1874 21.8959 11.2821 21.9547 11.3624 22.0305C11.4427 22.1062 11.507 22.1972 11.5515 22.2982C11.596 22.3992 11.6198 22.5081 11.6215 22.6185C11.6401 22.9171 11.6228 23.2171 11.6215 23.5158Z" fill="url(#paint6_linear_906_877)"/>
<path d="M35.3905 28.5951C35.3905 28.8937 35.4079 29.1937 35.3905 29.491C35.3545 29.9977 35.0119 30.3084 34.5305 30.291C34.4244 30.2946 34.3187 30.2768 34.2196 30.2387C34.1205 30.2006 34.03 30.1429 33.9537 30.0692C33.8773 29.9954 33.8165 29.9071 33.775 29.8093C33.7334 29.7116 33.712 29.6066 33.7119 29.5004C33.6865 28.9044 33.6879 28.3004 33.7119 27.7084C33.7118 27.495 33.7957 27.2901 33.9454 27.1379C34.095 26.9858 34.2985 26.8985 34.5119 26.8951C34.6222 26.8884 34.7328 26.904 34.837 26.9409C34.9412 26.9778 35.037 27.0353 35.1186 27.1099C35.2001 27.1845 35.2659 27.2747 35.3119 27.3753C35.358 27.4758 35.3833 27.5845 35.3865 27.6951C35.4092 28.0004 35.3892 28.2964 35.3905 28.5951Z" fill="url(#paint7_linear_906_877)"/>
<path d="M40.5333 43.8839C40.8332 43.8701 41.1336 43.8723 41.4333 43.8906C41.9053 43.9412 42.1559 44.2359 42.1786 44.7039C42.1889 44.8106 42.1771 44.9182 42.1441 45.0202C42.1111 45.1221 42.0574 45.2162 41.9866 45.2966C41.9157 45.3769 41.8291 45.4419 41.732 45.4874C41.635 45.533 41.5297 45.5581 41.4226 45.5612C40.8053 45.5919 40.1853 45.5906 39.5679 45.5612C39.462 45.5571 39.358 45.532 39.2619 45.4874C39.1657 45.4428 39.0794 45.3795 39.008 45.3012C38.9365 45.2229 38.8813 45.1312 38.8456 45.0314C38.8099 44.9316 38.7944 44.8257 38.7999 44.7199C38.7955 44.6132 38.8124 44.5067 38.8498 44.4066C38.8871 44.3065 38.9442 44.215 39.0175 44.1373C39.0908 44.0596 39.1789 43.9974 39.2767 43.9544C39.3744 43.9113 39.4798 43.8883 39.5866 43.8866C39.9026 43.8639 40.2226 43.8866 40.5413 43.8866L40.5333 43.8839Z" fill="url(#paint8_linear_906_877)"/>
<defs>
<linearGradient id="paint0_linear_906_877" x1="6.5332" y1="48.9643" x2="45.0845" y2="47.5382" gradientUnits="userSpaceOnUse">
<stop stop-color="#F9F295"/>
<stop offset="0.348958" stop-color="#EAB54D"/>
<stop offset="0.703125" stop-color="#FAF398"/>
<stop offset="1" stop-color="#B88A44"/>
</linearGradient>
<linearGradient id="paint1_linear_906_877" x1="30.3037" y1="48.9723" x2="51.3488" y2="48.4729" gradientUnits="userSpaceOnUse">
<stop stop-color="#F9F295"/>
<stop offset="0.348958" stop-color="#EAB54D"/>
<stop offset="0.703125" stop-color="#FAF398"/>
<stop offset="1" stop-color="#B88A44"/>
</linearGradient>
<linearGradient id="paint2_linear_906_877" x1="45.5811" y1="48.9771" x2="57.8583" y2="48.7144" gradientUnits="userSpaceOnUse">
<stop stop-color="#F9F295"/>
<stop offset="0.348958" stop-color="#EAB54D"/>
<stop offset="0.703125" stop-color="#FAF398"/>
<stop offset="1" stop-color="#B88A44"/>
</linearGradient>
<linearGradient id="paint3_linear_906_877" x1="9.92773" y1="33.6878" x2="11.6869" y2="33.673" gradientUnits="userSpaceOnUse">
<stop stop-color="#F9F295"/>
<stop offset="0.348958" stop-color="#EAB54D"/>
<stop offset="0.703125" stop-color="#FAF398"/>
<stop offset="1" stop-color="#B88A44"/>
</linearGradient>
<linearGradient id="paint4_linear_906_877" x1="33.6982" y1="38.7824" x2="35.4557" y2="38.7676" gradientUnits="userSpaceOnUse">
<stop stop-color="#F9F295"/>
<stop offset="0.348958" stop-color="#EAB54D"/>
<stop offset="0.703125" stop-color="#FAF398"/>
<stop offset="1" stop-color="#B88A44"/>
</linearGradient>
<linearGradient id="paint5_linear_906_877" x1="23.4883" y1="40.4889" x2="26.9941" y2="40.2539" gradientUnits="userSpaceOnUse">
<stop stop-color="#F9F295"/>
<stop offset="0.348958" stop-color="#EAB54D"/>
<stop offset="0.703125" stop-color="#FAF398"/>
<stop offset="1" stop-color="#B88A44"/>
</linearGradient>
<linearGradient id="paint6_linear_906_877" x1="9.92578" y1="25.2029" x2="11.6869" y2="25.1732" gradientUnits="userSpaceOnUse">
<stop stop-color="#F9F295"/>
<stop offset="0.348958" stop-color="#EAB54D"/>
<stop offset="0.703125" stop-color="#FAF398"/>
<stop offset="1" stop-color="#B88A44"/>
</linearGradient>
<linearGradient id="paint7_linear_906_877" x1="33.6934" y1="30.2917" x2="35.4551" y2="30.262" gradientUnits="userSpaceOnUse">
<stop stop-color="#F9F295"/>
<stop offset="0.348958" stop-color="#EAB54D"/>
<stop offset="0.703125" stop-color="#FAF398"/>
<stop offset="1" stop-color="#B88A44"/>
</linearGradient>
<linearGradient id="paint8_linear_906_877" x1="38.7988" y1="45.5837" x2="42.2805" y2="45.352" gradientUnits="userSpaceOnUse">
<stop stop-color="#F9F295"/>
<stop offset="0.348958" stop-color="#EAB54D"/>
<stop offset="0.703125" stop-color="#FAF398"/>
<stop offset="1" stop-color="#B88A44"/>
</linearGradient>
</defs>
</svg>
