<svg width="64" height="64" viewBox="0 0 64 64" fill="none" xmlns="http://www.w3.org/2000/svg">
<path d="M6.3999 30.3996C6.53324 29.4662 6.63324 28.5196 6.78924 27.5862C7.4016 23.91 8.84091 20.4209 10.9986 17.3822C11.2279 17.0569 11.2652 16.8356 11.0639 16.4676C10.6526 15.6958 10.5253 14.8042 10.7041 13.9481C10.883 13.0921 11.3567 12.3261 12.0426 11.7836C12.5524 11.3726 13.1599 11.1006 13.8059 10.994C14.452 10.8874 15.1146 10.9497 15.7294 11.175C16.3443 11.4003 16.8903 11.7809 17.3145 12.2797C17.7387 12.7785 18.0267 13.3786 18.1503 14.0216C18.2739 14.6646 18.229 15.3287 18.02 15.9492C17.811 16.5698 17.445 17.1257 16.9576 17.5629C16.4701 18.0001 15.8778 18.3037 15.2383 18.4443C14.5988 18.5848 13.9337 18.5575 13.3079 18.3649C13.1652 18.3222 13.0266 18.2676 12.8586 18.2076C11.7241 19.7521 10.7929 21.4361 10.0879 23.2182C5.50257 34.8302 10.5546 47.8742 21.8066 53.2649C27.8732 56.1702 34.1172 56.3635 40.4346 54.0435C40.5599 53.9982 40.6826 53.9449 40.8079 53.9022C41.4172 53.6969 41.9759 53.9289 42.1679 54.4622C42.3599 54.9955 42.1092 55.5635 41.4946 55.7729C40.3146 56.1729 39.1372 56.6102 37.9252 56.8822C36.5986 57.1809 35.2346 57.3116 33.8866 57.5169C33.7532 57.5369 33.6292 57.5715 33.4999 57.5995H30.3999C30.2879 57.5729 30.1786 57.5355 30.0652 57.5195C28.8972 57.3489 27.7172 57.2356 26.5626 57.0049C16.6372 55.0182 8.41857 46.4876 6.7999 36.5102C6.64257 35.5436 6.53324 34.5702 6.3999 33.5996V30.3996ZM16.2132 14.7662C16.2182 14.5284 16.1758 14.2919 16.0886 14.0705C16.0014 13.8492 15.8711 13.6474 15.7053 13.4768C15.5394 13.3062 15.3413 13.1703 15.1225 13.0769C14.9037 12.9836 14.6685 12.9346 14.4306 12.9329C13.9584 12.9368 13.5061 13.1234 13.1686 13.4535C12.831 13.7836 12.6344 14.2316 12.6199 14.7036C12.6169 14.9414 12.6611 15.1774 12.75 15.398C12.8389 15.6186 12.9707 15.8194 13.1378 15.9887C13.3048 16.158 13.5038 16.2924 13.7232 16.3842C13.9426 16.476 14.1781 16.5234 14.4159 16.5236C14.6495 16.5269 14.8815 16.484 15.0984 16.3974C15.3154 16.3108 15.5131 16.1821 15.6801 16.0187C15.8472 15.8554 15.9803 15.6607 16.0717 15.4457C16.1632 15.2308 16.2113 14.9998 16.2132 14.7662Z" fill="url(#paint0_linear_906_818)"/>
<path d="M57.6 33.5003C57.4667 34.4697 57.3707 35.4443 57.2094 36.4097C56.5932 40.1022 55.1451 43.6061 52.9747 46.6563C52.7667 46.9537 52.732 47.155 52.9134 47.4857C53.302 48.1921 53.4514 49.0053 53.3394 49.8037C53.2274 50.6021 52.86 51.3428 52.292 51.915C51.7348 52.4857 51.012 52.8666 50.2261 53.0035C49.4403 53.1404 48.6313 53.0265 47.9139 52.6779C47.1964 52.3293 46.6069 51.7636 46.2289 51.0612C45.8509 50.3587 45.7037 49.5551 45.808 48.7643C45.9947 47.1857 47.248 45.795 48.8654 45.555C49.5974 45.4457 50.3694 45.5976 51.256 45.6363C52.3443 44.1571 53.2304 42.5393 53.8907 40.8257C56.7547 33.247 56.052 26.0092 51.7827 19.1123C51.5876 18.8117 51.4754 18.4649 51.4574 18.107C51.4574 17.7003 51.7667 17.4083 52.1787 17.315C52.6507 17.2083 53.0254 17.3817 53.2947 17.7883C54.3422 19.3528 55.2124 21.0288 55.8894 22.7857C56.7871 25.1024 57.3357 27.5397 57.5174 30.0177C57.5364 30.1799 57.564 30.341 57.6 30.5003V33.5003ZM47.7867 49.2523C47.7837 49.4903 47.8281 49.7266 47.9174 49.9472C48.0067 50.1679 48.1391 50.3685 48.3068 50.5375C48.4745 50.7064 48.6741 50.8402 48.8941 50.9311C49.1141 51.0221 49.35 51.0682 49.588 51.067C50.0598 51.0571 50.5095 50.8655 50.8433 50.5322C51.1772 50.1988 51.3695 49.7494 51.38 49.2776C51.3806 49.0398 51.3339 48.8041 51.2426 48.5845C51.1513 48.3648 51.0173 48.1654 50.8484 47.998C50.6794 47.8305 50.4789 47.6983 50.2584 47.609C50.0379 47.5196 49.8019 47.475 49.564 47.4776C49.3305 47.4762 49.0989 47.5212 48.8828 47.6098C48.6667 47.6985 48.4704 47.8291 48.3051 47.9941C48.1398 48.1592 48.0089 48.3553 47.9199 48.5713C47.8309 48.7873 47.7856 49.0187 47.7867 49.2523Z" fill="url(#paint1_linear_906_818)"/>
<path d="M33.6002 6.40048C34.5335 6.53382 35.4775 6.63115 36.4082 6.78848C40.0456 7.4071 43.5024 8.81821 46.5335 10.9218C47.1442 11.3405 47.3109 11.9538 46.9562 12.4525C46.6015 12.9512 46.0135 12.9938 45.4135 12.5858C42.2631 10.4125 38.6321 9.03662 34.8325 8.5763C31.033 8.11599 27.1785 8.58504 23.6002 9.94315C23.4602 9.99515 23.3215 10.0538 23.1789 10.1005C22.5695 10.3018 22.0149 10.0658 21.8255 9.52982C21.6362 8.99382 21.8909 8.42715 22.5069 8.22582C23.8322 7.79248 25.1562 7.33248 26.5069 7.01515C27.6669 6.74848 28.8709 6.65648 30.0549 6.48182C30.2015 6.46048 30.3469 6.42448 30.4922 6.39648L33.6002 6.40048Z" fill="url(#paint2_linear_906_818)"/>
<path d="M31.9574 46.0812C29.4748 46.0812 26.9921 46.0812 24.5094 46.0812C22.1201 46.0812 20.6014 44.5652 20.6001 42.1825C20.6001 37.9678 20.6081 33.7518 20.6001 29.5358C20.6001 27.9998 21.2148 26.8478 22.5534 26.0692C22.6868 25.9905 22.7921 25.7345 22.7961 25.5572C22.8201 24.2438 22.7628 22.9305 23.0921 21.6345C24.1588 17.4198 28.2108 14.4345 32.4961 14.7212C37.0001 15.0252 40.6121 18.3998 41.1068 22.7998C41.2094 23.7065 41.1801 24.6292 41.1921 25.5438C41.1921 25.8105 41.2468 25.9772 41.5148 26.1292C42.7428 26.8265 43.3921 27.9038 43.3961 29.3198C43.4077 33.6692 43.4077 38.0181 43.3961 42.3665C43.3961 44.4932 41.8321 46.0625 39.7041 46.0758C37.1228 46.0932 34.5401 46.0812 31.9574 46.0812ZM32.0334 27.6812C29.501 27.6812 26.9677 27.6812 24.4334 27.6812C23.2108 27.6812 22.5974 28.3038 22.5961 29.5305C22.5961 33.7607 22.5961 37.9914 22.5961 42.2225C22.5961 43.4345 23.2334 44.0785 24.4401 44.0798H39.5361C40.7734 44.0798 41.4028 43.4438 41.4028 42.1918C41.4028 37.9767 41.4028 33.7625 41.4028 29.5492C41.4028 28.2972 40.7881 27.6825 39.5361 27.6825C37.033 27.6798 34.5321 27.6794 32.0334 27.6812ZM26.9014 25.6545C26.9014 25.4145 26.8854 25.2012 26.9014 24.9878C26.9814 24.0985 26.9334 23.1678 27.1854 22.3278C27.9174 19.8972 30.2894 18.5078 32.8428 18.8905C35.2188 19.2452 37.0414 21.3665 37.0921 23.8425C37.1041 24.4372 37.0921 25.0318 37.0921 25.6398H39.1574C39.5214 22.0038 38.2574 19.1425 35.5414 17.6625C32.8481 16.1958 30.1748 16.3505 27.7001 18.1598C25.1668 20.0132 24.5481 22.6665 24.8454 25.6505L26.9014 25.6545ZM35.0948 25.6545C35.0948 25.0065 35.1134 24.3932 35.0948 23.7812C35.0616 23.0257 34.7541 22.3082 34.2298 21.7633C33.7055 21.2184 33.0004 20.8834 32.2468 20.8212C30.7401 20.6798 29.2761 21.7332 29.0028 23.2572C28.8694 24.0292 28.9108 24.8345 28.8694 25.6572L35.0948 25.6545Z" fill="url(#paint3_linear_906_818)"/>
<path d="M48.5894 14.7835C48.588 14.6543 48.6123 14.526 48.6609 14.4062C48.7095 14.2863 48.7814 14.1774 48.8724 14.0856C48.9635 13.9938 49.0719 13.921 49.1913 13.8714C49.3107 13.8219 49.4388 13.7965 49.5681 13.7969C49.8292 13.7967 50.0802 13.8977 50.2685 14.0787C50.4567 14.2597 50.5674 14.5066 50.5774 14.7675C50.576 15.0374 50.4683 15.2958 50.2776 15.4868C50.0869 15.6777 49.8286 15.7858 49.5587 15.7875C49.2976 15.7813 49.0495 15.6724 48.8681 15.4844C48.6866 15.2965 48.5865 15.0447 48.5894 14.7835Z" fill="url(#paint4_linear_906_818)"/>
<path d="M29.0001 37.6711C29.0001 37.4711 28.9908 37.2711 29.0001 37.0711C29.0454 36.4623 28.9085 35.8538 28.6068 35.3231C27.7134 33.7124 28.2001 31.7231 29.6734 30.5764C30.3789 30.032 31.2527 29.7516 32.1432 29.7837C33.0338 29.8159 33.885 30.1586 34.5494 30.7524C35.2116 31.3488 35.6475 32.1556 35.7833 33.0363C35.9191 33.917 35.7465 34.8176 35.2948 35.5858C35.1261 35.8984 35.0312 36.2455 35.0174 36.6004C34.9761 37.3644 35.0094 38.1324 35.0028 38.8991C34.9868 40.6418 33.6694 41.9898 31.9894 41.9778C30.3094 41.9658 29.0254 40.6311 29.0054 38.9204C28.9961 38.5044 29.0001 38.0871 29.0001 37.6711ZM31.0001 37.2884C31.0001 37.8044 31.0001 38.3218 31.0001 38.8378C31.0081 39.5111 31.4201 39.9738 31.9988 39.9738C32.5774 39.9738 32.9908 39.5138 32.9974 38.8378C32.9974 37.9724 33.0174 37.1044 32.9974 36.2404C32.9801 35.6378 33.0854 35.1271 33.4921 34.6298C34.0721 33.9204 33.9028 32.8564 33.2134 32.2404C32.8802 31.9448 32.4502 31.7816 32.0048 31.7816C31.5593 31.7816 31.1293 31.9448 30.7961 32.2404C30.1028 32.8604 29.9334 33.9178 30.5148 34.6284C30.701 34.85 30.8407 35.1068 30.9255 35.3835C31.0102 35.6603 31.0383 35.9513 31.0081 36.2391C30.9814 36.5884 31.0001 36.9338 31.0001 37.2884Z" fill="url(#paint5_linear_906_818)"/>
<defs>
<linearGradient id="paint0_linear_906_818" x1="6.3999" y1="57.5996" x2="43.4113" y2="56.6439" gradientUnits="userSpaceOnUse">
<stop stop-color="#F9F295"/>
<stop offset="0.348958" stop-color="#EAB54D"/>
<stop offset="0.703125" stop-color="#FAF398"/>
<stop offset="1" stop-color="#B88A44"/>
</linearGradient>
<linearGradient id="paint1_linear_906_818" x1="45.7754" y1="53.0599" x2="57.9961" y2="52.9241" gradientUnits="userSpaceOnUse">
<stop stop-color="#F9F295"/>
<stop offset="0.348958" stop-color="#EAB54D"/>
<stop offset="0.703125" stop-color="#FAF398"/>
<stop offset="1" stop-color="#B88A44"/>
</linearGradient>
<linearGradient id="paint2_linear_906_818" x1="21.7642" y1="12.8624" x2="47.5446" y2="9.46045" gradientUnits="userSpaceOnUse">
<stop stop-color="#F9F295"/>
<stop offset="0.348958" stop-color="#EAB54D"/>
<stop offset="0.703125" stop-color="#FAF398"/>
<stop offset="1" stop-color="#B88A44"/>
</linearGradient>
<linearGradient id="paint3_linear_906_818" x1="20.6001" y1="46.0852" x2="44.1575" y2="45.5097" gradientUnits="userSpaceOnUse">
<stop stop-color="#F9F295"/>
<stop offset="0.348958" stop-color="#EAB54D"/>
<stop offset="0.703125" stop-color="#FAF398"/>
<stop offset="1" stop-color="#B88A44"/>
</linearGradient>
<linearGradient id="paint4_linear_906_818" x1="48.5894" y1="15.7875" x2="50.6419" y2="15.7186" gradientUnits="userSpaceOnUse">
<stop stop-color="#F9F295"/>
<stop offset="0.348958" stop-color="#EAB54D"/>
<stop offset="0.703125" stop-color="#FAF398"/>
<stop offset="1" stop-color="#B88A44"/>
</linearGradient>
<linearGradient id="paint5_linear_906_818" x1="28.1587" y1="41.9779" x2="36.0828" y2="41.8103" gradientUnits="userSpaceOnUse">
<stop stop-color="#F9F295"/>
<stop offset="0.348958" stop-color="#EAB54D"/>
<stop offset="0.703125" stop-color="#FAF398"/>
<stop offset="1" stop-color="#B88A44"/>
</linearGradient>
</defs>
</svg>
