<svg width="64" height="64" viewBox="0 0 64 64" fill="none" xmlns="http://www.w3.org/2000/svg">
<path d="M57.5999 29.8004C57.4732 30.6857 57.3906 31.5804 57.2132 32.4564C55.7119 39.8511 51.5786 45.3017 44.7292 48.4031C37.2626 51.7831 29.9852 51.0471 23.1066 46.5644C23.0226 46.5111 22.9412 46.4537 22.8559 46.4017C22.8241 46.3872 22.7904 46.3769 22.7559 46.3711C22.7128 46.393 22.6722 46.4194 22.6346 46.4497C21.9586 47.1164 21.2852 47.7831 20.5639 48.4991C21.0412 49.1177 20.6466 49.5217 20.2146 49.9391C19.5319 50.5977 18.8692 51.2724 18.1972 51.9497C17.5879 52.5591 17.1759 52.6631 16.8012 52.3031C16.4266 51.9431 16.5186 51.5031 17.1519 50.8737C17.7412 50.2871 18.3372 49.7057 18.8852 49.1684L14.8546 45.1471C14.8033 45.1829 14.7551 45.2231 14.7106 45.2671C12.7306 47.2457 10.7452 49.2204 8.77457 51.2084C7.87457 52.1164 7.65724 53.3271 8.1559 54.4271C8.34796 54.8496 8.6404 55.2187 9.00775 55.5023C9.37511 55.7859 9.80624 55.9754 10.2636 56.0543C10.7209 56.1332 11.1906 56.099 11.6318 55.9548C12.0729 55.8107 12.4721 55.5608 12.7946 55.2271C13.3732 54.6511 13.9466 54.0697 14.5279 53.4937C14.9506 53.0751 15.3759 53.0311 15.7106 53.3604C16.0452 53.6897 15.9999 54.1337 15.5999 54.5457C15.2986 54.8564 14.9759 55.1484 14.6852 55.4684C13.7786 56.4724 12.7719 57.3137 11.4026 57.6017H10.0999C9.99324 57.5657 9.8879 57.5231 9.7799 57.4937C8.1799 57.0697 7.1039 56.0911 6.58924 54.5097C6.5239 54.3084 6.4559 54.1097 6.3999 53.9017V52.6004C6.68257 51.2284 7.5599 50.2551 8.53324 49.3137C10.4546 47.4404 12.3386 45.5311 14.2279 43.6271C14.6012 43.2511 14.9746 43.0711 15.4159 43.3791L17.6146 41.1684C17.5866 41.1217 17.5159 40.9951 17.4359 40.8764C14.5612 36.6297 13.2826 31.9431 13.6319 26.8311C13.8775 23.1221 15.0776 19.5395 17.1159 16.4311C17.4426 15.9271 17.8346 15.7857 18.2346 16.0204C18.6346 16.2551 18.7172 16.7151 18.3839 17.2364C16.0599 20.8604 14.9252 24.8244 15.1039 29.1257C15.3586 35.2911 17.8626 40.4111 22.6386 44.2991C30.8626 50.9937 42.4666 50.4084 50.0252 42.9751C53.3786 39.6777 55.3652 35.6511 55.9146 30.9751C57.0452 21.3471 51.7172 12.5751 42.7079 9.17239C35.0572 6.27906 26.1332 8.40039 20.5666 14.4404C20.4772 14.5391 20.3919 14.6417 20.2999 14.7351C19.9479 15.0844 19.4999 15.1244 19.1866 14.8377C18.8732 14.5511 18.8319 14.0924 19.1946 13.7311C20.0332 12.8977 20.8532 12.0364 21.7679 11.2937C25.1889 8.48205 29.3979 6.8008 33.8146 6.48172C33.9446 6.46296 34.0734 6.43579 34.1999 6.40039H36.9999C37.1089 6.43676 37.2209 6.46353 37.3346 6.48039C41.4146 6.78972 45.1306 8.13106 48.4279 10.5444C53.1546 14.0111 56.1212 18.6151 57.2172 24.3911C57.3812 25.2537 57.4746 26.1244 57.5999 27.0004V29.8004ZM18.5572 42.6751C17.9772 43.2537 17.3106 43.9177 16.7012 44.5231L19.5012 47.3124L21.3572 45.4671L18.5572 42.6751Z" fill="url(#paint0_linear_906_839)"/>
<path d="M35.1506 10.667C44.4759 10.667 51.9385 17.1657 53.1772 25.991C54.2305 33.503 50.2906 40.963 43.4892 44.3097C43.2546 44.4257 42.9252 44.503 42.6892 44.4297C42.4866 44.3643 42.2372 44.0657 42.2319 43.863C42.2485 43.5783 42.3764 43.3116 42.5879 43.1203C42.8545 42.8857 43.2252 42.7697 43.5439 42.587C46.5009 40.918 48.8616 38.3655 50.2949 35.2872C51.7282 32.209 52.1622 28.7594 51.5362 25.422C50.9102 22.0847 49.2555 19.0269 46.8041 16.6773C44.3527 14.3278 41.2275 12.8043 37.8665 12.3203C28.9465 11.039 20.6346 17.3337 19.4786 26.267C18.3386 35.067 24.2306 43.0057 33.0092 44.4777C35.2203 44.8393 37.4824 44.7372 39.6519 44.1777C39.8719 44.123 40.1706 44.0337 40.3186 44.131C40.5532 44.2804 40.8012 44.559 40.8519 44.8177C40.9226 45.1977 40.6386 45.4843 40.2559 45.5603C39.3226 45.7523 38.4025 45.9977 37.4625 46.0803C31.6439 46.5883 26.6359 44.7963 22.6199 40.5403C19.1159 36.8283 17.4706 32.335 17.8999 27.2483C18.5332 19.7337 22.4919 14.5723 29.4666 11.7577C31.274 11.034 33.2036 10.6637 35.1506 10.667Z" fill="url(#paint1_linear_906_839)"/>
<path d="M42.9202 23.4669C43.903 23.4608 44.8655 23.7467 45.6858 24.2882C46.506 24.8297 47.147 25.6025 47.5276 26.5087C47.9082 27.4149 48.0112 28.4136 47.8236 29.3784C47.6359 30.3432 47.1661 31.2306 46.4737 31.9281C45.7812 32.6256 44.8973 33.1019 43.9339 33.2965C42.9705 33.4911 41.971 33.3954 41.0621 33.0214C40.1531 32.6474 39.3757 32.0121 38.8282 31.1958C38.2807 30.3795 37.9879 29.4191 37.9868 28.4362C37.9822 27.1231 38.4994 25.8619 39.4245 24.93C40.3497 23.9981 41.6071 23.4718 42.9202 23.4669ZM39.4908 28.4002C39.4851 29.0841 39.6823 29.7543 40.0575 30.326C40.4328 30.8977 40.9693 31.3452 41.599 31.6119C42.2287 31.8786 42.9234 31.9524 43.5951 31.8241C44.2668 31.6958 44.8854 31.3711 45.3725 30.8911C45.8596 30.4111 46.1933 29.7974 46.3315 29.1276C46.4696 28.4579 46.406 27.7622 46.1485 27.1286C45.8911 26.495 45.4515 25.9521 44.8854 25.5685C44.3193 25.1848 43.652 24.9778 42.9682 24.9736C42.0538 24.9707 41.1753 25.3292 40.524 25.971C39.8727 26.6128 39.5014 27.4859 39.4908 28.4002Z" fill="url(#paint2_linear_906_839)"/>
<path d="M27.4453 23.467C28.4839 23.467 29.4013 23.8284 30.2279 24.4337C30.6146 24.7177 30.6906 25.1337 30.4586 25.4857C30.2266 25.8377 29.7773 25.9324 29.3626 25.651C28.6653 25.1777 27.9199 24.851 27.0679 25.015C26.7132 25.0822 26.3846 25.2481 26.1199 25.4937C25.6533 25.959 25.8319 26.659 26.4386 26.9177C27.2639 27.2684 28.1106 27.5764 28.9293 27.9444C29.8253 28.3444 30.5573 28.9457 30.7959 29.9564C31.1479 31.4404 30.0479 32.9724 28.3733 33.2897C26.7733 33.5964 25.3773 33.1244 24.2053 32.0044C23.8146 31.631 23.7946 31.1804 24.1133 30.8604C24.4319 30.5404 24.8479 30.5604 25.2613 30.9444C26.0706 31.6924 27.0106 32.051 28.0999 31.7964C28.4651 31.6946 28.7962 31.4966 29.0586 31.223C29.5133 30.7604 29.4586 30.147 28.9599 29.7297C28.6866 29.5139 28.384 29.3379 28.0613 29.207C27.3453 28.8937 26.6106 28.6217 25.8906 28.3177C24.1053 27.5657 23.8333 25.279 25.3839 24.103C25.9827 23.6707 26.707 23.4472 27.4453 23.467Z" fill="url(#paint3_linear_906_839)"/>
<path d="M33.7336 24.9963V27.6749H35.6762C35.8602 27.6749 36.0429 27.6749 36.2256 27.6816C36.6669 27.7123 36.9656 28.0003 36.9802 28.3949C36.982 28.4955 36.9638 28.5955 36.9266 28.6889C36.8895 28.7824 36.8341 28.8676 36.7638 28.9396C36.6935 29.0115 36.6096 29.0687 36.5169 29.108C36.4243 29.1473 36.3248 29.1677 36.2242 29.1683C35.6589 29.1989 35.0909 29.1803 34.5256 29.1816H33.7469V31.8483C34.4989 31.8483 35.2282 31.8483 35.9576 31.8483C36.1572 31.8396 36.3573 31.8449 36.5562 31.8643C36.9762 31.9216 37.2229 32.1683 37.2229 32.6016C37.2229 33.0349 36.9816 33.2989 36.5562 33.3269C36.0589 33.3589 35.5576 33.3456 35.0576 33.3469C34.3909 33.3469 33.7242 33.3589 33.0576 33.3469C32.5016 33.3323 32.2216 33.0589 32.2189 32.5083C32.2109 29.7936 32.2109 27.078 32.2189 24.3616C32.2189 23.7829 32.5069 23.5123 33.0896 23.5083C34.19 23.5012 35.2896 23.5012 36.3882 23.5083C36.9109 23.5083 37.2149 23.7843 37.2269 24.2296C37.2389 24.6749 36.9242 24.9923 36.3842 25.0043C35.9522 25.0136 35.5189 25.0043 35.0856 25.0043L33.7336 24.9963Z" fill="url(#paint4_linear_906_839)"/>
<defs>
<linearGradient id="paint0_linear_906_839" x1="6.3999" y1="57.6017" x2="59.2616" y2="55.8244" gradientUnits="userSpaceOnUse">
<stop stop-color="#F9F295"/>
<stop offset="0.348958" stop-color="#EAB54D"/>
<stop offset="0.703125" stop-color="#FAF398"/>
<stop offset="1" stop-color="#B88A44"/>
</linearGradient>
<linearGradient id="paint1_linear_906_839" x1="17.833" y1="46.1643" x2="54.499" y2="44.9309" gradientUnits="userSpaceOnUse">
<stop stop-color="#F9F295"/>
<stop offset="0.348958" stop-color="#EAB54D"/>
<stop offset="0.703125" stop-color="#FAF398"/>
<stop offset="1" stop-color="#B88A44"/>
</linearGradient>
<linearGradient id="paint2_linear_906_839" x1="37.9868" y1="33.3948" x2="48.2371" y2="33.0502" gradientUnits="userSpaceOnUse">
<stop stop-color="#F9F295"/>
<stop offset="0.348958" stop-color="#EAB54D"/>
<stop offset="0.703125" stop-color="#FAF398"/>
<stop offset="1" stop-color="#B88A44"/>
</linearGradient>
<linearGradient id="paint3_linear_906_839" x1="23.8916" y1="33.3813" x2="31.0919" y2="33.2111" gradientUnits="userSpaceOnUse">
<stop stop-color="#F9F295"/>
<stop offset="0.348958" stop-color="#EAB54D"/>
<stop offset="0.703125" stop-color="#FAF398"/>
<stop offset="1" stop-color="#B88A44"/>
</linearGradient>
<linearGradient id="paint4_linear_906_839" x1="32.2129" y1="33.3523" x2="37.3943" y2="33.2636" gradientUnits="userSpaceOnUse">
<stop stop-color="#F9F295"/>
<stop offset="0.348958" stop-color="#EAB54D"/>
<stop offset="0.703125" stop-color="#FAF398"/>
<stop offset="1" stop-color="#B88A44"/>
</linearGradient>
</defs>
</svg>
