<svg width="64" height="64" viewBox="0 0 64 64" fill="none" xmlns="http://www.w3.org/2000/svg">
<path d="M32.312 5.41211C33.4467 6.84011 34.704 8.18944 35.696 9.71211C39.34 15.3121 40.5133 21.4788 39.7453 28.0654C39.7316 28.3148 39.8026 28.5615 39.9467 28.7654C41.5929 31.0561 43.2516 33.3366 44.9227 35.6068C45.2827 36.0934 45.3533 36.5281 45.1107 37.0921C44.5773 38.3294 44.104 39.5921 43.6013 40.8428C43.2013 41.8321 42.724 41.9841 41.8507 41.3974C40.4729 40.4703 39.0951 39.5423 37.7173 38.6134C37.5627 38.5081 37.4053 38.4054 37.196 38.2668C36.9733 38.8374 36.7533 39.3588 36.5693 39.8934C36.3587 40.5041 36.0627 40.9761 35.1867 40.7988L35.9533 42.3574C36.068 42.5908 36.1947 42.8188 36.2987 43.0548C36.6107 43.7654 36.256 44.3588 35.484 44.3881C34.9653 44.4108 34.4453 44.3961 33.9267 44.3961C32.2133 44.3961 30.5 44.3961 28.7867 44.3961C27.6653 44.3961 27.312 43.8268 27.8027 42.8334C28.1013 42.2299 28.3991 41.6254 28.696 41.0201C28.7107 40.963 28.7192 40.9044 28.7213 40.8454C27.788 40.9894 27.568 40.3201 27.3333 39.6454C27.1747 39.1934 26.9907 38.7508 26.8 38.2574C25.3107 39.2601 23.8547 40.1894 22.4547 41.2001C21.2773 42.0494 20.744 41.8668 20.2547 40.5014C19.8347 39.3321 19.36 38.1801 18.8693 37.0348C18.644 36.5094 18.712 36.0934 19.044 35.6414C20.716 33.3703 22.3733 31.0886 24.016 28.7961C24.1811 28.5481 24.2577 28.2517 24.2333 27.9548C23.3333 19.8668 25.416 12.6828 30.696 6.45211C31.0053 6.08678 31.356 5.75744 31.688 5.41211H32.312ZM31.972 7.61078C31.928 7.69182 31.8799 7.77059 31.828 7.84678C28.1053 12.3548 26.028 17.5014 25.8133 23.3681C25.616 28.7654 27.0293 33.8414 28.9213 38.8174C28.9676 38.8888 29.0299 38.9484 29.1033 38.9915C29.1767 39.0345 29.2591 39.0598 29.344 39.0654C31.1093 39.0828 32.8747 39.0854 34.64 39.0654C34.738 39.0519 34.8312 39.0151 34.912 38.958C34.9927 38.9009 35.0586 38.8253 35.104 38.7374C35.7333 36.8868 36.4 35.0494 36.9333 33.1721C38.2173 28.6014 38.644 23.9721 37.7147 19.2654C36.848 14.9081 34.8813 11.0961 31.972 7.61078ZM24.6667 31.0294C24.6427 31.0428 24.604 31.0521 24.5853 31.0774C23.3062 32.8223 22.0351 34.5703 20.772 36.3214C20.7292 36.3804 20.6992 36.4475 20.6838 36.5187C20.6684 36.5899 20.668 36.6635 20.6827 36.7348C21.0267 37.6481 21.3973 38.5534 21.7787 39.5081L26.1667 36.5468C25.6587 34.6801 25.164 32.8668 24.6667 31.0294ZM42.2227 39.5068C42.5813 38.6094 42.9053 37.7574 43.264 36.9201C43.3219 36.8071 43.3438 36.6791 43.3269 36.5533C43.31 36.4275 43.255 36.3098 43.1693 36.2161C41.96 34.5734 40.7693 32.9201 39.5693 31.2708C39.5013 31.1774 39.4213 31.0921 39.348 31.0041C38.9333 32.5068 38.5333 33.9868 38.1173 35.4588C37.8133 36.5254 37.7973 36.5254 38.7107 37.1388L42.2227 39.5068ZM34.0893 42.5881C33.8227 42.0388 33.5773 41.5214 33.304 41.0361C33.258 40.9816 33.2009 40.9375 33.1365 40.9067C33.0722 40.8759 33.002 40.8591 32.9307 40.8574C32.312 40.8388 31.6907 40.8388 31.072 40.8574C31.0006 40.86 30.9306 40.8779 30.8668 40.9102C30.803 40.9424 30.747 40.9881 30.7027 41.0441C30.436 41.5348 30.192 42.0441 29.9027 42.6241C31.2013 42.6241 32.4187 42.6241 33.636 42.6241C33.7627 42.6228 33.8933 42.6041 34.084 42.5881H34.0893Z" fill="url(#paint0_linear_906_845)"/>
<path d="M8.15329 24.9111H21.7333C21.8893 24.9111 22.0453 24.9111 22.2 24.9111C22.796 24.9391 23.164 25.2658 23.1733 25.7711C23.1826 26.2764 22.8053 26.6258 22.2293 26.6764C22.0746 26.6898 21.9186 26.6764 21.7626 26.6764H8.09862C8.08662 26.8871 8.06795 27.0684 8.06795 27.2498C8.06795 36.6835 8.06795 46.1164 8.06795 55.5484C8.06795 56.5338 8.35062 56.8124 9.33462 56.8124H54.6666C55.652 56.8124 55.9346 56.5351 55.9346 55.5498C55.9346 46.1178 55.9346 36.6849 55.9346 27.2511V26.6764H55.2786C50.9177 26.6764 46.556 26.6764 42.1933 26.6764C41.9347 26.6864 41.676 26.659 41.4253 26.5951C41.2373 26.5471 41.0737 26.4311 40.9661 26.2696C40.8585 26.1081 40.8145 25.9124 40.8426 25.7204C40.8454 25.5269 40.9183 25.3409 41.0478 25.197C41.1772 25.0531 41.3544 24.961 41.5466 24.9378C41.7525 24.9095 41.9603 24.8992 42.168 24.9071C46.5288 24.9071 50.8906 24.9071 55.2533 24.9071H55.9346V23.3604C55.9346 22.5124 55.9346 21.6644 55.9346 20.8164C55.9346 19.8564 55.6546 19.5751 54.696 19.5751C50.3866 19.5751 46.0755 19.5751 41.7626 19.5751C41.54 19.5785 41.3174 19.5687 41.096 19.5458C40.8997 19.5181 40.7191 19.4232 40.5849 19.2774C40.4506 19.1315 40.3711 18.9437 40.3598 18.7458C40.3485 18.5479 40.4061 18.3522 40.5228 18.192C40.6395 18.0318 40.8081 17.917 41 17.8671C41.2027 17.8233 41.4099 17.8027 41.6173 17.8058C45.9782 17.8058 50.3395 17.8058 54.7013 17.8058C56.6253 17.8058 57.708 18.8724 57.7093 20.7844C57.7146 32.3978 57.7146 44.0115 57.7093 55.6258C57.7093 57.5164 56.624 58.5884 54.744 58.5884C39.5813 58.5884 24.4191 58.5884 9.25729 58.5884C7.37729 58.5884 6.29195 57.5218 6.29062 55.6271C6.28529 44.0138 6.28529 32.4 6.29062 20.7858C6.29062 18.8724 7.37462 17.8071 9.29729 17.8058C13.6582 17.8004 18.0195 17.8004 22.3813 17.8058H22.4853C23.2333 17.8178 23.656 18.1378 23.6613 18.6938C23.6666 19.2498 23.248 19.5778 22.496 19.5791C18.6551 19.5791 14.8128 19.5791 10.9693 19.5791C10.3293 19.5791 9.68795 19.5618 9.04795 19.5884C8.40795 19.6151 8.09195 19.9111 8.08129 20.5084C8.05862 21.9098 8.08129 23.3084 8.08129 24.7138C8.09698 24.7823 8.12116 24.8486 8.15329 24.9111Z" fill="url(#paint1_linear_906_845)"/>
<path d="M32.8735 50.1706C32.8735 50.62 32.9015 51.072 32.8655 51.5186C32.8242 52.052 32.4775 52.3653 31.9962 52.3626C31.8827 52.3676 31.7693 52.3492 31.6632 52.3083C31.5572 52.2675 31.4607 52.2052 31.3798 52.1253C31.299 52.0455 31.2355 51.9498 31.1933 51.8442C31.1512 51.7387 31.1313 51.6256 31.1349 51.512C31.1015 50.6133 31.1015 49.712 31.1349 48.8146C31.1319 48.701 31.1526 48.588 31.1955 48.4828C31.2384 48.3775 31.3027 48.2823 31.3842 48.2031C31.4658 48.1239 31.5629 48.0625 31.6693 48.0227C31.7758 47.983 31.8894 47.9657 32.0029 47.972C32.4815 47.972 32.8029 48.288 32.8722 48.8213C32.88 48.8725 32.8845 48.9242 32.8855 48.976C32.8855 49.376 32.8855 49.776 32.8855 50.176L32.8735 50.1706Z" fill="url(#paint2_linear_906_845)"/>
<path d="M29.3335 48.4224C29.3335 48.837 29.3495 49.253 29.3335 49.6677C29.3069 50.237 28.9775 50.5797 28.4829 50.593C28.3693 50.6009 28.2554 50.5853 28.1481 50.5474C28.0408 50.5095 27.9424 50.4499 27.8591 50.3724C27.7757 50.2949 27.7091 50.2012 27.6635 50.0969C27.6178 49.9927 27.594 49.8802 27.5935 49.7664C27.5509 48.8517 27.5509 47.9317 27.5935 47.017C27.593 46.9031 27.6164 46.7904 27.6621 46.686C27.7077 46.5816 27.7747 46.488 27.8587 46.411C27.9427 46.3341 28.0418 46.2755 28.1498 46.2391C28.2577 46.2027 28.3721 46.1893 28.4855 46.1997C28.9669 46.2144 29.2962 46.537 29.3255 47.0717C29.3509 47.521 29.3255 47.9717 29.3255 48.4224H29.3335Z" fill="url(#paint3_linear_906_845)"/>
<path d="M34.6746 48.3518C34.6746 47.9198 34.6546 47.4864 34.6746 47.0544C34.7053 46.5438 35.02 46.2318 35.4746 46.2024C35.9586 46.1718 36.3653 46.4584 36.392 46.9838C36.4413 47.9171 36.44 48.8504 36.392 49.7838C36.3897 49.8974 36.364 50.0094 36.3166 50.1128C36.2692 50.2161 36.2011 50.3086 36.1164 50.3845C36.0318 50.4604 35.9324 50.5181 35.8246 50.554C35.7167 50.5899 35.6026 50.6032 35.4893 50.5931C35.0133 50.5704 34.6893 50.2411 34.66 49.7024C34.6373 49.2531 34.66 48.8024 34.66 48.3518H34.6746Z" fill="url(#paint4_linear_906_845)"/>
<path d="M11.5998 22.2185C11.6012 22.3348 11.5796 22.4502 11.5363 22.558C11.493 22.6659 11.4288 22.7642 11.3474 22.8472C11.266 22.9302 11.169 22.9963 11.062 23.0417C10.955 23.0872 10.8401 23.111 10.7238 23.1119C10.4984 23.1122 10.2819 23.0237 10.1214 22.8654C9.96089 22.7071 9.86928 22.4919 9.86647 22.2665C9.85924 22.1548 9.87477 22.0427 9.91214 21.9372C9.94951 21.8316 10.0079 21.7348 10.0839 21.6525C10.1598 21.5702 10.2517 21.5042 10.3539 21.4585C10.4561 21.4127 10.5665 21.3883 10.6785 21.3865C10.7943 21.3772 10.9109 21.3917 11.021 21.4291C11.131 21.4664 11.2323 21.5259 11.3186 21.6038C11.4049 21.6817 11.4743 21.7764 11.5227 21.8821C11.571 21.9878 11.5973 22.1023 11.5998 22.2185Z" fill="url(#paint5_linear_906_845)"/>
<path d="M14.2492 21.3879C14.3657 21.3819 14.4822 21.3997 14.5916 21.4404C14.7009 21.4811 14.8008 21.5436 14.8851 21.6243C14.9694 21.705 15.0363 21.802 15.0817 21.9095C15.1271 22.0169 15.1501 22.1325 15.1492 22.2492C15.1411 22.4749 15.0482 22.6893 14.889 22.8497C14.7299 23.0101 14.5162 23.1046 14.2906 23.1145C14.1742 23.1174 14.0584 23.0968 13.9502 23.0539C13.8419 23.0111 13.7434 22.9469 13.6605 22.8651C13.5776 22.7833 13.5121 22.6857 13.4678 22.5781C13.4234 22.4704 13.4013 22.3549 13.4026 22.2385C13.4 22.1265 13.4202 22.015 13.4618 21.9109C13.5034 21.8069 13.5656 21.7122 13.6446 21.6328C13.7237 21.5533 13.818 21.4907 13.9219 21.4486C14.0258 21.4065 14.1371 21.3858 14.2492 21.3879Z" fill="url(#paint6_linear_906_845)"/>
<path d="M18.6946 22.2209C18.7004 22.4532 18.6138 22.6784 18.4536 22.8468C18.2934 23.0152 18.0729 23.1131 17.8406 23.1189C17.6083 23.1248 17.3832 23.0381 17.2147 22.8779C17.0463 22.7177 16.9484 22.4972 16.9426 22.2649C16.938 22.1528 16.9558 22.0408 16.9951 21.9357C17.0344 21.8306 17.0943 21.7343 17.1713 21.6527C17.2484 21.5711 17.341 21.5057 17.4436 21.4604C17.5463 21.4151 17.6571 21.3908 17.7693 21.3889C17.8855 21.3789 18.0026 21.3928 18.1132 21.4298C18.2238 21.4668 18.3257 21.5262 18.4124 21.6042C18.4992 21.6822 18.569 21.7772 18.6175 21.8833C18.6661 21.9894 18.6923 22.1043 18.6946 22.2209Z" fill="url(#paint7_linear_906_845)"/>
<path d="M32.0001 25.7745C31.1265 25.7716 30.2734 25.51 29.5484 25.0225C28.8235 24.5351 28.2593 23.8438 27.927 23.0359C27.5947 22.228 27.5093 21.3397 27.6815 20.4833C27.8537 19.6269 28.2758 18.8407 28.8945 18.224C29.5132 17.6073 30.3008 17.1878 31.1578 17.0184C32.0148 16.8491 32.9028 16.9375 33.7096 17.2724C34.5164 17.6074 35.2058 18.1739 35.6908 18.9005C36.1759 19.627 36.4347 20.481 36.4347 21.3545C36.4225 22.5256 35.9509 23.6449 35.1215 24.4716C34.292 25.2983 33.1711 25.7662 32.0001 25.7745ZM31.9907 23.9999C32.5154 24.0009 33.0285 23.8463 33.4652 23.5555C33.9019 23.2647 34.2425 22.8508 34.4438 22.3664C34.6451 21.8819 34.6981 21.3485 34.5962 20.8339C34.4942 20.3193 34.2417 19.8465 33.8708 19.4754C33.4999 19.1043 33.0273 18.8516 32.5127 18.7494C31.9981 18.6471 31.4647 18.6999 30.9802 18.901C30.4956 19.102 30.0816 19.4424 29.7905 19.8789C29.4995 20.3155 29.3446 20.8286 29.3454 21.3532C29.3506 22.0533 29.631 22.7233 30.1259 23.2184C30.6208 23.7136 31.2906 23.9943 31.9907 23.9999Z" fill="url(#paint8_linear_906_845)"/>
<defs>
<linearGradient id="paint0_linear_906_845" x1="18.7378" y1="44.4008" x2="46.1302" y2="43.7744" gradientUnits="userSpaceOnUse">
<stop stop-color="#F9F295"/>
<stop offset="0.348958" stop-color="#EAB54D"/>
<stop offset="0.703125" stop-color="#FAF398"/>
<stop offset="1" stop-color="#B88A44"/>
</linearGradient>
<linearGradient id="paint1_linear_906_845" x1="6.28662" y1="58.5884" x2="59.347" y2="56.339" gradientUnits="userSpaceOnUse">
<stop stop-color="#F9F295"/>
<stop offset="0.348958" stop-color="#EAB54D"/>
<stop offset="0.703125" stop-color="#FAF398"/>
<stop offset="1" stop-color="#B88A44"/>
</linearGradient>
<linearGradient id="paint2_linear_906_845" x1="31.1099" y1="52.3634" x2="32.9449" y2="52.3385" gradientUnits="userSpaceOnUse">
<stop stop-color="#F9F295"/>
<stop offset="0.348958" stop-color="#EAB54D"/>
<stop offset="0.703125" stop-color="#FAF398"/>
<stop offset="1" stop-color="#B88A44"/>
</linearGradient>
<linearGradient id="paint3_linear_906_845" x1="27.5615" y1="50.595" x2="29.4001" y2="50.57" gradientUnits="userSpaceOnUse">
<stop stop-color="#F9F295"/>
<stop offset="0.348958" stop-color="#EAB54D"/>
<stop offset="0.703125" stop-color="#FAF398"/>
<stop offset="1" stop-color="#B88A44"/>
</linearGradient>
<linearGradient id="paint4_linear_906_845" x1="34.6499" y1="50.5964" x2="36.4879" y2="50.5714" gradientUnits="userSpaceOnUse">
<stop stop-color="#F9F295"/>
<stop offset="0.348958" stop-color="#EAB54D"/>
<stop offset="0.703125" stop-color="#FAF398"/>
<stop offset="1" stop-color="#B88A44"/>
</linearGradient>
<linearGradient id="paint5_linear_906_845" x1="9.86475" y1="23.1119" x2="11.6562" y2="23.0514" gradientUnits="userSpaceOnUse">
<stop stop-color="#F9F295"/>
<stop offset="0.348958" stop-color="#EAB54D"/>
<stop offset="0.703125" stop-color="#FAF398"/>
<stop offset="1" stop-color="#B88A44"/>
</linearGradient>
<linearGradient id="paint6_linear_906_845" x1="13.4023" y1="23.1148" x2="15.2059" y2="23.0535" gradientUnits="userSpaceOnUse">
<stop stop-color="#F9F295"/>
<stop offset="0.348958" stop-color="#EAB54D"/>
<stop offset="0.703125" stop-color="#FAF398"/>
<stop offset="1" stop-color="#B88A44"/>
</linearGradient>
<linearGradient id="paint7_linear_906_845" x1="16.9419" y1="23.1192" x2="18.7517" y2="23.0577" gradientUnits="userSpaceOnUse">
<stop stop-color="#F9F295"/>
<stop offset="0.348958" stop-color="#EAB54D"/>
<stop offset="0.703125" stop-color="#FAF398"/>
<stop offset="1" stop-color="#B88A44"/>
</linearGradient>
<linearGradient id="paint8_linear_906_845" x1="27.5947" y1="25.7746" x2="36.7216" y2="25.4677" gradientUnits="userSpaceOnUse">
<stop stop-color="#F9F295"/>
<stop offset="0.348958" stop-color="#EAB54D"/>
<stop offset="0.703125" stop-color="#FAF398"/>
<stop offset="1" stop-color="#B88A44"/>
</linearGradient>
</defs>
</svg>
