<svg width="64" height="64" viewBox="0 0 64 64" fill="none" xmlns="http://www.w3.org/2000/svg">
<path d="M29.3052 57.5998C28.2759 57.2571 27.4666 56.6744 27.1866 55.5611C27.1174 55.2549 27.0856 54.9415 27.0919 54.6278C27.0866 44.7131 27.0866 34.7989 27.0919 24.8851C27.0919 23.0278 28.2226 21.9131 30.0866 21.9131H54.0866C55.9532 21.9131 57.0799 23.0291 57.0799 24.8864C57.0799 34.8011 57.0826 44.7153 57.0879 54.6291C57.0879 56.2078 56.2879 57.1291 54.8599 57.6051L29.3052 57.5998ZM28.5839 39.7184C28.5839 44.6518 28.5839 49.5851 28.5839 54.5184C28.5839 55.6878 29.0039 56.1024 30.1839 56.1024H53.9839C55.1612 56.1024 55.5839 55.6878 55.5839 54.5144C55.5839 44.6842 55.5839 34.8531 55.5839 25.0211C55.5839 23.8211 55.1652 23.4104 53.9586 23.4104H30.2052C29.0052 23.4104 28.5852 23.8224 28.5852 25.0251C28.5843 29.922 28.5839 34.8198 28.5839 39.7184Z" fill="url(#paint0_linear_906_855)"/>
<path d="M9.14521 57.6003C8.11454 57.259 7.30521 56.6763 7.02388 55.5643C6.95363 55.2583 6.92139 54.9449 6.92788 54.631C6.91987 52.2479 6.91987 49.8652 6.92788 47.483C6.92788 45.6483 8.05588 44.5216 9.87721 44.5136C10.4265 44.5136 10.9759 44.5136 11.5239 44.5136C12.1439 44.5136 12.4865 44.7976 12.4772 45.2816C12.4679 45.7656 12.1465 46.007 11.5439 46.011C10.9412 46.015 10.3439 46.0016 9.74788 46.011C8.93321 46.031 8.43188 46.5136 8.42788 47.3216C8.41543 49.8203 8.41543 52.3194 8.42788 54.819C8.42788 55.5976 8.94121 56.095 9.72521 56.0963C13.5154 56.1043 17.3065 56.1043 21.0985 56.0963C21.9052 56.0963 22.4172 55.5883 22.4199 54.7883C22.4297 52.3056 22.4297 49.8234 22.4199 47.3416C22.4199 46.499 21.8999 46.0083 21.0145 46.0083C19.2345 46.0003 17.4559 46.0083 15.6812 46.0083C15.5479 46.0083 15.4145 46.0083 15.2812 46.0083C14.8039 45.9843 14.5092 45.7056 14.5025 45.2776C14.4978 45.1769 14.5141 45.0762 14.5505 44.9821C14.5869 44.888 14.6425 44.8025 14.7137 44.7311C14.785 44.6597 14.8704 44.604 14.9644 44.5675C15.0585 44.5309 15.1591 44.5144 15.2599 44.519C17.3052 44.5083 19.3519 44.4683 21.3932 44.539C22.8399 44.5883 23.9105 45.8043 23.9185 47.259C23.9332 49.759 23.9279 52.2576 23.9185 54.7563C23.9185 56.0963 23.2012 57.0696 21.9345 57.4976C21.8611 57.5279 21.7899 57.5631 21.7212 57.603L9.14521 57.6003Z" fill="url(#paint1_linear_906_855)"/>
<path d="M12.0385 6.40039C12.3972 6.67639 12.4999 7.04439 12.4919 7.48839C12.4732 8.65506 12.4919 9.82172 12.4839 10.9884C12.4745 12.3217 11.8412 13.2004 10.5999 13.6177C9.44119 14.0084 8.12919 13.6511 7.43719 12.6564C7.15589 12.2496 6.98834 11.775 6.95186 11.2817C6.88652 9.93506 6.93319 8.58306 6.91986 7.23372C6.91986 6.82439 7.13052 6.58706 7.45319 6.40039H7.94652C8.34652 6.66706 8.43452 7.06706 8.42652 7.52439C8.40786 8.68972 8.40786 9.8555 8.42652 11.0217C8.42475 11.2832 8.49486 11.5401 8.62919 11.7644C8.95719 12.2391 9.59719 12.3884 10.1519 12.1924C10.7359 11.9857 10.9799 11.6431 10.9839 10.9831C10.9839 9.83372 10.9999 8.68439 10.9839 7.53506C10.9759 7.07772 11.0585 6.68572 11.4412 6.40039H12.0385Z" fill="url(#paint2_linear_906_855)"/>
<path d="M28.3082 6.40039C28.6802 6.66706 28.8042 7.01372 28.7976 7.46706C28.7749 8.69639 28.8069 9.92706 28.7842 11.1577C28.7576 12.5777 27.6656 13.6471 26.1562 13.7724C24.8429 13.8817 23.5029 12.9337 23.2682 11.6791C23.1842 11.2284 23.2189 10.7457 23.2149 10.2884C23.2082 9.34039 23.2322 8.39239 23.2056 7.44572C23.1922 6.98439 23.3136 6.63506 23.7176 6.40039H24.2162C24.6069 6.64572 24.7269 6.99772 24.7176 7.45506C24.6949 8.63372 24.7082 9.81372 24.7176 10.9937C24.7176 11.7497 25.2509 12.2831 25.9829 12.2804C26.7549 12.2804 27.2936 11.7471 27.2976 10.9737C27.2976 9.77372 27.3149 8.57372 27.2976 7.38572C27.2882 6.93639 27.4309 6.61372 27.8216 6.40039H28.3082Z" fill="url(#paint3_linear_906_855)"/>
<path d="M34.7999 6.39996C35.3999 6.89196 35.4373 7.17063 34.9813 7.82663C34.5719 8.41196 34.1706 9.00396 33.7426 9.57596C33.5706 9.80396 33.5826 9.96529 33.7426 10.188C34.2759 10.928 34.7999 11.6786 35.3199 12.4306C35.6746 12.9413 35.6386 13.3786 35.2346 13.6466C34.8306 13.9146 34.4493 13.78 34.1013 13.2933C33.6199 12.616 33.1453 11.936 32.6199 11.1893L31.4319 12.868C31.2986 13.0573 31.1733 13.2546 31.0319 13.4346C30.7266 13.808 30.3239 13.8773 29.9799 13.6293C29.6359 13.3813 29.5639 12.9626 29.8266 12.5626C30.3119 11.8373 30.8279 11.1226 31.3333 10.4C31.4479 10.2373 31.5586 10.072 31.6946 9.86663C31.2226 9.19196 30.7502 8.51551 30.2773 7.83729C29.8199 7.18262 29.8426 6.93329 30.4039 6.39062H31.0026L32.6399 8.53329C32.8053 8.30129 32.9399 8.09329 33.0933 7.89863C33.4933 7.39463 33.8933 6.89596 34.2933 6.39462L34.7999 6.39996Z" fill="url(#paint4_linear_906_855)"/>
<path d="M21.0213 6.40039C21.5719 6.84039 21.6266 7.03239 21.3573 7.67372C20.5839 9.51106 19.8133 11.3484 19.0319 13.1804C18.7506 13.8471 18.0986 13.9804 17.6986 13.4831C17.4599 13.1777 17.5319 12.8711 17.6693 12.5497C18.3804 10.8857 19.0853 9.21906 19.7839 7.54972C19.8296 7.40742 19.889 7.26989 19.9613 7.13906C20.1333 6.88572 20.3293 6.64839 20.5159 6.40439L21.0213 6.40039Z" fill="url(#paint5_linear_906_855)"/>
<path d="M15.1331 6.40039C15.5171 6.65239 15.6344 7.00706 15.6304 7.46706C15.6118 9.24839 15.6398 11.0311 15.6051 12.8124C15.594 13.1329 15.457 13.4362 15.2238 13.6564C14.7504 14.0204 14.1331 13.6004 14.1331 12.9337C14.1224 11.6004 14.1331 10.2671 14.1331 8.93372C14.1331 8.41772 14.1558 7.90039 14.1331 7.38572C14.1078 7.19011 14.1421 6.99141 14.2316 6.81562C14.321 6.63982 14.4614 6.4951 14.6344 6.40039H15.1331Z" fill="url(#paint6_linear_906_855)"/>
<path d="M56.5532 6.40013C56.6772 6.50546 56.8666 6.58813 56.9119 6.72146C56.9932 6.95613 57.0932 7.28679 56.9906 7.45879C56.912 7.57689 56.8089 7.6767 56.6884 7.75147C56.5678 7.82624 56.4326 7.87421 56.2919 7.89213C54.5826 7.92813 52.8719 7.91079 51.1626 7.91213C50.7626 7.91213 50.4879 7.71346 50.3959 7.33079C50.2826 6.85346 50.5812 6.59213 50.9639 6.39746L56.5532 6.40013Z" fill="url(#paint7_linear_906_855)"/>
<path d="M23.9198 31.3747C23.9198 33.556 23.9198 35.7382 23.9198 37.9213C23.9198 39.664 22.8065 40.828 21.0718 40.8373C17.3136 40.856 13.5554 40.856 9.79714 40.8373C8.04647 40.8373 6.93447 39.6933 6.92647 37.948C6.91713 35.8333 6.92647 33.7173 6.92647 31.6013C6.92647 30.9773 7.21713 30.656 7.71847 30.688C8.17847 30.7173 8.41847 31.0373 8.4198 31.656C8.4198 33.5555 8.4198 35.4551 8.4198 37.3547C8.4198 39.088 8.67713 39.344 10.4198 39.344H20.7465C22.0451 39.344 22.4278 38.9547 22.4278 37.6387V25.0413C22.4278 23.824 22.0051 23.408 20.7731 23.408H9.9918C8.85447 23.408 8.4238 23.8373 8.42113 24.9707C8.42113 25.888 8.42113 26.804 8.42113 27.72C8.42113 28.3053 8.1358 28.6533 7.68513 28.6707C7.23447 28.688 6.92913 28.3293 6.9278 27.708C6.9278 26.708 6.91447 25.708 6.9278 24.7093C6.9518 23.072 8.11313 21.9093 9.74247 21.9093C13.5327 21.9013 17.3238 21.9013 21.1158 21.9093C22.7331 21.9093 23.9158 23.1 23.9158 24.7253C23.9265 26.9427 23.9198 29.1587 23.9198 31.3747Z" fill="url(#paint8_linear_906_855)"/>
<path d="M32.0586 17.0919H55.9026C56.0688 17.0859 56.2353 17.0886 56.4012 17.0999C56.5686 17.1184 56.7246 17.1936 56.8433 17.3131C56.962 17.4325 57.0362 17.5889 57.0537 17.7564C57.0711 17.9239 57.0307 18.0923 56.9392 18.2336C56.8477 18.3749 56.7105 18.4807 56.5506 18.5333C56.3573 18.5793 56.1583 18.5972 55.9599 18.5866C39.9812 18.5866 24.0026 18.5866 8.02391 18.5866C7.80945 18.5958 7.59497 18.5692 7.38924 18.5079C7.02924 18.3746 6.82924 18.0599 6.96124 17.7199C7.05724 17.4706 7.33457 17.2653 7.57724 17.1106C7.71057 17.0279 7.93324 17.0893 8.11057 17.0893L32.0586 17.0919Z" fill="url(#paint9_linear_906_855)"/>
<path d="M15.388 51.8036C14.3426 51.8036 13.2973 51.8036 12.2533 51.8036C11.6853 51.8036 11.336 51.4996 11.348 51.041C11.36 50.5823 11.696 50.309 12.2373 50.3076C14.3608 50.3076 16.4844 50.3076 18.608 50.3076C19.1413 50.3076 19.4853 50.609 19.4906 51.0503C19.496 51.4916 19.1573 51.7983 18.6226 51.8023C17.5453 51.8076 16.4666 51.8023 15.388 51.8036Z" fill="url(#paint10_linear_906_855)"/>
<path d="M53.7188 10.8321C52.9055 10.8321 52.0908 10.8388 51.2775 10.8321C50.7042 10.8321 50.3588 10.5241 50.3735 10.0681C50.3882 9.61213 50.7162 9.33346 51.2695 9.33346C52.9139 9.32635 54.5584 9.32635 56.2028 9.33346C56.7642 9.33346 57.0695 9.61746 57.0722 10.0788C57.0748 10.5401 56.7788 10.8188 56.2108 10.8255C55.3802 10.8401 54.5495 10.8321 53.7188 10.8321Z" fill="url(#paint11_linear_906_855)"/>
<path d="M53.7108 13.7561C52.8974 13.7561 52.0841 13.7561 51.2708 13.7561C50.7161 13.7494 50.3868 13.4721 50.3734 13.0307C50.3601 12.5894 50.7028 12.2667 51.2774 12.2667C52.9201 12.2587 54.5645 12.2587 56.2108 12.2667C56.7801 12.2667 57.0748 12.5467 57.0734 13.0147C57.0721 13.4827 56.7694 13.7507 56.2054 13.7574C55.3721 13.7641 54.5414 13.7561 53.7108 13.7561Z" fill="url(#paint12_linear_906_855)"/>
<path d="M17.4789 28.1243C16.8122 28.1243 16.1455 28.1323 15.4789 28.1243C14.9775 28.115 14.6495 27.807 14.6509 27.3817C14.6522 26.9563 14.9842 26.6403 15.4829 26.635C16.7789 26.6217 18.0753 26.6217 19.3722 26.635C19.9055 26.635 20.2322 26.9577 20.2162 27.4137C20.2015 27.847 19.8909 28.119 19.3669 28.127C18.7429 28.1337 18.1109 28.1243 17.4789 28.1243Z" fill="url(#paint13_linear_906_855)"/>
<path d="M17.4759 32.1169C16.8092 32.1169 16.1426 32.1249 15.4759 32.1169C14.9772 32.1089 14.6479 31.8009 14.6519 31.3729C14.6536 31.2722 14.6754 31.1728 14.716 31.0806C14.7566 30.9884 14.8151 30.9052 14.8883 30.8359C14.9614 30.7666 15.0476 30.7126 15.1419 30.6771C15.2361 30.6415 15.3366 30.6251 15.4372 30.6289C16.7706 30.612 18.1003 30.612 19.4266 30.6289C19.9266 30.6289 20.2346 30.9702 20.2172 31.4089C20.2012 31.8249 19.8959 32.1075 19.4172 32.1169C18.7719 32.1329 18.1239 32.1169 17.4759 32.1169Z" fill="url(#paint14_linear_906_855)"/>
<path d="M17.4359 36.1172C16.7879 36.1172 16.1399 36.1252 15.4906 36.1172C14.9879 36.1092 14.6613 35.8079 14.6573 35.3812C14.6533 34.9545 14.9866 34.6319 15.4813 34.6265C16.779 34.6141 18.0759 34.6141 19.3719 34.6265C19.9053 34.6265 20.2346 34.9412 20.2226 35.3959C20.2119 35.8305 19.8986 36.1092 19.3813 36.1185C18.7333 36.1252 18.0839 36.1172 17.4359 36.1172Z" fill="url(#paint15_linear_906_855)"/>
<path d="M11.5572 32.1168C10.9492 32.1168 10.6358 31.8742 10.6238 31.3982C10.6118 30.9222 10.9518 30.6208 11.5572 30.6182C12.1625 30.6155 12.5265 30.9048 12.5265 31.3782C12.5265 31.8515 12.1745 32.1195 11.5572 32.1168Z" fill="url(#paint16_linear_906_855)"/>
<path d="M11.5585 36.1168C10.9398 36.1168 10.6078 35.8435 10.6252 35.3475C10.6398 34.8782 10.9705 34.6208 11.5585 34.6182C12.1465 34.6155 12.5305 34.8982 12.5305 35.3715C12.5305 35.8448 12.1692 36.1195 11.5585 36.1168Z" fill="url(#paint17_linear_906_855)"/>
<path d="M11.5696 28.1251C10.9416 28.1251 10.6149 27.8584 10.6242 27.3651C10.6322 26.8944 10.9629 26.6304 11.5496 26.6251C12.1362 26.6197 12.5229 26.8984 12.5309 27.3704C12.5389 27.8424 12.1776 28.1251 11.5696 28.1251Z" fill="url(#paint18_linear_906_855)"/>
<path d="M42.1331 27.3664C46.2744 27.3664 49.6651 30.6117 49.9424 34.8504C50.2024 38.7984 47.1958 42.4597 43.2411 43.0144C39.3091 43.5664 35.6411 41.2211 34.5571 37.4411C34.4838 37.1877 34.4518 36.8424 34.5691 36.6411C34.6864 36.4397 35.0078 36.2811 35.2518 36.2637C35.6171 36.2384 35.8384 36.5184 35.9371 36.8757C36.3597 38.4616 37.3785 39.8229 38.7809 40.6755C40.1832 41.5281 41.8606 41.8061 43.463 41.4515C45.0654 41.097 46.4689 40.1372 47.3806 38.7725C48.2923 37.4079 48.6417 35.7438 48.3558 34.1277C47.9024 31.4611 45.6691 29.2997 42.9864 28.9277C41.4817 28.7155 39.9506 29.0481 38.6695 29.8654C37.3884 30.6828 36.4415 31.931 35.9998 33.3851C35.9758 33.4651 35.9531 33.5451 35.9251 33.6237C35.7518 34.1064 35.3998 34.3157 34.9718 34.1917C34.5638 34.0731 34.3691 33.6811 34.5038 33.1824C34.9518 31.5049 35.944 30.0236 37.3248 28.971C38.7056 27.9184 40.3969 27.354 42.1331 27.3664Z" fill="url(#paint19_linear_906_855)"/>
<path d="M42.0602 52.4103C39.8815 52.4103 37.7029 52.425 35.5269 52.4103C34.7962 52.3991 34.0929 52.1304 33.541 51.6515C32.9891 51.1726 32.6239 50.5143 32.5097 49.7925C32.3956 49.0707 32.54 48.3318 32.9173 47.706C33.2946 47.0802 33.8806 46.6077 34.5722 46.3716C34.9195 46.2602 35.2821 46.204 35.6469 46.205C39.9366 46.1934 44.2264 46.1934 48.5162 46.205C50.3162 46.205 51.6775 47.5463 51.6829 49.297C51.6882 51.0476 50.3375 52.3996 48.5442 52.4076C46.3829 52.4223 44.2215 52.4076 42.0602 52.4076V52.4103ZM42.0975 50.9116C44.2762 50.9116 46.4549 50.9236 48.6309 50.9116C49.0552 50.9141 49.4632 50.7479 49.765 50.4496C50.0668 50.1513 50.2377 49.7453 50.2402 49.321C50.2427 48.8966 50.0765 48.4887 49.7782 48.1868C49.4799 47.885 49.0739 47.7141 48.6495 47.7116C44.2762 47.7001 39.902 47.7001 35.5269 47.7116C34.8442 47.7116 34.3629 48.0796 34.0962 48.6996C33.6375 49.7663 34.4109 50.913 35.6082 50.921C37.7735 50.9223 39.9362 50.9116 42.0975 50.9116Z" fill="url(#paint20_linear_906_855)"/>
<defs>
<linearGradient id="paint0_linear_906_855" x1="27.0879" y1="57.6051" x2="58.0718" y2="56.7295" gradientUnits="userSpaceOnUse">
<stop stop-color="#F9F295"/>
<stop offset="0.348958" stop-color="#EAB54D"/>
<stop offset="0.703125" stop-color="#FAF398"/>
<stop offset="1" stop-color="#B88A44"/>
</linearGradient>
<linearGradient id="paint1_linear_906_855" x1="6.92188" y1="57.603" x2="24.466" y2="56.8375" gradientUnits="userSpaceOnUse">
<stop stop-color="#F9F295"/>
<stop offset="0.348958" stop-color="#EAB54D"/>
<stop offset="0.703125" stop-color="#FAF398"/>
<stop offset="1" stop-color="#B88A44"/>
</linearGradient>
<linearGradient id="paint2_linear_906_855" x1="6.91602" y1="13.7728" x2="12.676" y2="13.6263" gradientUnits="userSpaceOnUse">
<stop stop-color="#F9F295"/>
<stop offset="0.348958" stop-color="#EAB54D"/>
<stop offset="0.703125" stop-color="#FAF398"/>
<stop offset="1" stop-color="#B88A44"/>
</linearGradient>
<linearGradient id="paint3_linear_906_855" x1="23.2046" y1="13.781" x2="28.9821" y2="13.6338" gradientUnits="userSpaceOnUse">
<stop stop-color="#F9F295"/>
<stop offset="0.348958" stop-color="#EAB54D"/>
<stop offset="0.703125" stop-color="#FAF398"/>
<stop offset="1" stop-color="#B88A44"/>
</linearGradient>
<linearGradient id="paint4_linear_906_855" x1="29.668" y1="13.7823" x2="35.7574" y2="13.619" gradientUnits="userSpaceOnUse">
<stop stop-color="#F9F295"/>
<stop offset="0.348958" stop-color="#EAB54D"/>
<stop offset="0.703125" stop-color="#FAF398"/>
<stop offset="1" stop-color="#B88A44"/>
</linearGradient>
<linearGradient id="paint5_linear_906_855" x1="17.5425" y1="13.7835" x2="21.6467" y2="13.7092" gradientUnits="userSpaceOnUse">
<stop stop-color="#F9F295"/>
<stop offset="0.348958" stop-color="#EAB54D"/>
<stop offset="0.703125" stop-color="#FAF398"/>
<stop offset="1" stop-color="#B88A44"/>
</linearGradient>
<linearGradient id="paint6_linear_906_855" x1="14.125" y1="13.7908" x2="15.6811" y2="13.7802" gradientUnits="userSpaceOnUse">
<stop stop-color="#F9F295"/>
<stop offset="0.348958" stop-color="#EAB54D"/>
<stop offset="0.703125" stop-color="#FAF398"/>
<stop offset="1" stop-color="#B88A44"/>
</linearGradient>
<linearGradient id="paint7_linear_906_855" x1="50.3716" y1="7.91515" x2="57.1114" y2="6.92033" gradientUnits="userSpaceOnUse">
<stop stop-color="#F9F295"/>
<stop offset="0.348958" stop-color="#EAB54D"/>
<stop offset="0.703125" stop-color="#FAF398"/>
<stop offset="1" stop-color="#B88A44"/>
</linearGradient>
<linearGradient id="paint8_linear_906_855" x1="6.92188" y1="40.8513" x2="24.4775" y2="40.3217" gradientUnits="userSpaceOnUse">
<stop stop-color="#F9F295"/>
<stop offset="0.348958" stop-color="#EAB54D"/>
<stop offset="0.703125" stop-color="#FAF398"/>
<stop offset="1" stop-color="#B88A44"/>
</linearGradient>
<linearGradient id="paint9_linear_906_855" x1="6.92041" y1="18.5896" x2="30.1964" y2="-7.18755" gradientUnits="userSpaceOnUse">
<stop stop-color="#F9F295"/>
<stop offset="0.348958" stop-color="#EAB54D"/>
<stop offset="0.703125" stop-color="#FAF398"/>
<stop offset="1" stop-color="#B88A44"/>
</linearGradient>
<linearGradient id="paint10_linear_906_855" x1="11.3477" y1="51.8047" x2="19.4921" y2="50.3152" gradientUnits="userSpaceOnUse">
<stop stop-color="#F9F295"/>
<stop offset="0.348958" stop-color="#EAB54D"/>
<stop offset="0.703125" stop-color="#FAF398"/>
<stop offset="1" stop-color="#B88A44"/>
</linearGradient>
<linearGradient id="paint11_linear_906_855" x1="50.373" y1="10.8351" x2="57.1461" y2="9.82273" gradientUnits="userSpaceOnUse">
<stop stop-color="#F9F295"/>
<stop offset="0.348958" stop-color="#EAB54D"/>
<stop offset="0.703125" stop-color="#FAF398"/>
<stop offset="1" stop-color="#B88A44"/>
</linearGradient>
<linearGradient id="paint12_linear_906_855" x1="50.373" y1="13.7601" x2="57.1458" y2="12.7424" gradientUnits="userSpaceOnUse">
<stop stop-color="#F9F295"/>
<stop offset="0.348958" stop-color="#EAB54D"/>
<stop offset="0.703125" stop-color="#FAF398"/>
<stop offset="1" stop-color="#B88A44"/>
</linearGradient>
<linearGradient id="paint13_linear_906_855" x1="14.6509" y1="28.1294" x2="20.3163" y2="27.4247" gradientUnits="userSpaceOnUse">
<stop stop-color="#F9F295"/>
<stop offset="0.348958" stop-color="#EAB54D"/>
<stop offset="0.703125" stop-color="#FAF398"/>
<stop offset="1" stop-color="#B88A44"/>
</linearGradient>
<linearGradient id="paint14_linear_906_855" x1="14.6519" y1="32.124" x2="20.3178" y2="31.4207" gradientUnits="userSpaceOnUse">
<stop stop-color="#F9F295"/>
<stop offset="0.348958" stop-color="#EAB54D"/>
<stop offset="0.703125" stop-color="#FAF398"/>
<stop offset="1" stop-color="#B88A44"/>
</linearGradient>
<linearGradient id="paint15_linear_906_855" x1="14.6572" y1="36.1212" x2="20.3223" y2="35.4163" gradientUnits="userSpaceOnUse">
<stop stop-color="#F9F295"/>
<stop offset="0.348958" stop-color="#EAB54D"/>
<stop offset="0.703125" stop-color="#FAF398"/>
<stop offset="1" stop-color="#B88A44"/>
</linearGradient>
<linearGradient id="paint16_linear_906_855" x1="10.6235" y1="32.1169" x2="12.5869" y2="32.033" gradientUnits="userSpaceOnUse">
<stop stop-color="#F9F295"/>
<stop offset="0.348958" stop-color="#EAB54D"/>
<stop offset="0.703125" stop-color="#FAF398"/>
<stop offset="1" stop-color="#B88A44"/>
</linearGradient>
<linearGradient id="paint17_linear_906_855" x1="10.6245" y1="36.1169" x2="12.591" y2="36.0328" gradientUnits="userSpaceOnUse">
<stop stop-color="#F9F295"/>
<stop offset="0.348958" stop-color="#EAB54D"/>
<stop offset="0.703125" stop-color="#FAF398"/>
<stop offset="1" stop-color="#B88A44"/>
</linearGradient>
<linearGradient id="paint18_linear_906_855" x1="10.624" y1="28.1251" x2="12.5915" y2="28.041" gradientUnits="userSpaceOnUse">
<stop stop-color="#F9F295"/>
<stop offset="0.348958" stop-color="#EAB54D"/>
<stop offset="0.703125" stop-color="#FAF398"/>
<stop offset="1" stop-color="#B88A44"/>
</linearGradient>
<linearGradient id="paint19_linear_906_855" x1="34.4614" y1="43.0946" x2="50.4616" y2="42.5646" gradientUnits="userSpaceOnUse">
<stop stop-color="#F9F295"/>
<stop offset="0.348958" stop-color="#EAB54D"/>
<stop offset="0.703125" stop-color="#FAF398"/>
<stop offset="1" stop-color="#B88A44"/>
</linearGradient>
<linearGradient id="paint20_linear_906_855" x1="32.4717" y1="52.4168" x2="52.117" y2="50.3769" gradientUnits="userSpaceOnUse">
<stop stop-color="#F9F295"/>
<stop offset="0.348958" stop-color="#EAB54D"/>
<stop offset="0.703125" stop-color="#FAF398"/>
<stop offset="1" stop-color="#B88A44"/>
</linearGradient>
</defs>
</svg>
